<svg width="560" height="640" viewBox="0 0 560 640" fill="none" xmlns="http://www.w3.org/2000/svg">
<path d="M28.5 180C30.433 180 32 178.433 32 176.5C32 174.567 30.433 173 28.5 173C26.567 173 25 174.567 25 176.5C25 178.433 26.567 180 28.5 180Z" fill="#D5CDCB" stroke="#D5CDCB" stroke-width="1.2" stroke-linecap="round" stroke-linejoin="round"/>
<path d="M16.5 187C18.433 187 20 185.433 20 183.5C20 181.567 18.433 180 16.5 180C14.567 180 13 181.567 13 183.5C13 185.433 14.567 187 16.5 187Z" fill="#D5CDCB" stroke="#D5CDCB" stroke-width="1.2" stroke-linecap="round" stroke-linejoin="round"/>
<path d="M29.5 195C31.433 195 33 193.433 33 191.5C33 189.567 31.433 188 29.5 188C27.567 188 26 189.567 26 191.5C26 193.433 27.567 195 29.5 195Z" fill="#D5CDCB" stroke="#D5CDCB" stroke-width="1.2" stroke-linecap="round" stroke-linejoin="round"/>
<path d="M16.5 183.5L29.5 191.5" stroke="#D5CDCB" stroke-width="1.4" stroke-linecap="round" stroke-linejoin="round"/>
<path d="M16.5 183.5L28.5 176.5" stroke="#D5CDCB" stroke-width="1.4" stroke-linecap="round" stroke-linejoin="round"/>
<path d="M68.5 180C70.433 180 72 178.433 72 176.5C72 174.567 70.433 173 68.5 173C66.567 173 65 174.567 65 176.5C65 178.433 66.567 180 68.5 180Z" fill="#3A3736" stroke="#3A3736" stroke-width="1.2" stroke-linecap="round" stroke-linejoin="round"/>
<path d="M56.5 187C58.433 187 60 185.433 60 183.5C60 181.567 58.433 180 56.5 180C54.567 180 53 181.567 53 183.5C53 185.433 54.567 187 56.5 187Z" fill="#3A3736" stroke="#3A3736" stroke-width="1.2" stroke-linecap="round" stroke-linejoin="round"/>
<path d="M69.5 195C71.433 195 73 193.433 73 191.5C73 189.567 71.433 188 69.5 188C67.567 188 66 189.567 66 191.5C66 193.433 67.567 195 69.5 195Z" fill="#3A3736" stroke="#3A3736" stroke-width="1.2" stroke-linecap="round" stroke-linejoin="round"/>
<path d="M56.5 183.5L69.5 191.5" stroke="#3A3736" stroke-width="1.4" stroke-linecap="round" stroke-linejoin="round"/>
<path d="M56.5 183.5L68.5 176.5" stroke="#3A3736" stroke-width="1.4" stroke-linecap="round" stroke-linejoin="round"/>
<path d="M108.5 180C110.433 180 112 178.433 112 176.5C112 174.567 110.433 173 108.5 173C106.567 173 105 174.567 105 176.5C105 178.433 106.567 180 108.5 180Z" fill="white" stroke="white" stroke-width="1.2" stroke-linecap="round" stroke-linejoin="round"/>
<path d="M96.5 187C98.433 187 100 185.433 100 183.5C100 181.567 98.433 180 96.5 180C94.567 180 93 181.567 93 183.5C93 185.433 94.567 187 96.5 187Z" fill="white" stroke="white" stroke-width="1.2" stroke-linecap="round" stroke-linejoin="round"/>
<path d="M109.5 195C111.433 195 113 193.433 113 191.5C113 189.567 111.433 188 109.5 188C107.567 188 106 189.567 106 191.5C106 193.433 107.567 195 109.5 195Z" fill="white" stroke="white" stroke-width="1.2" stroke-linecap="round" stroke-linejoin="round"/>
<path d="M96.5 183.5L109.5 191.5" stroke="white" stroke-width="1.4" stroke-linecap="round" stroke-linejoin="round"/>
<path d="M96.5 183.5L108.5 176.5" stroke="white" stroke-width="1.4" stroke-linecap="round" stroke-linejoin="round"/>
<path d="M90.9996 224.482V226.589C91.0004 226.785 90.9602 226.979 90.8817 227.158C90.8031 227.337 90.6879 227.498 90.5435 227.63C90.399 227.763 90.2285 227.863 90.0428 227.926C89.8571 227.989 89.6603 228.012 89.465 227.994C87.299 227.759 85.2183 227.021 83.3902 225.838C81.6895 224.759 80.2475 223.32 79.1667 221.622C77.9771 219.79 77.2368 217.703 77.0057 215.532C76.9881 215.337 77.0113 215.141 77.0736 214.957C77.136 214.772 77.2363 214.602 77.3681 214.458C77.4998 214.314 77.6602 214.199 77.839 214.12C78.0178 214.041 78.2111 214 78.4065 214H80.5183C80.8599 213.997 81.1911 214.117 81.4501 214.34C81.7091 214.562 81.8783 214.871 81.9261 215.208C82.0152 215.883 82.1805 216.545 82.4188 217.182C82.5135 217.434 82.534 217.707 82.4779 217.97C82.4218 218.233 82.2913 218.474 82.1021 218.665L81.2081 219.557C82.2102 221.316 83.6693 222.772 85.4316 223.772L86.3256 222.88C86.517 222.691 86.7586 222.561 87.0218 222.505C87.2851 222.449 87.5589 222.469 87.8108 222.564C88.4495 222.802 89.113 222.967 89.7888 223.056C90.1308 223.104 90.4431 223.276 90.6663 223.539C90.8895 223.801 91.0081 224.137 90.9996 224.482Z" stroke="#F47630" stroke-width="1.2" stroke-linecap="round" stroke-linejoin="round"/>
<path d="M123 224.482V226.589C123 226.785 122.96 226.979 122.882 227.158C122.803 227.337 122.688 227.498 122.543 227.63C122.399 227.763 122.228 227.863 122.043 227.926C121.857 227.989 121.66 228.012 121.465 227.994C119.299 227.759 117.218 227.021 115.39 225.838C113.689 224.759 112.247 223.32 111.167 221.622C109.977 219.79 109.237 217.703 109.006 215.532C108.988 215.337 109.011 215.141 109.074 214.957C109.136 214.772 109.236 214.602 109.368 214.458C109.5 214.314 109.66 214.199 109.839 214.12C110.018 214.041 110.211 214 110.407 214H112.518C112.86 213.997 113.191 214.117 113.45 214.34C113.709 214.562 113.878 214.871 113.926 215.208C114.015 215.883 114.181 216.545 114.419 217.182C114.514 217.434 114.534 217.707 114.478 217.97C114.422 218.233 114.291 218.474 114.102 218.665L113.208 219.557C114.21 221.316 115.669 222.772 117.432 223.772L118.326 222.88C118.517 222.691 118.759 222.561 119.022 222.505C119.285 222.449 119.559 222.469 119.811 222.564C120.449 222.802 121.113 222.967 121.789 223.056C122.131 223.104 122.443 223.276 122.666 223.539C122.89 223.801 123.008 224.137 123 224.482Z" stroke="white" stroke-width="1.2" stroke-linecap="round" stroke-linejoin="round"/>
<path d="M45 219.812C45 218.627 45 218.035 45.2745 217.514C45.5489 216.994 46.0644 216.608 47.0953 215.838L48.0953 215.09C49.9586 213.697 50.8902 213 52 213C53.1098 213 54.0414 213.697 55.9047 215.09L56.9047 215.838C57.9356 216.608 58.4511 216.994 58.7255 217.514C59 218.035 59 218.627 59 219.812V223.511C59 225.156 59 225.978 58.4142 226.489C57.8284 227 56.8856 227 55 227H49C47.1144 227 46.1716 227 45.5858 226.489C45 225.978 45 225.156 45 223.511V219.812Z" stroke="#3A3736" stroke-width="1.2"/>
<path d="M55 227V222C55 221.448 54.5523 221 54 221H50C49.4477 221 49 221.448 49 222V227" stroke="#3A3736" stroke-width="1.2" stroke-linecap="round" stroke-linejoin="round"/>
<path d="M455 219.812C455 218.627 455 218.035 455.274 217.514C455.549 216.994 456.064 216.608 457.095 215.838L458.095 215.09C459.959 213.697 460.89 213 462 213C463.11 213 464.041 213.697 465.905 215.09L466.905 215.838C467.936 216.608 468.451 216.994 468.726 217.514C469 218.035 469 218.627 469 219.812V223.511C469 225.156 469 225.978 468.414 226.489C467.828 227 466.886 227 465 227H459C457.114 227 456.172 227 455.586 226.489C455 225.978 455 225.156 455 223.511V219.812Z" stroke="white" stroke-width="1.2"/>
<path d="M465 227V222C465 221.448 464.552 221 464 221H460C459.448 221 459 221.448 459 222V227" stroke="white" stroke-width="1.2" stroke-linecap="round" stroke-linejoin="round"/>
<path d="M144 217.556L148 222M148 222L152 217.556M148 222L148 213" stroke="#3A3736" stroke-width="1.2" stroke-linecap="round" stroke-linejoin="round"/>
<path d="M141 223L141 224C141 225.105 141.895 226 143 226L153 226C154.105 226 155 225.105 155 224V223" stroke="#3A3736" stroke-width="1.2" stroke-linecap="round" stroke-linejoin="round"/>
<path d="M135.786 27.1765C137.799 28.1991 139 29.4901 139 30.8935C139 34.2117 132.284 36 124 36C115.716 36 109 34.2117 109 30.8935C109 29.4901 110.201 28.1991 112.214 27.1765" stroke="white" stroke-width="1.4" stroke-linecap="round"/>
<path d="M117.392 30.6202C116.895 30.6202 116.448 30.5 116.058 30.2595C115.659 30.019 115.348 29.6983 115.114 29.2875C114.88 28.8767 114.764 28.4257 114.764 27.9347H116.175C116.175 28.1552 116.224 28.3656 116.331 28.546C116.438 28.7263 116.574 28.8767 116.759 28.9869C116.944 29.0971 117.148 29.1572 117.382 29.1572C117.596 29.1572 117.8 29.1071 117.985 28.9869C118.17 28.8767 118.316 28.7263 118.433 28.546C118.55 28.3656 118.599 28.1552 118.599 27.9347C118.599 27.6441 118.521 27.3936 118.375 27.2032C118.219 27.0128 118.015 26.8625 117.742 26.7623C117.47 26.6621 117.158 26.622 116.798 26.622V25.4897C117.285 25.4897 117.664 25.3995 117.946 25.2091C118.229 25.0187 118.375 24.7482 118.375 24.3774C118.375 24.187 118.326 24.0167 118.238 23.8564C118.141 23.696 118.024 23.5758 117.869 23.4756C117.713 23.3854 117.547 23.3353 117.362 23.3353C117.178 23.3353 116.993 23.3854 116.817 23.4756C116.642 23.5658 116.496 23.696 116.389 23.8564C116.282 24.0167 116.224 24.187 116.224 24.3774H114.793C114.793 24.0367 114.861 23.7061 114.997 23.4054C115.134 23.1048 115.318 22.8343 115.562 22.6138C115.805 22.3934 116.068 22.203 116.379 22.0727C116.691 21.9424 117.002 21.8823 117.343 21.8823C117.781 21.8823 118.19 21.9926 118.56 22.223C118.929 22.4435 119.231 22.7441 119.455 23.1249C119.679 23.5057 119.796 23.9265 119.796 24.3875C119.796 24.7081 119.718 25.0288 119.572 25.3394C119.426 25.65 119.212 25.8705 118.939 26.0008C119.173 26.0909 119.377 26.2312 119.533 26.4417C119.689 26.6521 119.815 26.8826 119.903 27.1431C119.99 27.4036 120.029 27.6642 120.029 27.9347C120.029 28.4257 119.913 28.8767 119.669 29.2875C119.426 29.6983 119.105 30.019 118.706 30.2595C118.307 30.5 117.869 30.6202 117.392 30.6202Z" fill="white" stroke="white" stroke-width="0.1" stroke-linejoin="round"/>
<path d="M123.746 30.696C123.221 30.696 122.744 30.5657 122.306 30.2952C121.868 30.0246 121.517 29.6639 121.264 29.223C121.002 28.772 120.875 28.281 120.875 27.7299C120.875 27.4493 120.904 27.1888 120.972 26.9483C121.041 26.7078 121.138 26.4673 121.274 26.2168L123.561 22.1284H125.216L123.678 24.864C123.99 24.844 124.301 24.864 124.593 24.9442C124.885 25.0244 125.158 25.1546 125.401 25.325C125.654 25.4953 125.868 25.7057 126.053 25.9462C126.238 26.1867 126.384 26.4673 126.491 26.7679C126.598 27.0685 126.647 27.3892 126.647 27.7299C126.647 28.1407 126.569 28.5215 126.423 28.8823C126.277 29.243 126.063 29.5536 125.8 29.8342C125.537 30.1148 125.226 30.3252 124.875 30.4755C124.525 30.6258 124.145 30.706 123.746 30.706V30.696ZM123.746 29.233C124.029 29.233 124.282 29.1628 124.506 29.0225C124.729 28.8823 124.905 28.6919 125.031 28.4614C125.158 28.2309 125.226 27.9904 125.226 27.7299C125.226 27.4493 125.158 27.1988 125.031 26.9683C124.905 26.7379 124.729 26.5575 124.506 26.4172C124.282 26.2769 124.038 26.2168 123.766 26.2168C123.493 26.2168 123.231 26.2869 123.007 26.4272C122.783 26.5675 122.617 26.7579 122.491 26.9884C122.364 27.2188 122.306 27.4593 122.306 27.7299C122.306 28.0105 122.374 28.271 122.51 28.4915C122.647 28.7119 122.822 28.8923 123.046 29.0225C123.269 29.1528 123.503 29.223 123.756 29.223L123.746 29.233Z" fill="white" stroke="white" stroke-width="0.1" stroke-linejoin="round"/>
<path d="M130.261 30.6202C129.784 30.6202 129.356 30.51 128.967 30.2795C128.578 30.0491 128.237 29.7384 127.964 29.3376C127.682 28.9368 127.468 28.4758 127.312 27.9447C127.157 27.4137 127.088 26.8525 127.088 26.2513C127.088 25.65 127.166 25.0889 127.312 24.5578C127.468 24.0267 127.682 23.5658 127.964 23.165C128.247 22.7641 128.578 22.4535 128.967 22.223C129.356 21.9926 129.784 21.8823 130.261 21.8823C130.738 21.8823 131.167 21.9926 131.556 22.223C131.945 22.4535 132.276 22.7641 132.558 23.165C132.841 23.5658 133.055 24.0267 133.211 24.5578C133.366 25.0889 133.444 25.65 133.444 26.2513C133.444 26.8525 133.366 27.4137 133.211 27.9447C133.055 28.4758 132.841 28.9368 132.558 29.3376C132.276 29.7384 131.945 30.0491 131.556 30.2795C131.167 30.51 130.738 30.6202 130.261 30.6202ZM130.261 29.1572C130.68 29.1572 131.021 29.0169 131.293 28.7464C131.566 28.4758 131.77 28.1151 131.897 27.6742C132.033 27.2333 132.091 26.7623 132.091 26.2513C132.091 25.7202 132.023 25.2292 131.877 24.7983C131.731 24.3674 131.527 24.0067 131.254 23.7461C130.982 23.4856 130.641 23.3553 130.242 23.3553C129.93 23.3553 129.658 23.4355 129.424 23.5958C129.191 23.7562 128.996 23.9666 128.85 24.2472C128.694 24.5177 128.587 24.8284 128.509 25.1791C128.432 25.5298 128.402 25.8905 128.402 26.2613C128.402 26.7623 128.47 27.2333 128.607 27.6742C128.743 28.1151 128.947 28.4758 129.22 28.7464C129.492 29.0169 129.843 29.1572 130.252 29.1572H130.261Z" fill="white" stroke="white" stroke-width="0.1" stroke-linejoin="round"/>
<circle cx="0.833165" cy="0.833165" r="0.833165" transform="matrix(1 0 0 -1 133.706 22.6665)" stroke="white"/>
<path d="M181 176L189 184L181 192" stroke="#3A3736" stroke-width="1.4" stroke-linecap="round" stroke-linejoin="round"/>
<path d="M147 192L139 184L147 176" stroke="#3A3736" stroke-width="1.4" stroke-linecap="round" stroke-linejoin="round"/>
<path d="M28 39C34.0751 39 39 34.0751 39 28C39 21.9249 34.0751 17 28 17C21.9249 17 17 21.9249 17 28C17 34.0751 21.9249 39 28 39Z" stroke="white" stroke-width="1.4" stroke-linecap="round" stroke-linejoin="round"/>
<path d="M26 24L32 28L26 32V24Z" stroke="white" stroke-width="1.4" stroke-linecap="round" stroke-linejoin="round"/>
<path d="M76 39C82.0751 39 87 34.0751 87 28C87 21.9249 82.0751 17 76 17C69.9249 17 65 21.9249 65 28C65 34.0751 69.9249 39 76 39Z" stroke="#3A3736" stroke-width="1.4" stroke-linecap="round" stroke-linejoin="round"/>
<path d="M74 24L80 28L74 32V24Z" stroke="#3A3736" stroke-width="1.4" stroke-linecap="round" stroke-linejoin="round"/>
<path d="M20 228C24.4183 228 28 224.418 28 220C28 215.582 24.4183 212 20 212C15.5817 212 12 215.582 12 220C12 224.418 15.5817 228 20 228Z" stroke="#3A3736" stroke-width="1.2" stroke-linecap="round" stroke-linejoin="round"/>
<path d="M20 224V220" stroke="#3A3736" stroke-width="1.4" stroke-linecap="round" stroke-linejoin="round"/>
<path d="M20 217H20.01" stroke="#3A3736" stroke-width="1.6" stroke-linecap="round" stroke-linejoin="round"/>
<path d="M218.401 189.599L221.198 189.599M218.401 189.599V186.801M218.401 189.599L229.599 178.4M229.599 178.4L226.802 178.396M229.599 178.4L229.599 181.198" stroke="#3A3736" stroke-width="1.2" stroke-linecap="round" stroke-linejoin="round"/>
<path d="M229.599 189.599L226.802 189.599M229.599 189.599L229.604 186.802M229.599 189.599L218.401 178.401M218.401 178.401L221.198 178.401M218.401 178.401L218.401 181.198" stroke="#3A3736" stroke-width="1.2" stroke-linecap="round" stroke-linejoin="round"/>
<path d="M304 178V190" stroke="#3A3736" stroke-width="1.4" stroke-linecap="round" stroke-linejoin="round"/>
<path d="M298 184H310" stroke="#3A3736" stroke-width="1.4" stroke-linecap="round" stroke-linejoin="round"/>
<path d="M338 184H350" stroke="#3A3736" stroke-width="1.4" stroke-linecap="round" stroke-linejoin="round"/>
<path d="M183.786 27.1765C185.799 28.1991 187 29.4901 187 30.8935C187 34.2117 180.284 36 172 36C163.716 36 157 34.2117 157 30.8935C157 29.4901 158.201 28.1991 160.214 27.1765" stroke="#3A3736" stroke-width="1.4" stroke-linecap="round"/>
<path d="M165.392 30.6202C164.895 30.6202 164.448 30.5 164.058 30.2595C163.659 30.019 163.348 29.6983 163.114 29.2875C162.88 28.8767 162.764 28.4257 162.764 27.9347H164.175C164.175 28.1552 164.224 28.3656 164.331 28.546C164.438 28.7263 164.574 28.8767 164.759 28.9869C164.944 29.0971 165.148 29.1572 165.382 29.1572C165.596 29.1572 165.8 29.1071 165.985 28.9869C166.17 28.8767 166.316 28.7263 166.433 28.546C166.55 28.3656 166.599 28.1552 166.599 27.9347C166.599 27.6441 166.521 27.3936 166.375 27.2032C166.219 27.0128 166.015 26.8625 165.742 26.7623C165.47 26.6621 165.158 26.622 164.798 26.622V25.4897C165.285 25.4897 165.664 25.3995 165.946 25.2091C166.229 25.0187 166.375 24.7482 166.375 24.3774C166.375 24.187 166.326 24.0167 166.238 23.8564C166.141 23.696 166.024 23.5758 165.869 23.4756C165.713 23.3854 165.547 23.3353 165.362 23.3353C165.178 23.3353 164.993 23.3854 164.817 23.4756C164.642 23.5658 164.496 23.696 164.389 23.8564C164.282 24.0167 164.224 24.187 164.224 24.3774H162.793C162.793 24.0367 162.861 23.7061 162.997 23.4054C163.134 23.1048 163.318 22.8343 163.562 22.6138C163.805 22.3934 164.068 22.203 164.379 22.0727C164.691 21.9424 165.002 21.8823 165.343 21.8823C165.781 21.8823 166.19 21.9926 166.56 22.223C166.929 22.4435 167.231 22.7441 167.455 23.1249C167.679 23.5057 167.796 23.9265 167.796 24.3875C167.796 24.7081 167.718 25.0288 167.572 25.3394C167.426 25.65 167.212 25.8705 166.939 26.0008C167.173 26.0909 167.377 26.2312 167.533 26.4417C167.689 26.6521 167.815 26.8826 167.903 27.1431C167.99 27.4036 168.029 27.6642 168.029 27.9347C168.029 28.4257 167.913 28.8767 167.669 29.2875C167.426 29.6983 167.105 30.019 166.706 30.2595C166.307 30.5 165.869 30.6202 165.392 30.6202Z" fill="#3A3736" stroke="#3A3736" stroke-width="0.1" stroke-linejoin="round"/>
<path d="M171.746 30.696C171.221 30.696 170.744 30.5657 170.306 30.2952C169.868 30.0246 169.517 29.6639 169.264 29.223C169.002 28.772 168.875 28.281 168.875 27.7299C168.875 27.4493 168.904 27.1888 168.972 26.9483C169.041 26.7078 169.138 26.4673 169.274 26.2168L171.561 22.1284H173.216L171.678 24.864C171.99 24.844 172.301 24.864 172.593 24.9442C172.885 25.0244 173.158 25.1546 173.401 25.325C173.654 25.4953 173.868 25.7057 174.053 25.9462C174.238 26.1867 174.384 26.4673 174.491 26.7679C174.598 27.0685 174.647 27.3892 174.647 27.7299C174.647 28.1407 174.569 28.5215 174.423 28.8823C174.277 29.243 174.063 29.5536 173.8 29.8342C173.537 30.1148 173.226 30.3252 172.875 30.4755C172.525 30.6258 172.145 30.706 171.746 30.706V30.696ZM171.746 29.233C172.029 29.233 172.282 29.1628 172.506 29.0225C172.729 28.8823 172.905 28.6919 173.031 28.4614C173.158 28.2309 173.226 27.9904 173.226 27.7299C173.226 27.4493 173.158 27.1988 173.031 26.9683C172.905 26.7379 172.729 26.5575 172.506 26.4172C172.282 26.2769 172.038 26.2168 171.766 26.2168C171.493 26.2168 171.231 26.2869 171.007 26.4272C170.783 26.5675 170.617 26.7579 170.491 26.9884C170.364 27.2188 170.306 27.4593 170.306 27.7299C170.306 28.0105 170.374 28.271 170.51 28.4915C170.647 28.7119 170.822 28.8923 171.046 29.0225C171.269 29.1528 171.503 29.223 171.756 29.223L171.746 29.233Z" fill="#3A3736" stroke="#3A3736" stroke-width="0.1" stroke-linejoin="round"/>
<path d="M178.261 30.6202C177.784 30.6202 177.356 30.51 176.967 30.2795C176.578 30.0491 176.237 29.7384 175.964 29.3376C175.682 28.9368 175.468 28.4758 175.312 27.9447C175.157 27.4137 175.088 26.8525 175.088 26.2513C175.088 25.65 175.166 25.0889 175.312 24.5578C175.468 24.0267 175.682 23.5658 175.964 23.165C176.247 22.7641 176.578 22.4535 176.967 22.223C177.356 21.9926 177.784 21.8823 178.261 21.8823C178.738 21.8823 179.167 21.9926 179.556 22.223C179.945 22.4535 180.276 22.7641 180.558 23.165C180.841 23.5658 181.055 24.0267 181.211 24.5578C181.366 25.0889 181.444 25.65 181.444 26.2513C181.444 26.8525 181.366 27.4137 181.211 27.9447C181.055 28.4758 180.841 28.9368 180.558 29.3376C180.276 29.7384 179.945 30.0491 179.556 30.2795C179.167 30.51 178.738 30.6202 178.261 30.6202ZM178.261 29.1572C178.68 29.1572 179.021 29.0169 179.293 28.7464C179.566 28.4758 179.77 28.1151 179.897 27.6742C180.033 27.2333 180.091 26.7623 180.091 26.2513C180.091 25.7202 180.023 25.2292 179.877 24.7983C179.731 24.3674 179.527 24.0067 179.254 23.7461C178.982 23.4856 178.641 23.3553 178.242 23.3553C177.93 23.3553 177.658 23.4355 177.424 23.5958C177.191 23.7562 176.996 23.9666 176.85 24.2472C176.694 24.5177 176.587 24.8284 176.509 25.1791C176.432 25.5298 176.402 25.8905 176.402 26.2613C176.402 26.7623 176.47 27.2333 176.607 27.6742C176.743 28.1151 176.947 28.4758 177.22 28.7464C177.492 29.0169 177.843 29.1572 178.252 29.1572H178.261Z" fill="#3A3736" stroke="#3A3736" stroke-width="0.1" stroke-linejoin="round"/>
<circle cx="0.833165" cy="0.833165" r="0.833165" transform="matrix(1 0 0 -1 181.706 22.6665)" stroke="#3A3736"/>
<path d="M206 17L206 45M206 17H234M206 17H204V14H236V17H234M206 45H234M206 45H204M234 45V17M234 45H236" stroke="#3A3736" stroke-linecap="round" stroke-linejoin="round"/>
<path d="M215 45V38H220M225 45V38H220M220 38V45" stroke="#3A3736" stroke-linecap="round" stroke-linejoin="round"/>
<path d="M206 14V11H210V14" stroke="#3A3736" stroke-linecap="round" stroke-linejoin="round"/>
<path d="M214 26H210V23C210 23 210 21 212 21C214 21 214 23 214 23V26Z" stroke="#3A3736" stroke-linecap="round" stroke-linejoin="round"/>
<path d="M214 34H210V31C210 31 210 29 212 29C214 29 214 31 214 31V34Z" stroke="#3A3736" stroke-linecap="round" stroke-linejoin="round"/>
<path d="M222 26H218V23C218 23 218 21 220 21C222 21 222 23 222 23V26Z" stroke="#3A3736" stroke-linecap="round" stroke-linejoin="round"/>
<path d="M222 34H218V31C218 31 218 29 220 29C222 29 222 31 222 31V34Z" stroke="#3A3736" stroke-linecap="round" stroke-linejoin="round"/>
<path d="M230 26H226V23C226 23 226 21 228 21C230 21 230 23 230 23V26Z" stroke="#3A3736" stroke-linecap="round" stroke-linejoin="round"/>
<path d="M230 34H226V31C226 31 226 29 228 29C230 29 230 31 230 31V34Z" stroke="#3A3736" stroke-linecap="round" stroke-linejoin="round"/>
<path d="M252 43V13C252 12.4477 252.448 12 253 12H283C283.552 12 284 12.4477 284 13V43C284 43.5523 283.552 44 283 44H253C252.448 44 252 43.5523 252 43Z" stroke="#3A3736" stroke-linecap="round" stroke-linejoin="round"/>
<path d="M276 44V35" stroke="#3A3736" stroke-linecap="round" stroke-linejoin="round"/>
<path d="M264 21V12" stroke="#3A3736" stroke-linecap="round" stroke-linejoin="round"/>
<path d="M259 44V38" stroke="#3A3736" stroke-linecap="round" stroke-linejoin="round"/>
<path d="M284 29H270M267 29H270M270 29V25" stroke="#3A3736" stroke-linecap="round" stroke-linejoin="round"/>
<path d="M252 29L259 29M262 29L259 29M259 29L259 33" stroke="#3A3736" stroke-linecap="round" stroke-linejoin="round"/>
<path d="M300 11V45H304V15H328V45H332V11H300Z" stroke="#3A3736" stroke-linecap="round" stroke-linejoin="round"/>
<path d="M304 15L322 19V43L304 45" stroke="#3A3736" stroke-linecap="round" stroke-linejoin="round"/>
<path d="M317 33V29H319V33H317Z" stroke="#3A3736" stroke-width="0.8" stroke-linecap="round" stroke-linejoin="round"/>
<path d="M352.706 27.0588V14.6176C352.706 13.1719 353.878 12 355.324 12V12C356.315 12 357.221 12.5602 357.665 13.4469L358.353 14.8235" stroke="#3A3736" stroke-linecap="round" stroke-linejoin="round"/>
<path d="M357.567 17.9375L356.936 16.7403C356.679 16.2516 356.867 15.6469 357.355 15.3896L359.333 14.3482C359.822 14.0909 360.427 14.2785 360.684 14.7672L361.314 15.9643L357.567 17.9375Z" stroke="#3A3736" stroke-linecap="round" stroke-linejoin="round"/>
<path d="M370.176 30.9121H349.882V34.5459C349.882 37.8596 352.569 40.5459 355.882 40.5459H372.118C375.431 40.5459 378.118 37.8596 378.118 34.5459V30.9121" stroke="#3A3736" stroke-linecap="round" stroke-linejoin="round"/>
<path d="M349.778 30.9121V30.9121C348.796 30.9121 348 30.1162 348 29.1343V28.9853C348 27.9212 348.863 27.0586 349.927 27.0586H378.073C379.137 27.0586 380 27.9212 380 28.9853V29.1343C380 30.1162 379.204 30.9121 378.222 30.9121V30.9121" stroke="#3A3736" stroke-linecap="round" stroke-linejoin="round"/>
<path d="M370.588 27.0586V34.7656H375.294V27.0586" stroke="#3A3736" stroke-linecap="round" stroke-linejoin="round"/>
<path d="M354.667 40.6253L354.24 41.2159C353.787 41.8442 354.044 42.7804 354.754 43.0884V43.0884C355.229 43.2942 355.763 43.146 356.065 42.7251L357.572 40.6253" stroke="#3A3736" stroke-linecap="round" stroke-linejoin="round"/>
<path d="M373.127 40.6253L373.554 41.2159C374.007 41.8442 373.75 42.7804 373.04 43.0884V43.0884C372.565 43.2942 372.03 43.146 371.728 42.7251L370.222 40.6253" stroke="#3A3736" stroke-linecap="round" stroke-linejoin="round"/>
<path d="M180 228C184.418 228 188 224.418 188 220C188 215.582 184.418 212 180 212C175.582 212 172 215.582 172 220C172 224.418 175.582 228 180 228Z" stroke="#3A3736" stroke-width="1.2" stroke-linecap="round" stroke-linejoin="round"/>
<path d="M178 217L183 220L178 223V217Z" stroke="#3A3736" stroke-width="1.2" stroke-linecap="round" stroke-linejoin="round"/>
<path d="M207.665 225.692C207.35 225.692 207.067 225.624 206.82 225.488C206.567 225.352 206.37 225.17 206.222 224.938C206.074 224.706 206 224.451 206 224.173H206.894C206.894 224.298 206.925 224.417 206.993 224.519C207.061 224.621 207.147 224.706 207.264 224.768C207.381 224.83 207.511 224.864 207.659 224.864C207.794 224.864 207.924 224.836 208.041 224.768C208.158 224.706 208.251 224.621 208.325 224.519C208.399 224.417 208.43 224.298 208.43 224.173C208.43 224.009 208.38 223.867 208.288 223.759C208.189 223.652 208.06 223.567 207.887 223.51C207.714 223.453 207.517 223.431 207.289 223.431V222.79C207.597 222.79 207.838 222.739 208.016 222.631C208.195 222.524 208.288 222.371 208.288 222.161C208.288 222.053 208.257 221.957 208.201 221.866C208.14 221.776 208.066 221.708 207.967 221.651C207.868 221.6 207.764 221.572 207.646 221.572C207.529 221.572 207.412 221.6 207.301 221.651C207.19 221.702 207.098 221.776 207.03 221.866C206.962 221.957 206.925 222.053 206.925 222.161H206.018C206.018 221.968 206.062 221.781 206.148 221.611C206.234 221.441 206.351 221.288 206.506 221.164C206.66 221.039 206.826 220.931 207.024 220.858C207.221 220.784 207.418 220.75 207.634 220.75C207.912 220.75 208.171 220.812 208.405 220.943C208.639 221.067 208.83 221.237 208.972 221.453C209.114 221.668 209.188 221.906 209.188 222.167C209.188 222.348 209.139 222.529 209.046 222.705C208.954 222.881 208.818 223.006 208.645 223.079C208.793 223.13 208.923 223.21 209.021 223.329C209.12 223.448 209.2 223.578 209.256 223.725C209.311 223.873 209.336 224.02 209.336 224.173C209.336 224.451 209.262 224.706 209.108 224.938C208.954 225.17 208.75 225.352 208.497 225.488C208.245 225.624 207.967 225.692 207.665 225.692Z" fill="#3A3736" stroke="#3A3736" stroke-width="0.1" stroke-linejoin="round"/>
<path d="M211.724 225.767C211.391 225.767 211.089 225.694 210.811 225.541C210.534 225.388 210.312 225.184 210.151 224.934C209.985 224.679 209.905 224.402 209.905 224.09C209.905 223.931 209.923 223.784 209.966 223.648C210.01 223.512 210.071 223.376 210.158 223.234L211.607 220.922H212.655L211.681 222.469C211.878 222.458 212.075 222.469 212.26 222.514C212.445 222.56 212.618 222.633 212.772 222.73C212.932 222.826 213.068 222.945 213.185 223.081C213.302 223.217 213.395 223.376 213.463 223.546C213.531 223.716 213.561 223.897 213.561 224.09C213.561 224.322 213.512 224.538 213.42 224.742C213.327 224.946 213.191 225.121 213.025 225.28C212.858 225.439 212.661 225.558 212.439 225.643C212.217 225.728 211.977 225.773 211.724 225.773V225.767ZM211.724 224.94C211.903 224.94 212.063 224.9 212.205 224.821C212.347 224.742 212.458 224.634 212.538 224.504C212.618 224.373 212.661 224.237 212.661 224.09C212.661 223.931 212.618 223.789 212.538 223.659C212.458 223.529 212.347 223.427 212.205 223.347C212.063 223.268 211.909 223.234 211.736 223.234C211.564 223.234 211.397 223.274 211.255 223.353C211.113 223.432 211.009 223.54 210.928 223.67C210.848 223.801 210.811 223.937 210.811 224.09C210.811 224.248 210.854 224.396 210.941 224.521C211.027 224.645 211.138 224.747 211.28 224.821C211.422 224.895 211.57 224.934 211.73 224.934L211.724 224.94Z" fill="#3A3736" stroke="#3A3736" stroke-width="0.1" stroke-linejoin="round"/>
<path d="M215.859 225.692C215.557 225.692 215.286 225.629 215.039 225.499C214.793 225.369 214.577 225.193 214.404 224.966C214.225 224.74 214.09 224.479 213.991 224.179C213.892 223.878 213.849 223.561 213.849 223.221C213.849 222.881 213.898 222.563 213.991 222.263C214.09 221.963 214.225 221.702 214.404 221.475C214.583 221.249 214.793 221.073 215.039 220.943C215.286 220.812 215.557 220.75 215.859 220.75C216.161 220.75 216.433 220.812 216.679 220.943C216.926 221.073 217.136 221.249 217.315 221.475C217.493 221.702 217.629 221.963 217.728 222.263C217.826 222.563 217.876 222.881 217.876 223.221C217.876 223.561 217.826 223.878 217.728 224.179C217.629 224.479 217.493 224.74 217.315 224.966C217.136 225.193 216.926 225.369 216.679 225.499C216.433 225.629 216.161 225.692 215.859 225.692ZM215.859 224.864C216.124 224.864 216.34 224.785 216.513 224.632C216.686 224.479 216.815 224.275 216.895 224.026C216.982 223.776 217.019 223.51 217.019 223.221C217.019 222.921 216.975 222.643 216.883 222.399C216.79 222.155 216.661 221.951 216.488 221.804C216.316 221.657 216.1 221.583 215.847 221.583C215.65 221.583 215.477 221.628 215.329 221.719C215.181 221.81 215.058 221.929 214.965 222.087C214.867 222.24 214.799 222.416 214.749 222.614C214.7 222.813 214.682 223.017 214.682 223.227C214.682 223.51 214.725 223.776 214.811 224.026C214.897 224.275 215.027 224.479 215.2 224.632C215.372 224.785 215.594 224.864 215.853 224.864H215.859Z" fill="#3A3736" stroke="#3A3736" stroke-width="0.1" stroke-linejoin="round"/>
<ellipse cx="0.659795" cy="0.589001" rx="0.659795" ry="0.589001" transform="matrix(1 0 0 -1 217.87 221.178)" stroke="#3A3736" stroke-width="0.4"/>
<path d="M201.5 225.382V215.5C201.5 215.5 205.7 218.368 212 218.368C218.3 218.368 222.5 215.5 222.5 215.5V225.382C222.5 225.382 218.3 228.25 212 228.25C205.7 228.25 201.5 225.382 201.5 225.382Z" stroke="#3A3736" stroke-linecap="round" stroke-linejoin="round"/>
<path d="M201.5 215.5C201.5 215.5 202.9 214.75 205 214C207.1 213.25 209.9 213 209.9 213V217.75" stroke="#3A3736" stroke-linecap="round" stroke-linejoin="round"/>
<path d="M222.5 215.5C222.5 215.5 221.1 214.75 219 214C216.9 213.25 214.1 213 214.1 213V217.75" stroke="#3A3736" stroke-linecap="round" stroke-linejoin="round"/>
<path d="M251 213L237 227" stroke="#3A3736" stroke-width="1.4" stroke-linecap="round" stroke-linejoin="round"/>
<path d="M237 213L251 227" stroke="#3A3736" stroke-width="1.4" stroke-linecap="round" stroke-linejoin="round"/>
<path d="M106.909 285.667V281.13" stroke="#3A3736" stroke-width="1.2" stroke-linecap="round" stroke-linejoin="round"/>
<path d="M106.909 278.537V274" stroke="#3A3736" stroke-width="1.2" stroke-linecap="round" stroke-linejoin="round"/>
<path d="M111.909 285.667V279.833" stroke="#3A3736" stroke-width="1.2" stroke-linecap="round" stroke-linejoin="round"/>
<path d="M111.909 277.241V274" stroke="#3A3736" stroke-width="1.2" stroke-linecap="round" stroke-linejoin="round"/>
<path d="M116.909 285.667V282.426" stroke="#3A3736" stroke-width="1.2" stroke-linecap="round" stroke-linejoin="round"/>
<path d="M116.909 279.834V274" stroke="#3A3736" stroke-width="1.2" stroke-linecap="round" stroke-linejoin="round"/>
<path d="M105 281.13H108.818" stroke="#3A3736" stroke-width="1.2" stroke-linecap="round" stroke-linejoin="round"/>
<path d="M110 277.241H113.818" stroke="#3A3736" stroke-width="1.2" stroke-linecap="round" stroke-linejoin="round"/>
<path d="M115 282.426H118.818" stroke="#3A3736" stroke-width="1.2" stroke-linecap="round" stroke-linejoin="round"/>
<path d="M82 274V277.75H85.75" stroke="#3A3736" stroke-width="1.2" stroke-linecap="round" stroke-linejoin="round"/>
<path d="M82.6238 277.333C83.6056 275.358 85.6444 274 88.0002 274C91.3139 274 94.0002 276.686 94.0002 280C94.0002 283.314 91.3139 286 88.0002 286C85.3791 286 83.1506 284.319 82.3335 281.977" stroke="#3A3736" stroke-width="1.2" stroke-linecap="round"/>
<path d="M69 278.909C69 282.727 64 286 64 286C64 286 59 282.727 59 278.909C59 277.607 59.5268 276.358 60.4645 275.438C61.4021 274.517 62.6739 274 64 274C65.3261 274 66.5979 274.517 67.5355 275.438C68.4732 276.358 69 277.607 69 278.909Z" stroke="#3A3736" stroke-width="1.1" stroke-linecap="round" stroke-linejoin="round"/>
<path d="M64 281C65.1046 281 66 280.105 66 279C66 277.895 65.1046 277 64 277C62.8954 277 62 277.895 62 279C62 280.105 62.8954 281 64 281Z" stroke="#3A3736" stroke-width="1.1" stroke-linecap="round" stroke-linejoin="round"/>
<path d="M16 275V285" stroke="#3A3736" stroke-width="1.2" stroke-linecap="round" stroke-linejoin="round"/>
<path d="M11 280H21" stroke="#3A3736" stroke-width="1.2" stroke-linecap="round" stroke-linejoin="round"/>
<path d="M40 275V285" stroke="white" stroke-width="1.2" stroke-linecap="round" stroke-linejoin="round"/>
<path d="M35 280H45" stroke="white" stroke-width="1.2" stroke-linecap="round" stroke-linejoin="round"/>
<path d="M395 61C395 60.4477 395.448 60 396 60H428C428.552 60 429 60.4477 429 61V84.3968C429 84.9491 428.552 85.3968 428 85.3968H402.397C402.142 85.3968 401.897 85.4943 401.711 85.6694L396.686 90.4094C396.048 91.0111 395 90.5589 395 89.682V85.3968V61Z" stroke="#7B726F"/>
<path d="M407 68L403 72" stroke="#7B726F" stroke-linecap="round" stroke-linejoin="round"/>
<path d="M403 68L407 72" stroke="#7B726F" stroke-linecap="round" stroke-linejoin="round"/>
<path d="M421 68L417 72" stroke="#7B726F" stroke-linecap="round" stroke-linejoin="round"/>
<path d="M417 68L421 72" stroke="#7B726F" stroke-linecap="round" stroke-linejoin="round"/>
<path d="M407 79C407 79 408.875 77 412 77C415.125 77 417 79 417 79" stroke="#7B726F" stroke-linecap="round" stroke-linejoin="round"/>
<path d="M281.833 212.667H270.167C269.246 212.667 268.5 213.413 268.5 214.333V226C268.5 226.92 269.246 227.667 270.167 227.667H281.833C282.754 227.667 283.5 226.92 283.5 226V214.333C283.5 213.413 282.754 212.667 281.833 212.667Z" stroke="#7B726F" stroke-linecap="round" stroke-linejoin="round"/>
<path d="M279.333 211V214.333" stroke="#7B726F" stroke-linecap="round" stroke-linejoin="round"/>
<path d="M272.667 211V214.333" stroke="#7B726F" stroke-linecap="round" stroke-linejoin="round"/>
<path d="M268.5 217.667H283.5" stroke="#7B726F" stroke-linecap="round" stroke-linejoin="round"/>
<path d="M15 90V64H41V90H15Z" stroke="#3A3736" stroke-linecap="round" stroke-linejoin="round"/>
<path d="M15 68H41" stroke="#3A3736" stroke-linecap="round" stroke-linejoin="round"/>
<path d="M24.5 84H31.5" stroke="#3A3736" stroke-linecap="round" stroke-linejoin="round"/>
<path d="M24.5 86H31.5" stroke="#3A3736" stroke-linecap="round" stroke-linejoin="round"/>
<path d="M17 90V91C17 92.1046 17.8954 93 19 93V93C20.1046 93 21 92.1046 21 91V90" stroke="#3A3736" stroke-linecap="round" stroke-linejoin="round"/>
<path d="M35 90V91C35 92.1046 35.8954 93 37 93V93C38.1046 93 39 92.1046 39 91V90" stroke="#3A3736" stroke-linecap="round" stroke-linejoin="round"/>
<path d="M15 80H40.5" stroke="#3A3736" stroke-linecap="round" stroke-linejoin="round"/>
<path d="M28 68L28 80" stroke="#3A3736" stroke-linecap="round" stroke-linejoin="round"/>
<path d="M15 69L12 72V77" stroke="#3A3736" stroke-linecap="round" stroke-linejoin="round"/>
<path d="M41 69L44 72V77" stroke="#3A3736" stroke-linecap="round" stroke-linejoin="round"/>
<circle cx="20.5" cy="61.5" r="2" stroke="#3A3736"/>
<circle cx="22" cy="85" r="2.5" stroke="#3A3736"/>
<circle cx="35.5" cy="61.5" r="2" stroke="#3A3736"/>
<circle cx="34" cy="85" r="2.5" stroke="#3A3736"/>
<path d="M15 138V112H41V138H15Z" stroke="#F47630" stroke-linecap="round" stroke-linejoin="round"/>
<path d="M15 116H41" stroke="#F47630" stroke-linecap="round" stroke-linejoin="round"/>
<path d="M24.5 132H31.5" stroke="#F47630" stroke-linecap="round" stroke-linejoin="round"/>
<path d="M24.5 134H31.5" stroke="#F47630" stroke-linecap="round" stroke-linejoin="round"/>
<path d="M17 138V139C17 140.105 17.8954 141 19 141V141C20.1046 141 21 140.105 21 139V138" stroke="#F47630" stroke-linecap="round" stroke-linejoin="round"/>
<path d="M35 138V139C35 140.105 35.8954 141 37 141V141C38.1046 141 39 140.105 39 139V138" stroke="#F47630" stroke-linecap="round" stroke-linejoin="round"/>
<path d="M15 128H40.5" stroke="#F47630" stroke-linecap="round" stroke-linejoin="round"/>
<path d="M28 116L28 128" stroke="#F47630" stroke-linecap="round" stroke-linejoin="round"/>
<path d="M15 117L12 120V125" stroke="#F47630" stroke-linecap="round" stroke-linejoin="round"/>
<path d="M41 117L44 120V125" stroke="#F47630" stroke-linecap="round" stroke-linejoin="round"/>
<circle cx="20.5" cy="109.5" r="2" stroke="#F47630"/>
<circle cx="22" cy="133" r="2.5" stroke="#F47630"/>
<circle cx="35.5" cy="109.5" r="2" stroke="#F47630"/>
<circle cx="34" cy="133" r="2.5" stroke="#F47630"/>
<path d="M76 85V65L73.6533 64.3742C70.2767 63.4738 66.7233 63.4738 63.3467 64.3742L61 65V85L63.3467 84.3742C66.7233 83.4738 70.2767 83.4738 73.6533 84.3742L76 85Z" stroke="#3A3736" stroke-linecap="round" stroke-linejoin="round"/>
<path d="M91 85V65L88.6533 64.3742C85.2767 63.4738 81.7233 63.4738 78.3467 64.3742L76 65V85L78.3467 84.3742C81.7233 83.4738 85.2767 83.4738 88.6533 84.3742L91 85Z" stroke="#3A3736" stroke-linecap="round" stroke-linejoin="round"/>
<path d="M61 66L59 67V87.5L62.4251 86.4926C65.7512 85.5144 69.2744 85.4175 72.6492 86.2116L76 87V85" stroke="#3A3736" stroke-linecap="round" stroke-linejoin="round"/>
<path d="M91 66L93 67V87.5L89.5749 86.4926C86.2488 85.5144 82.7256 85.4175 79.3508 86.2116L76 87V85" stroke="#3A3736" stroke-linecap="round" stroke-linejoin="round"/>
<path d="M76 87V87C76 88.1046 75.1046 89 74 89H73.5" stroke="#3A3736" stroke-linecap="round" stroke-linejoin="round"/>
<path d="M64 69V69C66.8649 67.7267 70.1351 67.7267 73 69V69" stroke="#3A3736" stroke-linecap="round" stroke-linejoin="round"/>
<path d="M79 69V69C81.8649 67.7267 85.1351 67.7267 88 69V69" stroke="#3A3736" stroke-linecap="round" stroke-linejoin="round"/>
<path d="M64 74V74C66.8649 72.7267 70.1351 72.7267 73 74V74" stroke="#3A3736" stroke-linecap="round" stroke-linejoin="round"/>
<path d="M79 74V74C81.8649 72.7267 85.1351 72.7267 88 74V74" stroke="#3A3736" stroke-linecap="round" stroke-linejoin="round"/>
<path d="M64 79V79C66.8649 77.7267 70.1351 77.7267 73 79V79" stroke="#3A3736" stroke-linecap="round" stroke-linejoin="round"/>
<path d="M79 79V79C81.8649 77.7267 85.1351 77.7267 88 79V79" stroke="#3A3736" stroke-linecap="round" stroke-linejoin="round"/>
<path d="M76 133V113L73.6533 112.374C70.2767 111.474 66.7233 111.474 63.3467 112.374L61 113V133L63.3467 132.374C66.7233 131.474 70.2767 131.474 73.6533 132.374L76 133Z" stroke="#F47630" stroke-linecap="round" stroke-linejoin="round"/>
<path d="M91 133V113L88.6533 112.374C85.2767 111.474 81.7233 111.474 78.3467 112.374L76 113V133L78.3467 132.374C81.7233 131.474 85.2767 131.474 88.6533 132.374L91 133Z" stroke="#F47630" stroke-linecap="round" stroke-linejoin="round"/>
<path d="M61 114L59 115V135.5L62.4251 134.493C65.7512 133.514 69.2744 133.418 72.6492 134.212L76 135V133" stroke="#F47630" stroke-linecap="round" stroke-linejoin="round"/>
<path d="M91 114L93 115V135.5L89.5749 134.493C86.2488 133.514 82.7256 133.418 79.3508 134.212L76 135V133" stroke="#F47630" stroke-linecap="round" stroke-linejoin="round"/>
<path d="M76 135V135C76 136.105 75.1046 137 74 137H73.5" stroke="#F47630" stroke-linecap="round" stroke-linejoin="round"/>
<path d="M64 117V117C66.8649 115.727 70.1351 115.727 73 117V117" stroke="#F47630" stroke-linecap="round" stroke-linejoin="round"/>
<path d="M79 117V117C81.8649 115.727 85.1351 115.727 88 117V117" stroke="#F47630" stroke-linecap="round" stroke-linejoin="round"/>
<path d="M64 122V122C66.8649 120.727 70.1351 120.727 73 122V122" stroke="#F47630" stroke-linecap="round" stroke-linejoin="round"/>
<path d="M79 122V122C81.8649 120.727 85.1351 120.727 88 122V122" stroke="#F47630" stroke-linecap="round" stroke-linejoin="round"/>
<path d="M64 127V127C66.8649 125.727 70.1351 125.727 73 127V127" stroke="#F47630" stroke-linecap="round" stroke-linejoin="round"/>
<path d="M79 127V127C81.8649 125.727 85.1351 125.727 88 127V127" stroke="#F47630" stroke-linecap="round" stroke-linejoin="round"/>
<path d="M135.5 61H112.5V64H135.5V61Z" stroke="#3A3736" stroke-linecap="round" stroke-linejoin="round"/>
<path d="M112.5 64L107.5 72.5V72.5C109.403 75.3543 113.597 75.3543 115.5 72.5V72.5V72.5C117.576 75.4303 121.924 75.4303 124 72.5V72.5V72.5C125.903 75.3543 130.097 75.3543 132 72.5V72.5V72.5C134.076 75.4303 138.424 75.4303 140.5 72.5V72.5L135.5 64" stroke="#3A3736" stroke-linecap="round" stroke-linejoin="round"/>
<path d="M124 64V70" stroke="#3A3736" stroke-linecap="round" stroke-linejoin="round"/>
<path d="M129 64L132 70" stroke="#3A3736" stroke-linecap="round" stroke-linejoin="round"/>
<path d="M118.5 64L115.5 70" stroke="#3A3736" stroke-linecap="round" stroke-linejoin="round"/>
<path d="M110.5 74.5V91H137.5V74.5" stroke="#3A3736" stroke-linecap="round" stroke-linejoin="round"/>
<path d="M116.5 91V79H131.5V91" stroke="#3A3736" stroke-linecap="round" stroke-linejoin="round"/>
<path d="M135.5 109H112.5V112H135.5V109Z" stroke="#F47630" stroke-linecap="round" stroke-linejoin="round"/>
<path d="M112.5 112L107.5 120.5V120.5C109.403 123.354 113.597 123.354 115.5 120.5V120.5V120.5C117.576 123.43 121.924 123.43 124 120.5V120.5V120.5C125.903 123.354 130.097 123.354 132 120.5V120.5V120.5C134.076 123.43 138.424 123.43 140.5 120.5V120.5L135.5 112" stroke="#F47630" stroke-linecap="round" stroke-linejoin="round"/>
<path d="M124 112V118" stroke="#F47630" stroke-linecap="round" stroke-linejoin="round"/>
<path d="M129 112L132 118" stroke="#F47630" stroke-linecap="round" stroke-linejoin="round"/>
<path d="M118.5 112L115.5 118" stroke="#F47630" stroke-linecap="round" stroke-linejoin="round"/>
<path d="M110.5 122.5V139H137.5V122.5" stroke="#F47630" stroke-linecap="round" stroke-linejoin="round"/>
<path d="M116.5 139V127H131.5V139" stroke="#F47630" stroke-linecap="round" stroke-linejoin="round"/>
<path d="M156 78.0588C156 73.1176 164 62 164 62C164 62 172 73.1176 172 78.0588C172 80.5552 169.279 82.5826 166.798 82.8556C165.995 82.9439 165.066 83 164 83C162.934 83 162.005 82.9439 161.202 82.8556C158.721 82.5826 156 80.5552 156 78.0588Z" stroke="#3A3736" stroke-linejoin="round"/>
<path d="M170 77.1176C170 71.2353 179 58 179 58C179 58 188 71.2353 188 77.1176C188 80.028 184.816 82.5452 181.922 82.8532C181.071 82.9437 180.1 83 179 83C177.9 83 176.929 82.9437 176.078 82.8532C173.184 82.5452 170 80.028 170 77.1176Z" stroke="#3A3736" stroke-linejoin="round"/>
<path d="M170 77.1176C170 71.2353 179 58 179 58C179 58 188 71.2353 188 77.1176C188 80.028 184.816 82.5452 181.922 82.8532C181.071 82.9437 180.1 83 179 83C177.9 83 176.929 82.9437 176.078 82.8532C173.184 82.5452 170 80.028 170 77.1176Z" stroke="#3A3736" stroke-linejoin="round"/>
<path d="M164 73V90" stroke="#3A3736" stroke-linecap="round" stroke-linejoin="round"/>
<path d="M179 71V90" stroke="#3A3736" stroke-linecap="round" stroke-linejoin="round"/>
<path d="M156 90L188 90" stroke="#3A3736" stroke-linecap="round" stroke-linejoin="round"/>
<path d="M164 76L166.5 74.5" stroke="#3A3736" stroke-linecap="round" stroke-linejoin="round"/>
<path d="M179 74L182 73" stroke="#3A3736" stroke-linecap="round" stroke-linejoin="round"/>
<path d="M164 78L161 76.5" stroke="#3A3736" stroke-linecap="round" stroke-linejoin="round"/>
<path d="M179 77L176 76" stroke="#3A3736" stroke-linecap="round" stroke-linejoin="round"/>
<path d="M156 126.059C156 121.118 164 110 164 110C164 110 172 121.118 172 126.059C172 128.555 169.279 130.583 166.798 130.856C165.995 130.944 165.066 131 164 131C162.934 131 162.005 130.944 161.202 130.856C158.721 130.583 156 128.555 156 126.059Z" stroke="#F47630" stroke-linejoin="round"/>
<path d="M170 125.118C170 119.235 179 106 179 106C179 106 188 119.235 188 125.118C188 128.028 184.816 130.545 181.922 130.853C181.071 130.944 180.1 131 179 131C177.9 131 176.929 130.944 176.078 130.853C173.184 130.545 170 128.028 170 125.118Z" stroke="#F47630" stroke-linejoin="round"/>
<path d="M170 125.118C170 119.235 179 106 179 106C179 106 188 119.235 188 125.118C188 128.028 184.816 130.545 181.922 130.853C181.071 130.944 180.1 131 179 131C177.9 131 176.929 130.944 176.078 130.853C173.184 130.545 170 128.028 170 125.118Z" stroke="#F47630" stroke-linejoin="round"/>
<path d="M164 121V138" stroke="#F47630" stroke-linecap="round" stroke-linejoin="round"/>
<path d="M179 119V138" stroke="#F47630" stroke-linecap="round" stroke-linejoin="round"/>
<path d="M156 138H188" stroke="#F47630" stroke-linecap="round" stroke-linejoin="round"/>
<path d="M164 124L166.5 122.5" stroke="#F47630" stroke-linecap="round" stroke-linejoin="round"/>
<path d="M179 122L182 121" stroke="#F47630" stroke-linecap="round" stroke-linejoin="round"/>
<path d="M164 126L161 124.5" stroke="#F47630" stroke-linecap="round" stroke-linejoin="round"/>
<path d="M179 125L176 124" stroke="#F47630" stroke-linecap="round" stroke-linejoin="round"/>
<path d="M209 74V87" stroke="#3A3736" stroke-linecap="round" stroke-linejoin="round"/>
<path d="M212 74V87" stroke="#3A3736" stroke-linecap="round" stroke-linejoin="round"/>
<path d="M219 74V87" stroke="#3A3736" stroke-linecap="round" stroke-linejoin="round"/>
<path d="M222 74V87" stroke="#3A3736" stroke-linecap="round" stroke-linejoin="round"/>
<path d="M229 74V87" stroke="#3A3736" stroke-linecap="round" stroke-linejoin="round"/>
<path d="M232 74V87" stroke="#3A3736" stroke-linecap="round" stroke-linejoin="round"/>
<path d="M237 71H203L220.37 60L237 71Z" stroke="#3A3736" stroke-linecap="round" stroke-linejoin="round"/>
<path d="M207 71V74H234V71" stroke="#3A3736" stroke-linecap="round" stroke-linejoin="round"/>
<path d="M207 89V87H234V89" stroke="#3A3736" stroke-linecap="round" stroke-linejoin="round"/>
<path d="M204 92V89H236V92H204Z" stroke="#3A3736" stroke-linecap="round" stroke-linejoin="round"/>
<path d="M209 122V135" stroke="#F47630" stroke-linecap="round" stroke-linejoin="round"/>
<path d="M212 122V135" stroke="#F47630" stroke-linecap="round" stroke-linejoin="round"/>
<path d="M219 122V135" stroke="#F47630" stroke-linecap="round" stroke-linejoin="round"/>
<path d="M222 122V135" stroke="#F47630" stroke-linecap="round" stroke-linejoin="round"/>
<path d="M229 122V135" stroke="#F47630" stroke-linecap="round" stroke-linejoin="round"/>
<path d="M232 122V135" stroke="#F47630" stroke-linecap="round" stroke-linejoin="round"/>
<path d="M237 119H203L220.37 108L237 119Z" stroke="#F47630" stroke-linecap="round" stroke-linejoin="round"/>
<path d="M207 119V122H234V119" stroke="#F47630" stroke-linecap="round" stroke-linejoin="round"/>
<path d="M207 137V135H234V137" stroke="#F47630" stroke-linecap="round" stroke-linejoin="round"/>
<path d="M204 140V137H236V140H204Z" stroke="#F47630" stroke-linecap="round" stroke-linejoin="round"/>
<rect x="253.5" y="65" width="20" height="3" stroke="#3A3736" stroke-linejoin="round"/>
<path d="M254.5 68V94H272.5V68" stroke="#3A3736" stroke-linecap="round" stroke-linejoin="round"/>
<path d="M272.5 74H282.5V94H272.5" stroke="#3A3736" stroke-linecap="round" stroke-linejoin="round"/>
<rect x="257.5" y="84" width="12" height="2" stroke="#3A3736" stroke-linejoin="round"/>
<path d="M258.5 86V94" stroke="#3A3736" stroke-linecap="round" stroke-linejoin="round"/>
<path d="M268.5 86V94" stroke="#3A3736" stroke-linecap="round" stroke-linejoin="round"/>
<circle cx="263.5" cy="62" r="4" fill="white" stroke="#3A3736"/>
<rect x="257.5" y="71" width="2" height="2" rx="0.2" fill="#3A3736"/>
<rect x="257.5" y="75" width="2" height="2" rx="0.2" fill="#3A3736"/>
<rect x="257.5" y="79" width="2" height="2" rx="0.2" fill="#3A3736"/>
<rect x="262.5" y="71" width="2" height="2" rx="0.2" fill="#3A3736"/>
<rect x="262.5" y="75" width="2" height="2" rx="0.2" fill="#3A3736"/>
<rect x="262.5" y="79" width="2" height="2" rx="0.2" fill="#3A3736"/>
<rect x="267.5" y="71" width="2" height="2" rx="0.2" fill="#3A3736"/>
<rect x="274.5" y="77" width="2" height="2" rx="0.2" fill="#3A3736"/>
<rect x="278.5" y="77" width="2" height="2" rx="0.2" fill="#3A3736"/>
<rect x="267.5" y="75" width="2" height="2" rx="0.2" fill="#3A3736"/>
<rect x="274.5" y="81" width="2" height="2" rx="0.2" fill="#3A3736"/>
<rect x="278.5" y="81" width="2" height="2" rx="0.2" fill="#3A3736"/>
<rect x="267.5" y="79" width="2" height="2" rx="0.2" fill="#3A3736"/>
<rect x="274.5" y="85" width="2" height="2" rx="0.2" fill="#3A3736"/>
<rect x="278.5" y="85" width="2" height="2" rx="0.2" fill="#3A3736"/>
<rect x="274.5" y="89" width="2" height="2" rx="0.2" fill="#3A3736"/>
<rect x="278.5" y="89" width="2" height="2" rx="0.2" fill="#3A3736"/>
<rect x="253.5" y="113" width="20" height="3" stroke="#F47630" stroke-linejoin="round"/>
<path d="M254.5 116V142H272.5V116" stroke="#F47630" stroke-linecap="round" stroke-linejoin="round"/>
<path d="M272.5 122H282.5V142H272.5" stroke="#F47630" stroke-linecap="round" stroke-linejoin="round"/>
<rect x="257.5" y="132" width="12" height="2" stroke="#F47630" stroke-linejoin="round"/>
<path d="M258.5 134V142" stroke="#F47630" stroke-linecap="round" stroke-linejoin="round"/>
<path d="M268.5 134V142" stroke="#F47630" stroke-linecap="round" stroke-linejoin="round"/>
<circle cx="263.5" cy="110" r="4" fill="white" stroke="#F47630"/>
<rect x="257.5" y="119" width="2" height="2" rx="0.2" fill="#F47630"/>
<rect x="257.5" y="123" width="2" height="2" rx="0.2" fill="#F47630"/>
<rect x="257.5" y="127" width="2" height="2" rx="0.2" fill="#F47630"/>
<rect x="262.5" y="119" width="2" height="2" rx="0.2" fill="#F47630"/>
<rect x="262.5" y="123" width="2" height="2" rx="0.2" fill="#F47630"/>
<rect x="262.5" y="127" width="2" height="2" rx="0.2" fill="#F47630"/>
<rect x="267.5" y="119" width="2" height="2" rx="0.2" fill="#F47630"/>
<rect x="274.5" y="125" width="2" height="2" rx="0.2" fill="#F47630"/>
<rect x="278.5" y="125" width="2" height="2" rx="0.2" fill="#F47630"/>
<rect x="267.5" y="123" width="2" height="2" rx="0.2" fill="#F47630"/>
<rect x="274.5" y="129" width="2" height="2" rx="0.2" fill="#F47630"/>
<rect x="278.5" y="129" width="2" height="2" rx="0.2" fill="#F47630"/>
<rect x="267.5" y="127" width="2" height="2" rx="0.2" fill="#F47630"/>
<rect x="274.5" y="133" width="2" height="2" rx="0.2" fill="#F47630"/>
<rect x="278.5" y="133" width="2" height="2" rx="0.2" fill="#F47630"/>
<rect x="274.5" y="137" width="2" height="2" rx="0.2" fill="#F47630"/>
<rect x="278.5" y="137" width="2" height="2" rx="0.2" fill="#F47630"/>
<path d="M322 72.6875V68H332V93H328.25" stroke="#3A3736" stroke-linecap="round" stroke-linejoin="round"/>
<rect x="300" y="61" width="18" height="4" stroke="#3A3736" stroke-linejoin="round"/>
<path d="M301 93V65H317V93H301Z" stroke="#3A3736" stroke-linecap="round" stroke-linejoin="round"/>
<path d="M328 75H317V93H328V75Z" stroke="#3A3736" stroke-linecap="round" stroke-linejoin="round"/>
<rect x="301" y="59" width="16" height="2" stroke="#3A3736" stroke-linejoin="round"/>
<rect x="317" y="73" width="11" height="2" stroke="#3A3736" stroke-linejoin="round"/>
<rect x="304" y="68" width="2" height="2" rx="0.2" fill="#3A3736"/>
<rect x="304" y="80" width="2" height="2" rx="0.2" fill="#3A3736"/>
<rect x="304" y="72" width="2" height="2" rx="0.2" fill="#3A3736"/>
<rect x="304" y="84" width="2" height="2" rx="0.2" fill="#3A3736"/>
<rect x="304" y="76" width="2" height="2" rx="0.2" fill="#3A3736"/>
<rect x="304" y="88" width="2" height="2" rx="0.2" fill="#3A3736"/>
<rect x="308" y="68" width="2" height="2" rx="0.2" fill="#3A3736"/>
<rect x="308" y="80" width="2" height="2" rx="0.2" fill="#3A3736"/>
<rect x="308" y="72" width="2" height="2" rx="0.2" fill="#3A3736"/>
<rect x="308" y="84" width="2" height="2" rx="0.2" fill="#3A3736"/>
<rect x="308" y="76" width="2" height="2" rx="0.2" fill="#3A3736"/>
<rect x="308" y="88" width="2" height="2" rx="0.2" fill="#3A3736"/>
<rect x="312" y="68" width="2" height="2" rx="0.2" fill="#3A3736"/>
<rect x="312" y="80" width="2" height="2" rx="0.2" fill="#3A3736"/>
<rect x="312" y="72" width="2" height="2" rx="0.2" fill="#3A3736"/>
<rect x="312" y="84" width="2" height="2" rx="0.2" fill="#3A3736"/>
<rect x="320" y="77" width="2" height="2" rx="0.2" fill="#3A3736"/>
<rect x="323" y="77" width="2" height="2" rx="0.2" fill="#3A3736"/>
<rect x="312" y="76" width="2" height="2" rx="0.2" fill="#3A3736"/>
<rect x="312" y="88" width="2" height="2" rx="0.2" fill="#3A3736"/>
<rect x="320" y="80" width="2" height="2" rx="0.2" fill="#3A3736"/>
<rect x="323" y="80" width="2" height="2" rx="0.2" fill="#3A3736"/>
<rect x="320" y="83" width="2" height="2" rx="0.2" fill="#3A3736"/>
<rect x="320" y="86" width="2" height="2" rx="0.2" fill="#3A3736"/>
<rect x="320" y="89" width="2" height="2" rx="0.2" fill="#3A3736"/>
<rect x="323" y="83" width="2" height="2" rx="0.2" fill="#3A3736"/>
<rect x="323" y="86" width="2" height="2" rx="0.2" fill="#3A3736"/>
<rect x="323" y="89" width="2" height="2" rx="0.2" fill="#3A3736"/>
<path d="M327 68V66" stroke="#3A3736" stroke-linecap="round" stroke-linejoin="round"/>
<circle cx="360.585" cy="72.5846" r="12.0846" stroke="#3A3736"/>
<circle cx="360.585" cy="72.5841" r="8.65247" stroke="#3A3736"/>
<path d="M369.483 81.4834L371.101 83.1013" stroke="#3A3736" stroke-linecap="round" stroke-linejoin="round"/>
<rect x="369.483" y="84.7192" width="4.57624" height="10.2965" transform="rotate(-45 369.483 84.7192)" stroke="#3A3736" stroke-linejoin="round"/>
<circle cx="360.585" cy="120.585" r="12.0846" stroke="#F47630"/>
<circle cx="360.585" cy="120.584" r="8.65247" stroke="#F47630"/>
<path d="M369.483 129.483L371.101 131.101" stroke="#F47630" stroke-linecap="round" stroke-linejoin="round"/>
<rect x="369.483" y="132.719" width="4.57624" height="10.2965" transform="rotate(-45 369.483 132.719)" stroke="#F47630" stroke-linejoin="round"/>
<path d="M322 120.687V116H332V141H328.25" stroke="#F47630" stroke-linecap="round" stroke-linejoin="round"/>
<rect x="300" y="109" width="18" height="4" stroke="#F47630" stroke-linejoin="round"/>
<path d="M301 141V113H317V141H301Z" stroke="#F47630" stroke-linecap="round" stroke-linejoin="round"/>
<path d="M328 123H317V141H328V123Z" stroke="#F47630" stroke-linecap="round" stroke-linejoin="round"/>
<rect x="301" y="107" width="16" height="2" stroke="#F47630" stroke-linejoin="round"/>
<rect x="317" y="121" width="11" height="2" stroke="#F47630" stroke-linejoin="round"/>
<rect x="304" y="116" width="2" height="2" rx="0.2" fill="#F47630"/>
<rect x="304" y="128" width="2" height="2" rx="0.2" fill="#F47630"/>
<rect x="304" y="120" width="2" height="2" rx="0.2" fill="#F47630"/>
<rect x="304" y="132" width="2" height="2" rx="0.2" fill="#F47630"/>
<rect x="304" y="124" width="2" height="2" rx="0.2" fill="#F47630"/>
<rect x="304" y="136" width="2" height="2" rx="0.2" fill="#F47630"/>
<rect x="308" y="116" width="2" height="2" rx="0.2" fill="#F47630"/>
<rect x="308" y="128" width="2" height="2" rx="0.2" fill="#F47630"/>
<rect x="308" y="120" width="2" height="2" rx="0.2" fill="#F47630"/>
<rect x="308" y="132" width="2" height="2" rx="0.2" fill="#F47630"/>
<rect x="308" y="124" width="2" height="2" rx="0.2" fill="#F47630"/>
<rect x="308" y="136" width="2" height="2" rx="0.2" fill="#F47630"/>
<rect x="312" y="116" width="2" height="2" rx="0.2" fill="#F47630"/>
<rect x="312" y="128" width="2" height="2" rx="0.2" fill="#F47630"/>
<rect x="312" y="120" width="2" height="2" rx="0.2" fill="#F47630"/>
<rect x="312" y="132" width="2" height="2" rx="0.2" fill="#F47630"/>
<rect x="320" y="125" width="2" height="2" rx="0.2" fill="#F47630"/>
<rect x="323" y="125" width="2" height="2" rx="0.2" fill="#F47630"/>
<rect x="312" y="124" width="2" height="2" rx="0.2" fill="#F47630"/>
<rect x="312" y="136" width="2" height="2" rx="0.2" fill="#F47630"/>
<rect x="320" y="128" width="2" height="2" rx="0.2" fill="#F47630"/>
<rect x="323" y="128" width="2" height="2" rx="0.2" fill="#F47630"/>
<rect x="320" y="131" width="2" height="2" rx="0.2" fill="#F47630"/>
<rect x="320" y="134" width="2" height="2" rx="0.2" fill="#F47630"/>
<rect x="320" y="137" width="2" height="2" rx="0.2" fill="#F47630"/>
<rect x="323" y="131" width="2" height="2" rx="0.2" fill="#F47630"/>
<rect x="323" y="134" width="2" height="2" rx="0.2" fill="#F47630"/>
<rect x="323" y="137" width="2" height="2" rx="0.2" fill="#F47630"/>
<path d="M327 116V114" stroke="#F47630" stroke-linecap="round" stroke-linejoin="round"/>
<path d="M314.4 212H301.6C300.716 212 300 212.768 300 213.714V222.286C300 223.232 300.716 224 301.6 224H314.4C315.284 224 316 223.232 316 222.286V213.714C316 212.768 315.284 212 314.4 212Z" stroke="#3A3736" stroke-width="1.2" stroke-linecap="round" stroke-linejoin="round"/>
<path d="M304 228H312" stroke="#3A3736" stroke-width="1.2" stroke-linecap="round" stroke-linejoin="round"/>
<path d="M308 224L308 228" stroke="#3A3736" stroke-width="1.2" stroke-linecap="round" stroke-linejoin="round"/>
<path d="M342 225L337 220L342 215" stroke="#3A3736" stroke-width="1.4" stroke-linecap="round" stroke-linejoin="round"/>
<path d="M370 215L375 220L370 225" stroke="#3A3736" stroke-width="1.4" stroke-linecap="round" stroke-linejoin="round"/>
<path d="M266 182L269 182M266 182V179M266 182L271 177" stroke="#3A3736" stroke-width="1.2" stroke-linecap="round" stroke-linejoin="round"/>
<path d="M262 186L259 186M262 186L262 189M262 186L257 191" stroke="#3A3736" stroke-width="1.2" stroke-linecap="round" stroke-linejoin="round"/>
<path d="M262 182L259 182M262 182L262 179M262 182L257 177" stroke="#3A3736" stroke-width="1.2" stroke-linecap="round" stroke-linejoin="round"/>
<path d="M266 186L269 186M266 186L266 189M266 186L271 191" stroke="#3A3736" stroke-width="1.2" stroke-linecap="round" stroke-linejoin="round"/>
<path d="M424.042 24.2353V32.3756V44M410.597 44V13.8823H396.076V44M395 44H425.118" stroke="#3A3736" stroke-linecap="round" stroke-linejoin="round"/>
<path d="M419.471 44.0001V38.353H414.765V44.0001" stroke="#3A3736" stroke-linejoin="round"/>
<path d="M421.353 26.5177C421.353 26.2968 421.174 26.1177 420.953 26.1177H419.064C418.843 26.1177 418.664 26.2968 418.664 26.5177V28.9446C418.664 29.1655 418.843 29.3446 419.064 29.3446H420.953C421.174 29.3446 421.353 29.1655 421.353 28.9446V26.5177Z" stroke="#3A3736" stroke-width="0.8" stroke-linejoin="round"/>
<path d="M421.353 32.9713C421.353 32.7504 421.174 32.5713 420.953 32.5713H419.064C418.843 32.5713 418.664 32.7504 418.664 32.9713V35.3982C418.664 35.6191 418.843 35.7982 419.064 35.7982H420.953C421.174 35.7982 421.353 35.6191 421.353 35.3982V32.9713Z" stroke="#3A3736" stroke-width="0.8" stroke-linejoin="round"/>
<path d="M415.975 26.5177C415.975 26.2968 415.796 26.1177 415.575 26.1177H413.686C413.465 26.1177 413.286 26.2968 413.286 26.5177V28.9446C413.286 29.1655 413.465 29.3446 413.686 29.3446H414.63H415.575C415.796 29.3446 415.975 29.1655 415.975 28.9446V26.5177Z" stroke="#3A3736" stroke-width="0.8" stroke-linejoin="round"/>
<path d="M415.975 32.9713C415.975 32.7504 415.796 32.5713 415.575 32.5713H413.686C413.465 32.5713 413.286 32.7504 413.286 32.9713V35.3982C413.286 35.6191 413.465 35.7982 413.686 35.7982H414.63H415.575C415.796 35.7982 415.975 35.6191 415.975 35.3982V32.9713Z" stroke="#3A3736" stroke-width="0.8" stroke-linejoin="round"/>
<path d="M407.37 19.4C407.37 19.1791 407.191 19 406.97 19H405.081C404.86 19 404.681 19.1791 404.681 19.4V21.8269C404.681 22.0478 404.86 22.2269 405.081 22.2269H406.97C407.191 22.2269 407.37 22.0478 407.37 21.8269V19.4Z" stroke="#3A3736" stroke-width="0.8" stroke-linejoin="round"/>
<path d="M407.37 27.3463C407.37 27.1254 407.191 26.9463 406.97 26.9463H405.081C404.86 26.9463 404.681 27.1254 404.681 27.3463V29.7732C404.681 29.9941 404.86 30.1732 405.081 30.1732H406.97C407.191 30.1732 407.37 29.9941 407.37 29.7732V27.3463Z" stroke="#3A3736" stroke-width="0.8" stroke-linejoin="round"/>
<path d="M407.37 35.3463C407.37 35.1254 407.191 34.9463 406.97 34.9463H405.081C404.86 34.9463 404.681 35.1254 404.681 35.3463V37.7732C404.681 37.9941 404.86 38.1732 405.081 38.1732H406.97C407.191 38.1732 407.37 37.9941 407.37 37.7732V35.3463Z" stroke="#3A3736" stroke-width="0.8" stroke-linejoin="round"/>
<path d="M401.991 19.4C401.991 19.1791 401.812 19 401.591 19H399.702C399.481 19 399.302 19.1791 399.302 19.4V21.8269C399.302 22.0478 399.481 22.2269 399.702 22.2269H400.647H401.591C401.812 22.2269 401.991 22.0478 401.991 21.8269V19.4Z" stroke="#3A3736" stroke-width="0.8" stroke-linejoin="round"/>
<path d="M401.991 27.3463C401.991 27.1254 401.812 26.9463 401.591 26.9463H399.702C399.481 26.9463 399.302 27.1254 399.302 27.3463V29.7732C399.302 29.9941 399.481 30.1732 399.702 30.1732H400.647H401.591C401.812 30.1732 401.991 29.9941 401.991 29.7732V27.3463Z" stroke="#3A3736" stroke-width="0.8" stroke-linejoin="round"/>
<path d="M401.991 35.3463C401.991 35.1254 401.812 34.9463 401.591 34.9463H399.702C399.481 34.9463 399.302 35.1254 399.302 35.3463V37.7732C399.302 37.9941 399.481 38.1732 399.702 38.1732H400.647H401.591C401.812 38.1732 401.991 37.9941 401.991 37.7732V35.3463Z" stroke="#3A3736" stroke-width="0.8" stroke-linejoin="round"/>
<path d="M411 20.4707H411.941" stroke="#3A3736" stroke-linecap="round" stroke-linejoin="round"/>
<path d="M414 13C414 12.4477 414.448 12 415 12H428C428.552 12 429 12.4477 429 13V21.2359C429 21.7882 428.552 22.2359 428 22.2359H417.847C417.622 22.2359 417.404 22.3118 417.227 22.4512L414.648 24.4883C414.386 24.6955 414 24.5086 414 24.1744V13Z" fill="white" stroke="#3A3736"/>
<circle cx="417.5" cy="17" r="1" fill="#3A3736"/>
<circle cx="421.5" cy="17" r="1" fill="#3A3736"/>
<circle cx="425.5" cy="17" r="1" fill="#3A3736"/>
<path d="M28 251.269V252.005C27.999 253.73 27.4404 255.408 26.4075 256.79C25.3745 258.172 23.9226 259.183 22.2683 259.672C20.6139 260.161 18.8458 260.102 17.2276 259.504C15.6093 258.906 14.2277 257.801 13.2888 256.354C12.3498 254.907 11.9038 253.195 12.0173 251.474C12.1308 249.752 12.7978 248.114 13.9186 246.802C15.0395 245.491 16.5542 244.577 18.2369 244.197C19.9197 243.817 21.6802 243.99 23.256 244.693" stroke="#3A3736" stroke-width="1.4" stroke-linecap="round" stroke-linejoin="round"/>
<path d="M28 245.333L18.7692 254.667L16 251.87" stroke="#3A3736" stroke-width="1.4" stroke-linecap="round" stroke-linejoin="round"/>
<path d="M60 251.269V252.005C59.999 253.73 59.4404 255.408 58.4075 256.79C57.3745 258.172 55.9226 259.183 54.2683 259.672C52.6139 260.161 50.8458 260.102 49.2276 259.504C47.6093 258.906 46.2277 257.801 45.2888 256.354C44.3498 254.907 43.9038 253.195 44.0173 251.474C44.1308 249.752 44.7978 248.114 45.9186 246.802C47.0395 245.491 48.5542 244.577 50.2369 244.197C51.9197 243.817 53.6802 243.99 55.256 244.693" stroke="#F47630" stroke-width="1.4" stroke-linecap="round" stroke-linejoin="round"/>
<path d="M60 245.333L50.7692 254.667L48 251.87" stroke="#F47630" stroke-width="1.4" stroke-linecap="round" stroke-linejoin="round"/>
<path d="M92 251.269V252.005C91.999 253.73 91.4404 255.408 90.4075 256.79C89.3745 258.172 87.9226 259.183 86.2683 259.672C84.6139 260.161 82.8458 260.102 81.2276 259.504C79.6093 258.906 78.2277 257.801 77.2888 256.354C76.3498 254.907 75.9038 253.195 76.0173 251.474C76.1308 249.752 76.7978 248.114 77.9186 246.802C79.0395 245.491 80.5542 244.577 82.2369 244.197C83.9197 243.817 85.6802 243.99 87.256 244.693" stroke="#FFD0B7" stroke-width="1.4" stroke-linecap="round" stroke-linejoin="round"/>
<path d="M92 245.333L82.7692 254.667L80 251.87" stroke="#FFD0B7" stroke-width="1.4" stroke-linecap="round" stroke-linejoin="round"/>
<path d="M120 250.444L116 246M116 246L112 250.444M116 246V254" stroke="#3A3736" stroke-width="1.4" stroke-linecap="round" stroke-linejoin="round"/>
<path d="M110 255L110 256C110 257.105 110.768 258 111.714 258L120.286 258C121.232 258 122 257.105 122 256V255" stroke="#3A3736" stroke-width="1.4" stroke-linecap="round" stroke-linejoin="round"/>
<path d="M151.47 249.333C152.932 249.333 154.117 248.139 154.117 246.667C154.117 245.194 152.932 244 151.47 244C150.008 244 148.823 245.194 148.823 246.667C148.823 248.139 150.008 249.333 151.47 249.333Z" fill="#D5CDCB" stroke="#D5CDCB" stroke-width="1.2" stroke-linecap="round" stroke-linejoin="round"/>
<path d="M142.647 254.222C144.109 254.222 145.294 253.028 145.294 251.555C145.294 250.083 144.109 248.889 142.647 248.889C141.185 248.889 140 250.083 140 251.555C140 253.028 141.185 254.222 142.647 254.222Z" fill="#D5CDCB" stroke="#D5CDCB" stroke-width="1.2" stroke-linecap="round" stroke-linejoin="round"/>
<path d="M152.353 260C153.815 260 155 258.806 155 257.333C155 255.86 153.815 254.667 152.353 254.667C150.891 254.667 149.706 255.86 149.706 257.333C149.706 258.806 150.891 260 152.353 260Z" fill="#D5CDCB" stroke="#D5CDCB" stroke-width="1.2" stroke-linecap="round" stroke-linejoin="round"/>
<path d="M145.294 252.889L149.706 255.555" stroke="#D5CDCB" stroke-width="1.2" stroke-linecap="round" stroke-linejoin="round"/>
<path d="M148.824 248L145.294 250.222" stroke="#D5CDCB" stroke-width="1.2" stroke-linecap="round" stroke-linejoin="round"/>
<path d="M185 250L180 255L175 250" stroke="#3A3736" stroke-width="1.4" stroke-linecap="round" stroke-linejoin="round"/>
<path d="M313 250L308 255L303 250" stroke="white" stroke-width="1.4" stroke-linecap="round" stroke-linejoin="round"/>
<path d="M140 278L136 282L132 278" stroke="#3A3736" stroke-width="1.2" stroke-linecap="round" stroke-linejoin="round"/>
<path d="M302 276L306 280L302 284" stroke="#D4CDCB" stroke-width="1.2" stroke-linecap="round" stroke-linejoin="round"/>
<path d="M188 278L184 282L180 278" stroke="white" stroke-width="1.2" stroke-linecap="round" stroke-linejoin="round"/>
<path d="M207 254L212 249L217 254" stroke="#3A3736" stroke-width="1.4" stroke-linecap="round" stroke-linejoin="round"/>
<path d="M335 254L340 249L345 254" stroke="white" stroke-width="1.4" stroke-linecap="round" stroke-linejoin="round"/>
<path d="M156 282L160 278L164 282" stroke="#3A3736" stroke-width="1.2" stroke-linecap="round" stroke-linejoin="round"/>
<path d="M204 282L208 278L212 282" stroke="white" stroke-width="1.2" stroke-linecap="round" stroke-linejoin="round"/>
<path d="M252 249.773C252 255.818 244 261 244 261C244 261 236 255.818 236 249.773C236 247.711 236.843 245.734 238.343 244.277C239.843 242.819 241.878 242 244 242C246.122 242 248.157 242.819 249.657 244.277C251.157 245.734 252 247.711 252 249.773Z" fill="#F47630" stroke="#F47630" stroke-width="1.4" stroke-linecap="round" stroke-linejoin="round"/>
<path d="M244 253C245.657 253 247 251.657 247 250C247 248.343 245.657 247 244 247C242.343 247 241 248.343 241 250C241 251.657 242.343 253 244 253Z" fill="white" stroke="white" stroke-width="1.4" stroke-linecap="round" stroke-linejoin="round"/>
<path d="M270.343 257.657C271.462 258.776 272.887 259.538 274.439 259.846C275.991 260.155 277.6 259.997 279.061 259.391C280.523 258.786 281.773 257.76 282.652 256.445C283.531 255.129 284 253.582 284 252C284 250.418 283.531 248.871 282.652 247.555C281.773 246.24 280.523 245.214 279.061 244.609C277.6 244.003 275.991 243.845 274.439 244.154C272.887 244.462 271.462 245.224 270.343 246.343" stroke="white" stroke-width="1.4" stroke-linecap="round" stroke-linejoin="round"/>
<path d="M275 248L278 252M278 252L275 256M278 252H269" stroke="white" stroke-width="1.4" stroke-linecap="round" stroke-linejoin="round"/>
<path d="M228 277H236" stroke="#3A3736" stroke-width="1.2" stroke-linecap="round" stroke-linejoin="round"/>
<path d="M228 283H236" stroke="#3A3736" stroke-width="1.2" stroke-linecap="round" stroke-linejoin="round"/>
<path d="M256 274.5L257.854 278.12L262 278.705L259 281.521L259.708 285.5L256 283.62L252.292 285.5L253 281.521L250 278.705L254.146 278.12L256 274.5Z" fill="#FCC538" stroke="#FCC538" stroke-linecap="round" stroke-linejoin="round"/>
<path d="M276.464 276.464L283.535 283.535" stroke="#3A3736" stroke-width="1.2" stroke-linecap="round" stroke-linejoin="round"/>
<path d="M276.464 283.536L283.535 276.465" stroke="#3A3736" stroke-width="1.2" stroke-linecap="round" stroke-linejoin="round"/>
<g filter="url(#filter0_dd_220_10891)">
<circle cx="401" cy="219" r="9" fill="white"/>
<circle cx="401" cy="219" r="8.5" stroke="#F3F0ED"/>
</g>
<circle cx="401" cy="219" r="4" fill="#F47630"/>
<path d="M430 228C434.418 228 438 224.418 438 220C438 215.582 434.418 212 430 212C425.582 212 422 215.582 422 220C422 224.418 425.582 228 430 228Z" stroke="#7B726F" stroke-width="1.4" stroke-linecap="round" stroke-linejoin="round"/>
<path d="M427.5 217.669C427.702 217.113 428.1 216.643 428.623 216.344C429.147 216.045 429.763 215.936 430.362 216.036C430.961 216.136 431.504 216.438 431.895 216.889C432.287 217.341 432.501 217.912 432.5 218.502C432.5 220.167 430 221.5 430 221.5" stroke="#7B726F" stroke-width="1.4" stroke-linecap="round" stroke-linejoin="round"/>
<path d="M430 224H430.01" stroke="#7B726F" stroke-width="1.6" stroke-linecap="round" stroke-linejoin="round"/>
<g filter="url(#filter1_d_220_10891)">
<rect x="440.5" y="8.5" width="92.9759" height="92.9759" rx="4.5" stroke="#F47630" stroke-opacity="0.5"/>
<g filter="url(#filter2_d_220_10891)">
<rect x="450.023" y="18.0234" width="93.9759" height="93.9759" rx="5" fill="url(#paint0_linear_220_10891)"/>
</g>
<line x1="468.5" y1="60" x2="468.5" y2="80" stroke="white"/>
</g>
<path d="M490.143 214H502.357" stroke="white" stroke-width="1.4" stroke-linecap="round" stroke-linejoin="round"/>
<path d="M490.143 220H502.357" stroke="white" stroke-width="1.4" stroke-linecap="round" stroke-linejoin="round"/>
<path d="M490.143 226H502.357" stroke="white" stroke-width="1.4" stroke-linecap="round" stroke-linejoin="round"/>
<path d="M486.071 214H486.081" stroke="white" stroke-width="2" stroke-linecap="round" stroke-linejoin="round"/>
<path d="M486.071 220H486.081" stroke="white" stroke-width="2" stroke-linecap="round" stroke-linejoin="round"/>
<path d="M486.071 226H486.081" stroke="white" stroke-width="2" stroke-linecap="round" stroke-linejoin="round"/>
<path d="M362 251L372.256 243L382 251" stroke="#3A3736" stroke-linecap="round" stroke-linejoin="round"/>
<path d="M364 249.5V261H380V249.5" stroke="#3A3736" stroke-linecap="round" stroke-linejoin="round"/>
<path d="M377 246.5V244H378.5H380V249" stroke="#3A3736" stroke-linecap="round" stroke-linejoin="round"/>
<path d="M369 261V254H375V261" stroke="#3A3736" stroke-linecap="round" stroke-linejoin="round"/>
<path d="M362 283L372.256 275L382 283" stroke="white" stroke-linecap="round" stroke-linejoin="round"/>
<path d="M364 281.5V293H380V281.5" stroke="white" stroke-linecap="round" stroke-linejoin="round"/>
<path d="M377 278.5V276H378.5H380V281" stroke="white" stroke-linecap="round" stroke-linejoin="round"/>
<path d="M369 293V286H375V293" stroke="white" stroke-linecap="round" stroke-linejoin="round"/>
<path d="M410 262H398V251.138L404 247L410 251.138V262Z" stroke="#3A3736" stroke-linecap="round" stroke-linejoin="round"/>
<path d="M410 253H413V262H410" stroke="#3A3736" stroke-linecap="round" stroke-linejoin="round"/>
<path d="M398 253H395V262H398" stroke="#3A3736" stroke-linecap="round" stroke-linejoin="round"/>
<path d="M401 262V257H407V262" stroke="#3A3736" stroke-linecap="round" stroke-linejoin="round"/>
<path d="M404 247V245M404 245V242H408V245H404Z" stroke="#3A3736" stroke-linecap="round" stroke-linejoin="round"/>
<circle cx="404" cy="252" r="1.5" stroke="#3A3736"/>
<path d="M410 294H398V283.138L404 279L410 283.138V294Z" stroke="white" stroke-linecap="round" stroke-linejoin="round"/>
<path d="M410 285H413V294H410" stroke="white" stroke-linecap="round" stroke-linejoin="round"/>
<path d="M398 285H395V294H398" stroke="white" stroke-linecap="round" stroke-linejoin="round"/>
<path d="M401 294V289H407V294" stroke="white" stroke-linecap="round" stroke-linejoin="round"/>
<path d="M404 279V277M404 277V274H408V277H404Z" stroke="white" stroke-linecap="round" stroke-linejoin="round"/>
<circle cx="404" cy="284" r="1.5" stroke="white"/>
<path d="M426 261H446" stroke="#3A3736" stroke-linecap="round" stroke-linejoin="round"/>
<path d="M428 261L433 243H439L444 261" stroke="#3A3736" stroke-linecap="round" stroke-linejoin="round"/>
<path d="M432 249H440" stroke="#3A3736" stroke-linecap="round" stroke-linejoin="round"/>
<path d="M430 255H442" stroke="#3A3736" stroke-linecap="round" stroke-linejoin="round"/>
<path d="M426 293H446" stroke="white" stroke-linecap="round" stroke-linejoin="round"/>
<path d="M428 293L433 275H439L444 293" stroke="white" stroke-linecap="round" stroke-linejoin="round"/>
<path d="M432 281H440" stroke="white" stroke-linecap="round" stroke-linejoin="round"/>
<path d="M430 287H442" stroke="white" stroke-linecap="round" stroke-linejoin="round"/>
<path d="M458 261V245.5L470 243V261H458Z" stroke="#3A3736" stroke-linecap="round" stroke-linejoin="round"/>
<path d="M470 247L478 249V261H470" stroke="#3A3736" stroke-linecap="round" stroke-linejoin="round"/>
<path d="M461 248H467" stroke="#3A3736" stroke-linecap="round" stroke-linejoin="round"/>
<path d="M461 251H467" stroke="#3A3736" stroke-linecap="round" stroke-linejoin="round"/>
<path d="M472.5 252H475.5" stroke="#3A3736" stroke-linecap="round" stroke-linejoin="round"/>
<path d="M472.5 255H475.5" stroke="#3A3736" stroke-linecap="round" stroke-linejoin="round"/>
<path d="M472.5 258H475.5" stroke="#3A3736" stroke-linecap="round" stroke-linejoin="round"/>
<path d="M461 261V255H467V261" stroke="#3A3736" stroke-linecap="round" stroke-linejoin="round"/>
<path d="M458 293V277.5L470 275V293H458Z" stroke="white" stroke-linecap="round" stroke-linejoin="round"/>
<path d="M470 279L478 281V293H470" stroke="white" stroke-linecap="round" stroke-linejoin="round"/>
<path d="M461 280H467" stroke="white" stroke-linecap="round" stroke-linejoin="round"/>
<path d="M461 283H467" stroke="white" stroke-linecap="round" stroke-linejoin="round"/>
<path d="M472.5 284H475.5" stroke="white" stroke-linecap="round" stroke-linejoin="round"/>
<path d="M472.5 287H475.5" stroke="white" stroke-linecap="round" stroke-linejoin="round"/>
<path d="M472.5 290H475.5" stroke="white" stroke-linecap="round" stroke-linejoin="round"/>
<path d="M461 293V287H467V293" stroke="white" stroke-linecap="round" stroke-linejoin="round"/>
<path d="M320 324C320 308.536 307.464 296 292 296C276.536 296 264 308.536 264 324C264 339.464 276.536 352 292 352C307.464 352 320 339.464 320 324Z" fill="#1BCC21"/>
<path d="M292.472 315.227C291.514 315.225 290.56 315.344 289.632 315.579V313.421C289.639 313.372 289.639 313.322 289.632 313.273C289.632 312.14 289.178 311.053 288.368 310.252C287.559 309.45 286.461 309 285.316 309C284.171 309 283.074 309.45 282.264 310.252C281.455 311.053 281 312.14 281 313.273C281 313.323 281 321.37 281 321.37V326.719C281.021 328.968 281.714 331.16 282.992 333.019C284.269 334.878 286.074 336.321 288.179 337.166C290.284 338.011 292.594 338.22 294.819 337.766C297.043 337.313 299.082 336.217 300.679 334.618C302.276 333.018 303.358 330.987 303.79 328.779C304.222 326.572 303.984 324.287 303.106 322.213C302.228 320.139 300.75 318.369 298.858 317.126C296.965 315.882 294.743 315.222 292.472 315.227ZM292.472 336.236C289.891 336.236 287.415 335.221 285.59 333.413C283.765 331.606 282.739 329.155 282.739 326.6V313.498C282.739 312.823 283.01 312.176 283.492 311.699C283.974 311.222 284.627 310.954 285.309 310.954C285.991 310.954 286.644 311.222 287.126 311.699C287.608 312.176 287.879 312.823 287.879 313.498V326.494C287.873 327.715 288.351 328.888 289.21 329.764C290.068 330.639 291.24 331.146 292.472 331.175C293.208 331.177 293.934 331.005 294.589 330.672C295.244 330.34 295.809 329.857 296.237 329.264C296.665 328.671 296.944 327.986 297.05 327.265C297.156 326.543 297.086 325.808 296.847 325.118C296.607 324.429 296.204 323.807 295.672 323.304C295.14 322.8 294.494 322.43 293.788 322.224C293.081 322.018 292.336 321.983 291.613 322.12C290.89 322.258 290.211 322.565 289.632 323.015V321.061C290.853 320.45 292.242 320.251 293.588 320.493C294.934 320.735 296.163 321.406 297.089 322.403C298.015 323.4 298.587 324.669 298.718 326.017C298.849 327.365 298.533 328.719 297.816 329.873C297.099 331.026 296.022 331.917 294.747 332.409C293.473 332.901 292.071 332.967 290.754 332.599C289.438 332.23 288.279 331.446 287.454 330.366C286.629 329.285 286.182 327.968 286.182 326.614V313.421C286.182 313.19 286.089 312.968 285.924 312.805C285.759 312.641 285.535 312.549 285.302 312.549C285.068 312.549 284.845 312.641 284.68 312.805C284.514 312.968 284.422 313.19 284.422 313.421V326.614C284.422 326.81 284.422 327.007 284.422 327.204C284.534 328.751 285.099 330.233 286.049 331.467C286.999 332.7 288.292 333.633 289.769 334.15C291.246 334.667 292.844 334.745 294.365 334.377C295.887 334.008 297.267 333.207 298.336 332.073C299.405 330.939 300.117 329.521 300.384 327.992C300.651 326.464 300.461 324.891 299.839 323.467C299.216 322.044 298.187 320.831 296.879 319.978C295.57 319.125 294.039 318.668 292.472 318.664C291.503 318.665 290.541 318.836 289.632 319.17V317.413C290.553 317.135 291.51 316.996 292.472 316.999C293.797 316.919 295.125 317.109 296.373 317.557C297.621 318.004 298.764 318.7 299.73 319.601C300.697 320.502 301.467 321.589 301.994 322.796C302.52 324.002 302.792 325.303 302.792 326.617C302.792 327.932 302.52 329.232 301.994 330.439C301.467 331.645 300.697 332.733 299.73 333.634C298.764 334.535 297.621 335.23 296.373 335.678C295.125 336.125 293.797 336.315 292.472 336.236ZM289.632 326.6C289.632 326.044 289.799 325.5 290.111 325.038C290.423 324.575 290.866 324.215 291.385 324.002C291.904 323.789 292.475 323.734 293.026 323.842C293.577 323.951 294.083 324.218 294.48 324.612C294.877 325.005 295.147 325.506 295.257 326.051C295.366 326.597 295.31 327.162 295.095 327.676C294.88 328.189 294.516 328.628 294.049 328.937C293.582 329.246 293.033 329.411 292.472 329.411C291.721 329.411 291.001 329.117 290.469 328.593C289.937 328.068 289.636 327.357 289.632 326.614V326.6Z" fill="white"/>
<path d="M256 324C256 308.536 243.464 296 228 296C212.536 296 200 308.536 200 324C200 339.464 212.536 352 228 352C243.464 352 256 339.464 256 324Z" fill="#32B24A"/>
<path d="M238.698 313H217.3C216.65 313.001 216.006 313.131 215.406 313.383C214.806 313.635 214.26 314.003 213.801 314.467C213.343 314.932 212.979 315.483 212.732 316.089C212.484 316.695 212.358 317.344 212.359 317.999V329.851C212.359 330.506 212.486 331.154 212.733 331.76C212.981 332.365 213.345 332.915 213.804 333.379C214.263 333.842 214.808 334.21 215.407 334.462C216.007 334.713 216.651 334.843 217.3 334.844H224.669L227.189 338.97C227.211 339.012 227.238 339.052 227.268 339.09C227.342 339.22 227.449 339.327 227.578 339.402C227.707 339.477 227.853 339.516 228.002 339.516C228.149 339.515 228.293 339.475 228.42 339.402C228.548 339.328 228.654 339.223 228.73 339.096C228.763 339.057 228.791 339.015 228.816 338.97L231.329 334.844H238.698C239.347 334.843 239.99 334.713 240.59 334.462C241.19 334.21 241.735 333.842 242.194 333.379C242.653 332.915 243.017 332.365 243.264 331.76C243.512 331.154 243.639 330.506 243.638 329.851V317.999C243.64 316.676 243.121 315.407 242.194 314.469C241.268 313.532 240.01 313.004 238.698 313Z" fill="white"/>
<path d="M218.998 321.685C218.375 321.72 217.787 321.984 217.344 322.425V319.366H215.433V327.425H217.364V326.791C217.539 327.059 217.779 327.276 218.062 327.422C218.345 327.568 218.66 327.638 218.978 327.625C219.352 327.608 219.718 327.517 220.057 327.357C220.395 327.197 220.698 326.97 220.949 326.69C221.2 326.41 221.392 326.083 221.516 325.727C221.64 325.372 221.692 324.995 221.67 324.618C221.67 324.618 221.571 321.685 218.978 321.685H218.998ZM218.555 325.925C218.311 325.925 218.073 325.852 217.871 325.716C217.669 325.58 217.511 325.386 217.418 325.159C217.325 324.933 217.3 324.684 217.348 324.443C217.395 324.203 217.513 323.982 217.685 323.808C217.857 323.635 218.076 323.517 218.315 323.469C218.553 323.421 218.801 323.446 219.025 323.54C219.25 323.633 219.442 323.792 219.577 323.996C219.713 324.2 219.785 324.44 219.785 324.685C219.785 325.014 219.655 325.329 219.425 325.562C219.194 325.794 218.881 325.925 218.555 325.925Z" fill="#F27629"/>
<path d="M222.312 319.199V321.092C222.312 321.092 223.178 321.052 223.178 322.692V327.451H225.023V322.252C225.023 322.252 225.109 319.226 222.312 319.226" fill="#F27629"/>
<path d="M229.541 321.712C229.541 321.712 226.372 321.712 226.372 324.685C226.372 324.685 226.273 327.624 229.541 327.624C229.541 327.624 232.775 327.624 232.775 324.685C232.775 324.685 232.881 321.712 229.541 321.712ZM229.541 325.925C229.297 325.925 229.059 325.852 228.857 325.716C228.655 325.579 228.497 325.386 228.404 325.159C228.311 324.933 228.287 324.683 228.334 324.443C228.382 324.202 228.499 323.982 228.671 323.808C228.843 323.635 229.062 323.517 229.301 323.469C229.539 323.421 229.787 323.446 230.011 323.539C230.236 323.633 230.428 323.792 230.564 323.996C230.699 324.2 230.771 324.44 230.771 324.685C230.771 325.014 230.641 325.329 230.411 325.562C230.18 325.794 229.867 325.925 229.541 325.925Z" fill="#F27629"/>
<path d="M238.06 321.899V322.425C237.862 322.192 237.615 322.006 237.337 321.879C237.06 321.753 236.758 321.689 236.453 321.692C236.453 321.692 233.741 321.572 233.741 324.645C233.741 324.645 233.741 327.511 236.387 327.511C236.704 327.517 237.019 327.454 237.31 327.327C237.601 327.199 237.862 327.01 238.074 326.771V327.225C238.074 327.225 238.206 328.638 236.857 328.638H236.387V330.344H237.134C237.519 330.348 237.901 330.271 238.255 330.119C238.609 329.966 238.928 329.741 239.191 329.458C239.454 329.174 239.655 328.839 239.783 328.473C239.911 328.107 239.962 327.718 239.932 327.331V321.879L238.06 321.899ZM236.916 325.898C236.673 325.898 236.435 325.825 236.233 325.689C236.03 325.553 235.873 325.359 235.779 325.133C235.686 324.906 235.662 324.657 235.709 324.416C235.757 324.176 235.874 323.955 236.046 323.782C236.218 323.608 236.437 323.49 236.676 323.442C236.915 323.394 237.162 323.419 237.387 323.513C237.612 323.607 237.804 323.766 237.939 323.969C238.074 324.173 238.146 324.413 238.146 324.658C238.146 324.821 238.115 324.982 238.053 325.133C237.991 325.283 237.9 325.42 237.786 325.535C237.672 325.65 237.536 325.741 237.387 325.804C237.238 325.866 237.078 325.898 236.916 325.898Z" fill="#F27629"/>
<path d="M192 324C192 308.536 179.464 296 164 296C148.536 296 136 308.536 136 324C136 339.464 148.536 352 164 352C179.464 352 192 339.464 192 324Z" fill="#F3D710"/>
<path d="M170.411 311H157.563C157.359 310.999 157.155 311.038 156.966 311.116C156.776 311.193 156.604 311.308 156.458 311.452C156.313 311.596 156.198 311.768 156.119 311.957C156.04 312.146 156 312.349 156 312.554V325.289C156 325.493 156.041 325.696 156.119 325.884C156.198 326.073 156.314 326.244 156.459 326.388C156.604 326.531 156.777 326.645 156.966 326.721C157.156 326.798 157.359 326.836 157.563 326.834H163.511C163.389 328.487 162.842 330.081 161.922 331.461C160.992 332.754 159.901 333.923 158.677 334.942C158.585 335.018 158.51 335.113 158.458 335.219C158.405 335.326 158.375 335.443 158.371 335.562C158.381 335.758 158.459 335.944 158.592 336.088L162.721 340.715C162.822 340.827 162.947 340.914 163.087 340.97C163.177 340.998 163.272 341.007 163.366 340.995C163.46 340.983 163.55 340.952 163.63 340.902C166.159 339.024 168.226 336.595 169.676 333.801C171.126 331.006 171.921 327.918 172 324.771V312.554C171.998 312.141 171.832 311.746 171.539 311.455C171.246 311.163 170.85 311 170.437 311" fill="white"/>
<path d="M128 324C128 308.536 115.464 296 100 296C84.536 296 72 308.536 72 324C72 339.464 84.536 352 100 352C115.464 352 128 339.464 128 324Z" fill="#455E99"/>
<path d="M103.327 352V334.158H108.934L109.77 327.565H103.327V323.36C103.327 321.447 103.856 320.149 106.556 320.149H110V314.257C108.331 314.081 106.654 313.995 104.976 314C100.013 314 96.615 317.071 96.615 322.715V327.573H91V334.165H96.615V352H100.048H103.327Z" fill="white"/>
<path d="M64 324C64 308.536 51.464 296 36 296C20.536 296 8 308.536 8 324C8 339.464 20.536 352 36 352C51.464 352 64 339.464 64 324Z" fill="#FFE600"/>
<path d="M35.999 312.1C27.714 312.1 21 317.301 21 323.717C21 327.893 23.846 331.552 28.116 333.6C27.805 334.748 26.98 337.758 26.815 338.401C26.613 339.201 27.115 339.19 27.443 338.975C27.701 338.806 31.554 336.241 33.217 335.133C34.139 335.267 35.069 335.334 36.001 335.334C44.286 335.334 51 330.132 51 323.717C51 317.301 44.284 312.1 36.001 312.1" fill="#391B1B"/>
<path d="M29.9621 320.295H25.5751C25.3771 320.295 25.1881 320.372 25.0481 320.509C24.9081 320.647 24.8291 320.832 24.8291 321.026C24.8291 321.22 24.9081 321.406 25.0481 321.543C25.1881 321.68 25.3771 321.757 25.5751 321.757H27.0011V326.905C27.0021 327.094 27.0791 327.275 27.2151 327.408C27.3521 327.542 27.5371 327.617 27.7291 327.618H27.8891C28.0811 327.617 28.2661 327.542 28.4021 327.408C28.5381 327.274 28.6151 327.094 28.6151 326.905V321.757H29.9621C30.1601 321.757 30.3501 321.68 30.4901 321.543C30.6301 321.406 30.7081 321.22 30.7081 321.026C30.7081 320.832 30.6301 320.647 30.4901 320.509C30.3501 320.372 30.1601 320.295 29.9621 320.295Z" fill="#FAE300"/>
<path d="M40.505 326.243H38.465V320.985C38.468 320.879 38.45 320.773 38.411 320.674C38.371 320.575 38.312 320.485 38.237 320.409C38.161 320.332 38.071 320.272 37.971 320.23C37.871 320.189 37.764 320.167 37.655 320.167C37.547 320.167 37.44 320.189 37.34 320.23C37.24 320.272 37.15 320.332 37.074 320.409C36.999 320.485 36.94 320.575 36.9 320.674C36.861 320.773 36.843 320.879 36.846 320.985V326.652C36.847 326.695 36.851 326.737 36.859 326.779C36.851 326.821 36.846 326.863 36.846 326.906C36.846 326.993 36.863 327.079 36.897 327.16C36.931 327.24 36.981 327.314 37.044 327.375C37.107 327.437 37.182 327.486 37.264 327.519C37.347 327.552 37.435 327.57 37.524 327.569H40.505C40.681 327.564 40.847 327.491 40.969 327.367C41.091 327.244 41.16 327.078 41.16 326.906C41.16 326.734 41.091 326.568 40.969 326.445C40.847 326.321 40.681 326.248 40.505 326.243Z" fill="#FAE300"/>
<path d="M47.0241 326.484L44.7511 323.559L46.8051 321.546C46.8711 321.481 46.9242 321.404 46.9602 321.319C46.9962 321.234 47.0141 321.143 47.0141 321.052C47.0141 320.96 46.9962 320.869 46.9602 320.784C46.9242 320.699 46.8711 320.622 46.8051 320.557C46.7391 320.492 46.6601 320.44 46.5731 320.405C46.4871 320.37 46.3941 320.352 46.3001 320.352C46.2061 320.352 46.1131 320.37 46.0271 320.405C45.9401 320.44 45.8611 320.492 45.7951 320.557L43.2522 323.048V320.985C43.2552 320.879 43.2371 320.773 43.1981 320.674C43.1591 320.575 43.0991 320.485 43.0241 320.409C42.9491 320.332 42.8581 320.272 42.7581 320.23C42.6581 320.189 42.5511 320.167 42.4431 320.167C42.3341 320.167 42.2272 320.189 42.1272 320.23C42.0272 320.272 41.9372 320.332 41.8612 320.409C41.7862 320.485 41.7271 320.575 41.6871 320.674C41.6481 320.773 41.6301 320.879 41.6331 320.985V326.826C41.6401 327.033 41.7282 327.228 41.8792 327.371C42.0302 327.515 42.2321 327.595 42.4431 327.595C42.6531 327.595 42.8551 327.515 43.0061 327.371C43.1571 327.228 43.2452 327.033 43.2522 326.826V325.024L43.7141 324.572L45.8651 327.336C45.9801 327.486 46.1521 327.586 46.3421 327.613C46.5321 327.639 46.7262 327.591 46.8792 327.478C47.0332 327.365 47.1351 327.197 47.1621 327.01C47.1891 326.824 47.1401 326.635 47.0241 326.484Z" fill="#FAE300"/>
<path d="M36.2409 326.674L34.0539 320.812L34.0469 320.806C33.9079 320.449 33.5029 320.188 33.0229 320.188C32.4889 320.188 32.0479 320.508 31.9599 320.926C31.9439 320.958 31.9309 320.99 31.9189 321.023L29.7719 326.674C29.7329 326.763 29.7119 326.86 29.7119 326.958C29.7119 327.055 29.7319 327.152 29.7719 327.241C29.8119 327.331 29.8699 327.412 29.9439 327.478C30.0169 327.545 30.1029 327.596 30.1969 327.628C30.2909 327.66 30.3909 327.673 30.4899 327.666C30.5899 327.659 30.6869 327.632 30.7749 327.586C30.8629 327.54 30.9409 327.478 31.0029 327.401C31.0649 327.325 31.1109 327.237 31.1369 327.143L31.5089 326.103H34.5009L34.8729 327.143C34.9369 327.32 35.0699 327.466 35.2429 327.548C35.4169 327.629 35.6159 327.64 35.7979 327.577C35.9789 327.515 36.1279 327.384 36.2109 327.214C36.2939 327.044 36.3049 326.849 36.2409 326.671V326.674ZM31.9829 324.777L32.9889 321.966C33.0009 321.966 33.0099 321.966 33.0219 321.966L34.0259 324.774L31.9829 324.777Z" fill="#FAE300"/>
<defs>
<filter id="filter0_dd_220_10891" x="377" y="195" width="48" height="48" filterUnits="userSpaceOnUse" color-interpolation-filters="sRGB">
<feFlood flood-opacity="0" result="BackgroundImageFix"/>
<feColorMatrix in="SourceAlpha" type="matrix" values="0 0 0 0 0 0 0 0 0 0 0 0 0 0 0 0 0 0 127 0" result="hardAlpha"/>
<feOffset/>
<feGaussianBlur stdDeviation="7.5"/>
<feColorMatrix type="matrix" values="0 0 0 0 0 0 0 0 0 0 0 0 0 0 0 0 0 0 0.05 0"/>
<feBlend mode="normal" in2="BackgroundImageFix" result="effect1_dropShadow_220_10891"/>
<feColorMatrix in="SourceAlpha" type="matrix" values="0 0 0 0 0 0 0 0 0 0 0 0 0 0 0 0 0 0 127 0" result="hardAlpha"/>
<feOffset dy="4"/>
<feGaussianBlur stdDeviation="2"/>
<feColorMatrix type="matrix" values="0 0 0 0 0 0 0 0 0 0 0 0 0 0 0 0 0 0 0.05 0"/>
<feBlend mode="normal" in2="effect1_dropShadow_220_10891" result="effect2_dropShadow_220_10891"/>
<feBlend mode="normal" in="SourceGraphic" in2="effect2_dropShadow_220_10891" result="shape"/>
</filter>
<filter id="filter1_d_220_10891" x="428" y="6" width="128" height="128" filterUnits="userSpaceOnUse" color-interpolation-filters="sRGB">
<feFlood flood-opacity="0" result="BackgroundImageFix"/>
<feColorMatrix in="SourceAlpha" type="matrix" values="0 0 0 0 0 0 0 0 0 0 0 0 0 0 0 0 0 0 127 0" result="hardAlpha"/>
<feOffset dy="10"/>
<feGaussianBlur stdDeviation="6"/>
<feComposite in2="hardAlpha" operator="out"/>
<feColorMatrix type="matrix" values="0 0 0 0 0 0 0 0 0 0 0 0 0 0 0 0 0 0 0.1 0"/>
<feBlend mode="normal" in2="BackgroundImageFix" result="effect1_dropShadow_220_10891"/>
<feBlend mode="normal" in="SourceGraphic" in2="effect1_dropShadow_220_10891" result="shape"/>
</filter>
<filter id="filter2_d_220_10891" x="436.023" y="8.02344" width="121.976" height="121.976" filterUnits="userSpaceOnUse" color-interpolation-filters="sRGB">
<feFlood flood-opacity="0" result="BackgroundImageFix"/>
<feColorMatrix in="SourceAlpha" type="matrix" values="0 0 0 0 0 0 0 0 0 0 0 0 0 0 0 0 0 0 127 0" result="hardAlpha"/>
<feOffset dy="4"/>
<feGaussianBlur stdDeviation="7"/>
<feComposite in2="hardAlpha" operator="out"/>
<feColorMatrix type="matrix" values="0 0 0 0 0 0 0 0 0 0 0 0 0 0 0 0 0 0 0.08 0"/>
<feBlend mode="normal" in2="BackgroundImageFix" result="effect1_dropShadow_220_10891"/>
<feBlend mode="normal" in="SourceGraphic" in2="effect1_dropShadow_220_10891" result="shape"/>
</filter>
<linearGradient id="paint0_linear_220_10891" x1="543.999" y1="108.554" x2="453.156" y2="18.0234" gradientUnits="userSpaceOnUse">
<stop stop-color="#ED5502"/>
<stop offset="1" stop-color="#F47630"/>
</linearGradient>
</defs>
</svg>
