<svg width="248" height="32" viewBox="0 0 248 32" fill="none" xmlns="http://www.w3.org/2000/svg">
<rect x="2" y="2" width="28" height="28" rx="5" fill="#7B726F"/>
<path d="M11.6948 11.3335V12.8739C11.6948 12.8739 12.3394 13.0376 12.3394 13.6326V18.0002H13.6795V13.5886C13.6795 13.5886 13.8337 11.4321 11.6948 11.3335Z" fill="white"/>
<path d="M17.6572 13.3335C16.1929 13.3335 15.0068 14.5271 15.0068 16.0012C15.0068 17.4752 16.1929 18.6668 17.6572 18.6668C19.1216 18.6668 20.3058 17.4732 20.3058 16.0012C20.3058 14.5291 19.1197 13.3335 17.6572 13.3335ZM17.6572 17.0953C17.3919 17.0953 17.1374 16.98 16.9498 16.7748C16.7621 16.5696 16.6567 16.2913 16.6567 16.0012C16.6567 15.711 16.7621 15.4327 16.9498 15.2275C17.1374 15.0223 17.3919 14.907 17.6572 14.907C17.9226 14.907 18.177 15.0223 18.3647 15.2275C18.5523 15.4327 18.6577 15.711 18.6577 16.0012C18.6577 16.2913 18.5523 16.5696 18.3647 16.7748C18.177 16.98 17.9226 17.0953 17.6572 17.0953V17.0953Z" fill="white"/>
<path d="M8.88692 13.3839C8.88692 13.3839 7.77391 13.3723 7.37879 14.0655V11.3335C7.37879 11.3335 5.83542 11.3549 5.7334 11.3335V18.4721H7.37879V18.0573C7.55581 18.2509 7.76841 18.4047 8.00373 18.5095C8.23905 18.6142 8.49219 18.6678 8.74779 18.6668C8.74779 18.6668 11.0072 18.6006 11.0202 16.3048C11.0202 16.3048 11.3244 13.6235 8.88692 13.3839ZM8.37864 17.0837C8.25425 17.0837 8.13108 17.058 8.01618 17.0079C7.90127 16.9579 7.7969 16.8846 7.70903 16.7921C7.62115 16.6997 7.5515 16.59 7.50407 16.4693C7.45663 16.3486 7.43234 16.2192 7.43258 16.0887C7.43234 15.9581 7.45663 15.8287 7.50407 15.708C7.5515 15.5873 7.62115 15.4776 7.70903 15.3852C7.7969 15.2928 7.90127 15.2194 8.01618 15.1694C8.13108 15.1194 8.25425 15.0936 8.37864 15.0936C8.63004 15.0936 8.87115 15.1985 9.04892 15.3851C9.22668 15.5717 9.32656 15.8248 9.32656 16.0887C9.32607 16.3522 9.22598 16.6048 9.04827 16.791C8.87055 16.9772 8.62972 17.0818 8.37864 17.0818V17.0837Z" fill="white"/>
<path d="M24.6266 13.9584C24.4612 13.7491 24.2466 13.5831 24.0014 13.4748C23.7563 13.3665 23.488 13.3193 23.2201 13.3372C21.0147 13.4989 20.9683 15.5096 20.9683 15.5096V16.2448C20.9683 18.1838 22.9693 18.3253 22.9693 18.3253C24.3869 18.3253 24.5839 17.7023 24.5839 17.7023C24.595 19.2424 23.5843 19.1505 23.5843 19.1505H23.1551V20.6668H23.8871C26.2895 20.6668 26.2672 18.3253 26.2672 18.3253V13.464H24.6303L24.6266 13.9584ZM23.6976 16.8495C23.5664 16.8497 23.4365 16.8244 23.3152 16.7749C23.194 16.7254 23.0838 16.6527 22.9909 16.561C22.8981 16.4694 22.8244 16.3605 22.7742 16.2406C22.7239 16.1208 22.698 15.9923 22.698 15.8625C22.698 15.6003 22.8033 15.3488 22.9908 15.1633C23.1783 14.9779 23.4325 14.8737 23.6976 14.8737C23.8288 14.8737 23.9587 14.8993 24.0799 14.949C24.201 14.9987 24.3111 15.0716 24.4038 15.1634C24.4964 15.2553 24.5699 15.3643 24.6199 15.4842C24.67 15.6042 24.6956 15.7327 24.6953 15.8625C24.6956 15.9922 24.6699 16.1206 24.6199 16.2405C24.5698 16.3603 24.4964 16.4692 24.4037 16.5609C24.311 16.6526 24.2009 16.7253 24.0797 16.7748C23.9586 16.8243 23.8287 16.8497 23.6976 16.8495V16.8495Z" fill="white"/>
<rect x="38" y="2" width="28" height="28" rx="5" fill="#7B726F"/>
<path d="M55.2667 21.6001H48.7334L52.0001 24.4001L55.2667 21.6001Z" fill="white"/>
<path d="M57.5999 7.6001H46.3999V18.8001H57.5999V7.6001Z" fill="white"/>
<path d="M49.1997 15.9999V10.3999H51.0897L52.9797 13.1999V10.3999H54.7997V15.9999H52.9097L51.0197 13.1999V15.9999H49.1997Z" fill="#7B726F"/>
<path d="M57.5999 19.2666H46.3999L48.2666 21.1333H55.7332L57.5999 19.2666Z" fill="white"/>
<rect x="74" y="2" width="28" height="28" rx="5" fill="#7B726F"/>
<path d="M86.3874 14.4874C86.3874 15.0798 86.3874 15.6722 86.3874 16.2646C86.3072 16.3388 86.2054 16.3301 86.1079 16.3305C85.0333 16.3305 83.9574 16.3305 82.88 16.3305C82.8376 16.3305 82.7952 16.3305 82.7528 16.3259C82.469 16.3023 82.4406 16.2663 82.4334 15.9887C82.4257 15.695 82.4639 15.4 82.4126 15.1076C82.4126 14.7905 82.4126 14.4737 82.4126 14.1572C82.427 14.1572 82.4508 14.1572 82.4525 14.1626C82.5309 14.4066 82.7333 14.383 82.9318 14.3826C83.9447 14.3801 84.9576 14.3801 85.9704 14.3826C86.1206 14.383 86.2716 14.3677 86.3874 14.4874Z" fill="white"/>
<path d="M82.4139 15.1079C82.5063 15.3329 82.4486 15.5673 82.4537 15.7968C82.4639 16.265 82.4567 16.265 82.9411 16.265H86.3878V17.794C86.3348 17.8452 86.269 17.8818 86.1969 17.9002C86.1248 17.9186 86.0491 17.9181 85.9772 17.8988C85.8114 17.8664 85.6424 17.8525 85.4733 17.8574H82.9173C82.8325 17.8574 82.7477 17.8574 82.6629 17.8508C82.5051 17.8375 82.4253 17.7679 82.4317 17.5997C82.4431 17.3044 82.4364 17.0082 82.4338 16.7128C82.4338 16.6453 82.4537 16.5748 82.4126 16.5114L82.4139 15.1079Z" fill="white"/>
<path d="M82.4136 16.5132C82.5031 16.6673 82.445 16.8342 82.4539 16.9946C82.4645 17.1868 82.4645 17.3794 82.4539 17.5716C82.445 17.7349 82.5192 17.7958 82.6757 17.7949C82.9853 17.7949 83.295 17.7949 83.6046 17.7949C84.3011 17.7949 84.9976 17.792 85.6944 17.7949C85.9256 17.7949 86.1568 17.8923 86.3875 17.7949C86.4575 18.0219 86.2645 18.0741 86.1279 18.1541C85.4612 18.5423 84.8262 18.9872 84.0737 19.2229C83.8218 19.3016 83.5732 19.2739 83.3221 19.2817C83.1041 19.2888 82.8852 19.2776 82.6672 19.2855C82.5145 19.2908 82.4488 19.2386 82.453 19.0837C82.4556 18.9855 82.4954 18.8766 82.4136 18.7875V16.5132Z" fill="white"/>
<path d="M86.3872 14.4873C86.1946 14.4342 85.9974 14.4458 85.801 14.4458H82.884C82.5222 14.4458 82.5222 14.4458 82.4141 14.1558V12.8745C82.5604 12.9251 82.5125 13.0522 82.5201 13.1508C82.5294 13.2726 82.5731 13.3459 82.7076 13.3451C83.5559 13.3406 84.4042 13.37 85.2496 13.329L86.3218 13.9574C86.4135 14.0113 86.3893 14.0995 86.3906 14.1786C86.3923 14.2826 86.3884 14.3849 86.3872 14.4873Z" fill="white"/>
<path d="M85.2496 13.3305C85.2097 13.4175 85.1308 13.4133 85.0519 13.4133C84.257 13.4133 83.4617 13.4108 82.6669 13.4133C82.5142 13.4133 82.451 13.3653 82.4527 13.2112C82.4527 13.0993 82.4993 12.9775 82.4141 12.8739V11.4688C82.5159 11.4766 82.5027 11.5586 82.512 11.6208C82.5196 11.6955 82.5215 11.7707 82.5176 11.8457C82.5176 12.1962 82.5176 12.1979 82.8705 12.2289C83.0569 12.241 83.2441 12.2355 83.4295 12.2128C83.9823 12.5539 84.5351 12.8947 85.088 13.2352C85.141 13.2692 85.1957 13.2994 85.2496 13.3305Z" fill="white"/>
<path d="M83.4295 12.2151C83.1351 12.3883 82.8276 12.2665 82.526 12.2483C82.4387 12.2429 82.4633 12.1567 82.4565 12.0983C82.4323 11.8912 82.5074 11.6749 82.4141 11.4711C82.4141 11.2778 82.4141 11.0844 82.4141 10.8911C82.5523 11.1732 82.6215 11.4893 82.8437 11.7292C83.0168 11.9168 83.1805 12.1153 83.4295 12.2151Z" fill="white"/>
<path d="M94.4543 14.2913C94.0584 14.0532 93.6625 13.8143 93.2667 13.5746C90.6784 11.9979 88.0911 10.4212 85.5045 8.84452C84.7835 8.40581 83.8902 8.43025 83.2213 8.92116C82.5524 9.41207 82.3365 10.0993 82.4154 10.8914C82.5223 11.502 82.8658 11.9507 83.4032 12.266C83.4802 12.2994 83.554 12.3393 83.6238 12.3853C84.1786 12.6964 84.6897 13.075 85.2471 13.3795C85.4774 13.4976 85.6793 13.6695 85.9164 13.7681C86.2943 13.9243 86.4059 14.1844 86.3304 14.5552C86.3253 15.1252 86.324 15.6961 86.3304 16.2669C86.3219 16.7599 86.3253 17.2529 86.3304 17.7463C86.3516 17.8917 86.2935 17.9853 86.1641 18.0682C85.7399 18.3391 85.3009 18.5843 84.8628 18.8292C84.5235 19.0202 84.1616 19.1913 83.76 19.2203C83.4172 19.2451 83.0716 19.2232 82.7276 19.2269C82.5783 19.2269 82.5112 19.1714 82.5091 19.0197C82.5091 18.9369 82.5566 18.8188 82.4128 18.7857C82.4094 19.6739 82.4031 20.5621 82.4039 21.4502C82.4039 22.2241 82.7433 22.8273 83.4338 23.2026C84.1379 23.5854 84.853 23.5435 85.5389 23.1264C88.5106 21.3185 91.4819 19.5105 94.453 17.7024C95.8027 16.8834 95.8057 15.1053 94.4543 14.2913ZM86.4415 17.9505V14.044L89.6465 15.996L86.4415 17.9505Z" fill="white"/>
<rect x="110" y="2" width="28" height="28" rx="5" fill="#7B726F"/>
<path d="M121.593 30.0001H125.948V20.1271H129.981L130.4 16.4022C130.4 16.4022 130.487 16.2191 130.047 16.2191H125.948V13.4074C125.948 13.4074 125.767 11.2826 128.126 11.2826H130.533V7.99165C130.533 7.99165 129.497 7.58028 126.989 7.60084C125.522 7.64764 124.123 8.16511 123.046 9.05916C123.046 9.05916 121.593 10.2316 121.593 11.5562V16.2191H117.466V20.1271H121.593V30.0001Z" fill="white"/>
<rect x="146" y="2" width="28" height="28" rx="5" fill="#7B726F"/>
<path d="M163.752 7.60013H156.244C156.125 7.5996 156.006 7.62292 155.896 7.66875C155.785 7.71458 155.685 7.78201 155.6 7.86718C155.516 7.95235 155.448 8.05358 155.403 8.16506C155.357 8.27654 155.333 8.39606 155.333 8.51678V16.0437C155.334 16.2872 155.431 16.5203 155.601 16.6921C155.772 16.8639 156.003 16.9604 156.244 16.9604H159.708C159.636 17.9375 159.316 18.8793 158.777 19.6941C158.234 20.4606 157.595 21.1528 156.875 21.7536C156.823 21.7992 156.78 21.8554 156.75 21.9187C156.719 21.9819 156.702 22.0508 156.7 22.121C156.708 22.2359 156.753 22.345 156.828 22.4319L159.245 25.1657C159.304 25.2307 159.376 25.2817 159.457 25.3151C159.509 25.3318 159.565 25.3372 159.62 25.3309C159.675 25.3246 159.728 25.3069 159.776 25.2788C161.253 24.1687 162.46 22.7339 163.307 21.083C164.154 19.4321 164.619 17.6081 164.667 15.7489V8.51678C164.667 8.39572 164.643 8.27586 164.597 8.16412C164.551 8.05237 164.483 7.95097 164.398 7.86574C164.313 7.78052 164.212 7.71317 164.101 7.66758C163.99 7.62199 163.871 7.59907 163.752 7.60013Z" fill="white"/>
<rect x="182" y="2" width="28" height="28" rx="5" fill="#7B726F"/>
<path d="M190.764 21.4086C189.257 20.5437 188.132 18.8597 187.777 17.1856C187.226 14.5771 187.966 11.8111 189.93 9.97809C191.45 8.55937 193.534 7.71657 195.603 7.61169C197.84 7.49812 200.057 8.22082 201.742 9.70316C203.559 11.3022 204.59 13.582 204.371 16.0247C204.097 19.0738 201.979 21.3875 199.214 22.5015C199.214 22.5015 197.706 23.4243 194.229 22.9871L191.092 25.2939C191.059 25.3173 191.019 25.3309 190.979 25.3331C190.938 25.3353 190.897 25.3262 190.861 25.3066C190.678 25.2117 190.745 24.8691 190.746 24.6956L190.751 23.7681L190.762 21.8098C190.762 21.7744 190.794 21.4259 190.764 21.4086Z" fill="white"/>
<path d="M190.509 13.3136H191.53V11.5166H193.483V13.3136H195.072V15.0944H193.475V17.2802H195.072V19.1014H193.376C193.055 19.1014 192.781 19.0667 192.491 18.9152C192.118 18.7172 191.819 18.4044 191.638 18.0231C191.466 17.6653 191.53 17.212 191.53 16.8228V15.0864H190.509V13.3136Z" fill="#7B726F"/>
<path d="M195.696 13.2974H197.697L198.694 16.6974H198.905L199.942 13.2974H201.928L200.088 19.1017H197.527L195.696 13.2974Z" fill="#7B726F"/>
<rect x="218" y="2" width="28" height="28" rx="5" fill="#7B726F"/>
<path d="M228.64 8H235.36C237.92 8 240 10.08 240 12.64V19.36C240 20.5906 239.511 21.7708 238.641 22.641C237.771 23.5111 236.591 24 235.36 24H228.64C226.08 24 224 21.92 224 19.36V12.64C224 11.4094 224.489 10.2292 225.359 9.35902C226.229 8.48886 227.409 8 228.64 8ZM228.48 9.6C227.716 9.6 226.984 9.90343 226.444 10.4435C225.903 10.9836 225.6 11.7162 225.6 12.48V19.52C225.6 21.112 226.888 22.4 228.48 22.4H235.52C236.284 22.4 237.016 22.0966 237.556 21.5565C238.097 21.0164 238.4 20.2838 238.4 19.52V12.48C238.4 10.888 237.112 9.6 235.52 9.6H228.48ZM236.2 10.8C236.465 10.8 236.72 10.9054 236.907 11.0929C237.095 11.2804 237.2 11.5348 237.2 11.8C237.2 12.0652 237.095 12.3196 236.907 12.5071C236.72 12.6946 236.465 12.8 236.2 12.8C235.935 12.8 235.68 12.6946 235.493 12.5071C235.305 12.3196 235.2 12.0652 235.2 11.8C235.2 11.5348 235.305 11.2804 235.493 11.0929C235.68 10.9054 235.935 10.8 236.2 10.8ZM232 12C233.061 12 234.078 12.4214 234.828 13.1716C235.579 13.9217 236 14.9391 236 16C236 17.0609 235.579 18.0783 234.828 18.8284C234.078 19.5786 233.061 20 232 20C230.939 20 229.922 19.5786 229.172 18.8284C228.421 18.0783 228 17.0609 228 16C228 14.9391 228.421 13.9217 229.172 13.1716C229.922 12.4214 230.939 12 232 12ZM232 13.6C231.363 13.6 230.753 13.8529 230.303 14.3029C229.853 14.753 229.6 15.3635 229.6 16C229.6 16.6365 229.853 17.247 230.303 17.6971C230.753 18.1471 231.363 18.4 232 18.4C232.637 18.4 233.247 18.1471 233.697 17.6971C234.147 17.247 234.4 16.6365 234.4 16C234.4 15.3635 234.147 14.753 233.697 14.3029C233.247 13.8529 232.637 13.6 232 13.6Z" fill="white"/>
</svg>
