<svg width="480" height="640" viewBox="0 0 480 640" fill="none" xmlns="http://www.w3.org/2000/svg">
<path d="M28.4998 180C30.4328 180 31.9998 178.433 31.9998 176.5C31.9998 174.567 30.4328 173 28.4998 173C26.5668 173 24.9998 174.567 24.9998 176.5C24.9998 178.433 26.5668 180 28.4998 180Z" fill="#D5CDCB" stroke="#D5CDCB" stroke-width="1.2" stroke-linecap="round" stroke-linejoin="round"/>
<path d="M16.4998 187C18.4328 187 19.9998 185.433 19.9998 183.5C19.9998 181.567 18.4328 180 16.4998 180C14.5668 180 12.9998 181.567 12.9998 183.5C12.9998 185.433 14.5668 187 16.4998 187Z" fill="#D5CDCB" stroke="#D5CDCB" stroke-width="1.2" stroke-linecap="round" stroke-linejoin="round"/>
<path d="M29.4998 195C31.4328 195 32.9998 193.433 32.9998 191.5C32.9998 189.567 31.4328 188 29.4998 188C27.5668 188 25.9998 189.567 25.9998 191.5C25.9998 193.433 27.5668 195 29.4998 195Z" fill="#D5CDCB" stroke="#D5CDCB" stroke-width="1.2" stroke-linecap="round" stroke-linejoin="round"/>
<path d="M16.5 183.5L29.5 191.5" stroke="#D5CDCB" stroke-width="1.4" stroke-linecap="round" stroke-linejoin="round"/>
<path d="M16.5 183.5L28.5 176.5" stroke="#D5CDCB" stroke-width="1.4" stroke-linecap="round" stroke-linejoin="round"/>
<path d="M68.4998 180C70.4328 180 71.9998 178.433 71.9998 176.5C71.9998 174.567 70.4328 173 68.4998 173C66.5668 173 64.9998 174.567 64.9998 176.5C64.9998 178.433 66.5668 180 68.4998 180Z" fill="#3A3736" stroke="#3A3736" stroke-width="1.2" stroke-linecap="round" stroke-linejoin="round"/>
<path d="M56.4998 187C58.4328 187 59.9998 185.433 59.9998 183.5C59.9998 181.567 58.4328 180 56.4998 180C54.5668 180 52.9998 181.567 52.9998 183.5C52.9998 185.433 54.5668 187 56.4998 187Z" fill="#3A3736" stroke="#3A3736" stroke-width="1.2" stroke-linecap="round" stroke-linejoin="round"/>
<path d="M69.4998 195C71.4328 195 72.9998 193.433 72.9998 191.5C72.9998 189.567 71.4328 188 69.4998 188C67.5668 188 65.9998 189.567 65.9998 191.5C65.9998 193.433 67.5668 195 69.4998 195Z" fill="#3A3736" stroke="#3A3736" stroke-width="1.2" stroke-linecap="round" stroke-linejoin="round"/>
<path d="M56.5 183.5L69.5 191.5" stroke="#3A3736" stroke-width="1.4" stroke-linecap="round" stroke-linejoin="round"/>
<path d="M56.5 183.5L68.5 176.5" stroke="#3A3736" stroke-width="1.4" stroke-linecap="round" stroke-linejoin="round"/>
<path d="M108.5 180C110.433 180 112 178.433 112 176.5C112 174.567 110.433 173 108.5 173C106.567 173 105 174.567 105 176.5C105 178.433 106.567 180 108.5 180Z" fill="white" stroke="white" stroke-width="1.2" stroke-linecap="round" stroke-linejoin="round"/>
<path d="M96.4998 187C98.4328 187 99.9998 185.433 99.9998 183.5C99.9998 181.567 98.4328 180 96.4998 180C94.5668 180 92.9998 181.567 92.9998 183.5C92.9998 185.433 94.5668 187 96.4998 187Z" fill="white" stroke="white" stroke-width="1.2" stroke-linecap="round" stroke-linejoin="round"/>
<path d="M109.5 195C111.433 195 113 193.433 113 191.5C113 189.567 111.433 188 109.5 188C107.567 188 106 189.567 106 191.5C106 193.433 107.567 195 109.5 195Z" fill="white" stroke="white" stroke-width="1.2" stroke-linecap="round" stroke-linejoin="round"/>
<path d="M96.5 183.5L109.5 191.5" stroke="white" stroke-width="1.4" stroke-linecap="round" stroke-linejoin="round"/>
<path d="M96.5 183.5L108.5 176.5" stroke="white" stroke-width="1.4" stroke-linecap="round" stroke-linejoin="round"/>
<path d="M90.9996 224.482V226.589C91.0004 226.785 90.9602 226.979 90.8817 227.158C90.8031 227.337 90.6879 227.498 90.5435 227.63C90.399 227.763 90.2285 227.863 90.0428 227.926C89.8571 227.989 89.6603 228.012 89.465 227.994C87.299 227.759 85.2183 227.021 83.3902 225.838C81.6895 224.759 80.2475 223.32 79.1667 221.622C77.9771 219.79 77.2368 217.703 77.0057 215.532C76.9881 215.337 77.0113 215.141 77.0736 214.957C77.136 214.772 77.2363 214.602 77.3681 214.458C77.4998 214.314 77.6602 214.199 77.839 214.12C78.0178 214.041 78.2111 214 78.4065 214H80.5183C80.8599 213.997 81.1911 214.117 81.4501 214.34C81.7091 214.562 81.8783 214.871 81.9261 215.208C82.0152 215.883 82.1805 216.545 82.4188 217.182C82.5135 217.434 82.534 217.707 82.4779 217.97C82.4218 218.233 82.2913 218.474 82.1021 218.665L81.2081 219.557C82.2102 221.316 83.6693 222.772 85.4316 223.772L86.3256 222.88C86.517 222.691 86.7586 222.561 87.0218 222.505C87.2851 222.449 87.5589 222.469 87.8108 222.564C88.4495 222.802 89.113 222.967 89.7888 223.056C90.1308 223.104 90.4431 223.276 90.6663 223.539C90.8895 223.801 91.0081 224.137 90.9996 224.482Z" stroke="#F47630" stroke-width="1.2" stroke-linecap="round" stroke-linejoin="round"/>
<path d="M123 224.482V226.589C123 226.785 122.96 226.979 122.882 227.158C122.803 227.337 122.688 227.498 122.543 227.63C122.399 227.763 122.228 227.863 122.043 227.926C121.857 227.989 121.66 228.012 121.465 227.994C119.299 227.759 117.218 227.021 115.39 225.838C113.689 224.759 112.247 223.32 111.167 221.622C109.977 219.79 109.237 217.703 109.006 215.532C108.988 215.337 109.011 215.141 109.074 214.957C109.136 214.772 109.236 214.602 109.368 214.458C109.5 214.314 109.66 214.199 109.839 214.12C110.018 214.041 110.211 214 110.407 214H112.518C112.86 213.997 113.191 214.117 113.45 214.34C113.709 214.562 113.878 214.871 113.926 215.208C114.015 215.883 114.181 216.545 114.419 217.182C114.514 217.434 114.534 217.707 114.478 217.97C114.422 218.233 114.291 218.474 114.102 218.665L113.208 219.557C114.21 221.316 115.669 222.772 117.432 223.772L118.326 222.88C118.517 222.691 118.759 222.561 119.022 222.505C119.285 222.449 119.559 222.469 119.811 222.564C120.449 222.802 121.113 222.967 121.789 223.056C122.131 223.104 122.443 223.276 122.666 223.539C122.89 223.801 123.008 224.137 123 224.482Z" stroke="white" stroke-width="1.2" stroke-linecap="round" stroke-linejoin="round"/>
<path d="M48.0953 215.09L48.4546 215.57L48.4546 215.57L48.0953 215.09ZM55.9047 215.09L55.5454 215.57L55.5454 215.57L55.9047 215.09ZM56.9047 215.838L57.264 215.357L57.264 215.357L56.9047 215.838ZM47.0953 215.838L46.736 215.357L46.736 215.357L47.0953 215.838ZM58.4 219.812V223.511H59.6V219.812H58.4ZM55 226.4H49V227.6H55V226.4ZM45.6 223.511V219.812H44.4V223.511H45.6ZM47.4546 216.318L48.4546 215.57L47.736 214.609L46.736 215.357L47.4546 216.318ZM55.5454 215.57L56.5455 216.318L57.264 215.357L56.264 214.609L55.5454 215.57ZM48.4546 215.57C49.3978 214.865 50.0635 214.369 50.6297 214.042C51.1806 213.725 51.5864 213.6 52 213.6V212.4C51.3039 212.4 50.6889 212.623 50.0307 213.003C49.3878 213.373 48.656 213.921 47.736 214.609L48.4546 215.57ZM56.264 214.609C55.344 213.921 54.6122 213.373 53.9693 213.003C53.3111 212.623 52.6961 212.4 52 212.4V213.6C52.4136 213.6 52.8194 213.725 53.3703 214.042C53.9365 214.369 54.6022 214.865 55.5454 215.57L56.264 214.609ZM49 226.4C48.0423 226.4 47.3768 226.399 46.8753 226.34C46.3837 226.283 46.1416 226.178 45.9802 226.037L45.1914 226.941C45.6158 227.311 46.138 227.462 46.7356 227.532C47.3233 227.601 48.072 227.6 49 227.6V226.4ZM44.4 223.511C44.4 224.314 44.3983 224.985 44.4802 225.516C44.5662 226.074 44.7551 226.561 45.1914 226.941L45.9802 226.037C45.8307 225.906 45.7267 225.726 45.6662 225.334C45.6017 224.915 45.6 224.352 45.6 223.511H44.4ZM58.4 223.511C58.4 224.352 58.3983 224.915 58.3338 225.334C58.2733 225.726 58.1693 225.906 58.0198 226.037L58.8086 226.941C59.2449 226.561 59.4338 226.074 59.5198 225.516C59.6017 224.985 59.6 224.314 59.6 223.511H58.4ZM55 227.6C55.928 227.6 56.6767 227.601 57.2644 227.532C57.862 227.462 58.3842 227.311 58.8086 226.941L58.0198 226.037C57.8584 226.178 57.6163 226.283 57.1247 226.34C56.6232 226.399 55.9577 226.4 55 226.4V227.6ZM59.6 219.812C59.6 218.687 59.6159 217.917 59.2563 217.235L58.1948 217.794C58.3841 218.153 58.4 218.567 58.4 219.812H59.6ZM56.5455 216.318C57.0686 216.709 57.4322 216.982 57.7017 217.22C57.9644 217.451 58.1042 217.622 58.1948 217.794L59.2563 217.235C59.0724 216.886 58.8173 216.604 58.4959 216.32C58.1813 216.042 57.7718 215.737 57.264 215.357L56.5455 216.318ZM45.6 219.812C45.6 218.567 45.6159 218.153 45.8052 217.794L44.7437 217.235C44.3841 217.917 44.4 218.687 44.4 219.812H45.6ZM46.736 215.357C46.2282 215.737 45.8187 216.042 45.5041 216.32C45.1827 216.604 44.9276 216.886 44.7437 217.235L45.8052 217.794C45.8958 217.622 46.0356 217.451 46.2983 217.22C46.5678 216.982 46.9314 216.709 47.4546 216.318L46.736 215.357Z" fill="#3A3736"/>
<path d="M55 227V222C55 221.448 54.5523 221 54 221H50C49.4477 221 49 221.448 49 222V227" stroke="#3A3736" stroke-width="1.2" stroke-linecap="round" stroke-linejoin="round"/>
<path d="M144 217.556L148 222M148 222L152 217.556M148 222L148 213" stroke="#3A3736" stroke-width="1.2" stroke-linecap="round" stroke-linejoin="round"/>
<path d="M141 223L141 224C141 225.105 141.895 226 143 226L153 226C154.105 226 155 225.105 155 224V223" stroke="#3A3736" stroke-width="1.2" stroke-linecap="round" stroke-linejoin="round"/>
<path d="M135.786 27.1765C137.799 28.1991 139 29.4901 139 30.8935C139 34.2117 132.284 36 124 36C115.716 36 109 34.2117 109 30.8935C109 29.4901 110.201 28.1991 112.214 27.1765" stroke="white" stroke-width="1.4" stroke-linecap="round"/>
<path d="M117.392 30.6202C116.895 30.6202 116.448 30.5 116.058 30.2595C115.659 30.019 115.348 29.6983 115.114 29.2875C114.88 28.8767 114.764 28.4257 114.764 27.9347H116.175C116.175 28.1552 116.224 28.3656 116.331 28.546C116.438 28.7263 116.574 28.8767 116.759 28.9869C116.944 29.0971 117.148 29.1572 117.382 29.1572C117.596 29.1572 117.8 29.1071 117.985 28.9869C118.17 28.8767 118.316 28.7263 118.433 28.546C118.55 28.3656 118.599 28.1552 118.599 27.9347C118.599 27.6441 118.521 27.3936 118.375 27.2032C118.219 27.0128 118.015 26.8625 117.742 26.7623C117.47 26.6621 117.158 26.622 116.798 26.622V25.4897C117.285 25.4897 117.664 25.3995 117.946 25.2091C118.229 25.0187 118.375 24.7482 118.375 24.3774C118.375 24.187 118.326 24.0167 118.238 23.8564C118.141 23.696 118.024 23.5758 117.869 23.4756C117.713 23.3854 117.547 23.3353 117.362 23.3353C117.178 23.3353 116.993 23.3854 116.817 23.4756C116.642 23.5658 116.496 23.696 116.389 23.8564C116.282 24.0167 116.224 24.187 116.224 24.3774H114.793C114.793 24.0367 114.861 23.7061 114.997 23.4054C115.134 23.1048 115.318 22.8343 115.562 22.6138C115.805 22.3934 116.068 22.203 116.379 22.0727C116.691 21.9424 117.002 21.8823 117.343 21.8823C117.781 21.8823 118.19 21.9926 118.56 22.223C118.929 22.4435 119.231 22.7441 119.455 23.1249C119.679 23.5057 119.796 23.9265 119.796 24.3875C119.796 24.7081 119.718 25.0288 119.572 25.3394C119.426 25.65 119.212 25.8705 118.939 26.0008C119.173 26.0909 119.377 26.2312 119.533 26.4417C119.689 26.6521 119.815 26.8826 119.903 27.1431C119.99 27.4036 120.029 27.6642 120.029 27.9347C120.029 28.4257 119.913 28.8767 119.669 29.2875C119.426 29.6983 119.105 30.019 118.706 30.2595C118.307 30.5 117.869 30.6202 117.392 30.6202Z" fill="white" stroke="white" stroke-width="0.1" stroke-linejoin="round"/>
<path d="M123.747 30.696C123.221 30.696 122.744 30.5657 122.306 30.2952C121.868 30.0246 121.518 29.6639 121.265 29.223C121.002 28.772 120.875 28.281 120.875 27.7299C120.875 27.4493 120.905 27.1888 120.973 26.9483C121.041 26.7078 121.138 26.4673 121.274 26.2168L123.562 22.1284H125.216L123.679 24.864C123.99 24.844 124.301 24.864 124.593 24.9442C124.885 25.0244 125.158 25.1546 125.401 25.325C125.654 25.4953 125.868 25.7057 126.053 25.9462C126.238 26.1867 126.384 26.4673 126.491 26.7679C126.598 27.0685 126.647 27.3892 126.647 27.7299C126.647 28.1407 126.569 28.5215 126.423 28.8823C126.277 29.243 126.063 29.5536 125.8 29.8342C125.538 30.1148 125.226 30.3252 124.876 30.4755C124.525 30.6258 124.146 30.706 123.747 30.706V30.696ZM123.747 29.233C124.029 29.233 124.282 29.1628 124.506 29.0225C124.73 28.8823 124.905 28.6919 125.031 28.4614C125.158 28.2309 125.226 27.9904 125.226 27.7299C125.226 27.4493 125.158 27.1988 125.031 26.9683C124.905 26.7379 124.73 26.5575 124.506 26.4172C124.282 26.2769 124.039 26.2168 123.766 26.2168C123.494 26.2168 123.231 26.2869 123.007 26.4272C122.783 26.5675 122.618 26.7579 122.491 26.9884C122.365 27.2188 122.306 27.4593 122.306 27.7299C122.306 28.0105 122.374 28.271 122.511 28.4915C122.647 28.7119 122.822 28.8923 123.046 29.0225C123.27 29.1528 123.503 29.223 123.756 29.223L123.747 29.233Z" fill="white" stroke="white" stroke-width="0.1" stroke-linejoin="round"/>
<path d="M130.261 30.6202C129.784 30.6202 129.356 30.51 128.967 30.2795C128.577 30.0491 128.237 29.7384 127.964 29.3376C127.682 28.9368 127.468 28.4758 127.312 27.9447C127.156 27.4137 127.088 26.8525 127.088 26.2513C127.088 25.65 127.166 25.0889 127.312 24.5578C127.468 24.0267 127.682 23.5658 127.964 23.165C128.246 22.7641 128.577 22.4535 128.967 22.223C129.356 21.9926 129.784 21.8823 130.261 21.8823C130.738 21.8823 131.166 21.9926 131.556 22.223C131.945 22.4535 132.276 22.7641 132.558 23.165C132.84 23.5658 133.055 24.0267 133.21 24.5578C133.366 25.0889 133.444 25.65 133.444 26.2513C133.444 26.8525 133.366 27.4137 133.21 27.9447C133.055 28.4758 132.84 28.9368 132.558 29.3376C132.276 29.7384 131.945 30.0491 131.556 30.2795C131.166 30.51 130.738 30.6202 130.261 30.6202ZM130.261 29.1572C130.68 29.1572 131.02 29.0169 131.293 28.7464C131.565 28.4758 131.77 28.1151 131.896 27.6742C132.033 27.2333 132.091 26.7623 132.091 26.2513C132.091 25.7202 132.023 25.2292 131.877 24.7983C131.731 24.3674 131.526 24.0067 131.254 23.7461C130.981 23.4856 130.641 23.3553 130.242 23.3553C129.93 23.3553 129.658 23.4355 129.424 23.5958C129.191 23.7562 128.996 23.9666 128.85 24.2472C128.694 24.5177 128.587 24.8284 128.509 25.1791C128.431 25.5298 128.402 25.8905 128.402 26.2613C128.402 26.7623 128.47 27.2333 128.607 27.6742C128.743 28.1151 128.947 28.4758 129.22 28.7464C129.492 29.0169 129.843 29.1572 130.251 29.1572H130.261Z" fill="white" stroke="white" stroke-width="0.1" stroke-linejoin="round"/>
<circle r="0.833165" transform="matrix(1 0 0 -1 134.539 21.8331)" stroke="white"/>
<path d="M181 176L189 184L181 192" stroke="#3A3736" stroke-width="1.4" stroke-linecap="round" stroke-linejoin="round"/>
<path d="M147 192L139 184L147 176" stroke="#3A3736" stroke-width="1.4" stroke-linecap="round" stroke-linejoin="round"/>
<path d="M28 39C34.0751 39 39 34.0751 39 28C39 21.9249 34.0751 17 28 17C21.9249 17 17 21.9249 17 28C17 34.0751 21.9249 39 28 39Z" stroke="white" stroke-width="1.4" stroke-linecap="round" stroke-linejoin="round"/>
<path d="M26 24L32 28L26 32V24Z" stroke="white" stroke-width="1.4" stroke-linecap="round" stroke-linejoin="round"/>
<path d="M76 39C82.0751 39 87 34.0751 87 28C87 21.9249 82.0751 17 76 17C69.9249 17 65 21.9249 65 28C65 34.0751 69.9249 39 76 39Z" stroke="#3A3736" stroke-width="1.4" stroke-linecap="round" stroke-linejoin="round"/>
<path d="M74 24L80 28L74 32V24Z" stroke="#3A3736" stroke-width="1.4" stroke-linecap="round" stroke-linejoin="round"/>
<path d="M20 228C24.4183 228 28 224.418 28 220C28 215.582 24.4183 212 20 212C15.5817 212 12 215.582 12 220C12 224.418 15.5817 228 20 228Z" stroke="#3A3736" stroke-width="1.2" stroke-linecap="round" stroke-linejoin="round"/>
<path d="M20 224V220" stroke="#3A3736" stroke-width="1.4" stroke-linecap="round" stroke-linejoin="round"/>
<path d="M20 217H20.01" stroke="#3A3736" stroke-width="1.6" stroke-linecap="round" stroke-linejoin="round"/>
<path d="M218.401 189.599L221.198 189.599M218.401 189.599V186.802M218.401 189.599L229.599 178.401M229.599 178.401L226.802 178.396M229.599 178.401L229.599 181.198" stroke="#3A3736" stroke-width="1.2" stroke-linecap="round" stroke-linejoin="round"/>
<path d="M229.599 189.599L226.802 189.599M229.599 189.599L229.604 186.802M229.599 189.599L218.401 178.401M218.401 178.401L221.198 178.401M218.401 178.401L218.401 181.198" stroke="#3A3736" stroke-width="1.2" stroke-linecap="round" stroke-linejoin="round"/>
<path d="M304 178V190" stroke="#3A3736" stroke-width="1.4" stroke-linecap="round" stroke-linejoin="round"/>
<path d="M298 184H310" stroke="#3A3736" stroke-width="1.4" stroke-linecap="round" stroke-linejoin="round"/>
<path d="M338 184H350" stroke="#3A3736" stroke-width="1.4" stroke-linecap="round" stroke-linejoin="round"/>
<path d="M183.786 27.1765C185.799 28.1991 187 29.4901 187 30.8935C187 34.2117 180.284 36 172 36C163.716 36 157 34.2117 157 30.8935C157 29.4901 158.201 28.1991 160.214 27.1765" stroke="#3A3736" stroke-width="1.4" stroke-linecap="round"/>
<path d="M165.392 30.6202C164.895 30.6202 164.448 30.5 164.058 30.2595C163.659 30.019 163.348 29.6983 163.114 29.2875C162.88 28.8767 162.764 28.4257 162.764 27.9347H164.175C164.175 28.1552 164.224 28.3656 164.331 28.546C164.438 28.7263 164.574 28.8767 164.759 28.9869C164.944 29.0971 165.148 29.1572 165.382 29.1572C165.596 29.1572 165.8 29.1071 165.985 28.9869C166.17 28.8767 166.316 28.7263 166.433 28.546C166.55 28.3656 166.599 28.1552 166.599 27.9347C166.599 27.6441 166.521 27.3936 166.375 27.2032C166.219 27.0128 166.015 26.8625 165.742 26.7623C165.47 26.6621 165.158 26.622 164.798 26.622V25.4897C165.285 25.4897 165.664 25.3995 165.946 25.2091C166.229 25.0187 166.375 24.7482 166.375 24.3774C166.375 24.187 166.326 24.0167 166.238 23.8564C166.141 23.696 166.024 23.5758 165.869 23.4756C165.713 23.3854 165.547 23.3353 165.362 23.3353C165.178 23.3353 164.993 23.3854 164.817 23.4756C164.642 23.5658 164.496 23.696 164.389 23.8564C164.282 24.0167 164.224 24.187 164.224 24.3774H162.793C162.793 24.0367 162.861 23.7061 162.997 23.4054C163.134 23.1048 163.318 22.8343 163.562 22.6138C163.805 22.3934 164.068 22.203 164.379 22.0727C164.691 21.9424 165.002 21.8823 165.343 21.8823C165.781 21.8823 166.19 21.9926 166.56 22.223C166.929 22.4435 167.231 22.7441 167.455 23.1249C167.679 23.5057 167.796 23.9265 167.796 24.3875C167.796 24.7081 167.718 25.0288 167.572 25.3394C167.426 25.65 167.212 25.8705 166.939 26.0008C167.173 26.0909 167.377 26.2312 167.533 26.4417C167.689 26.6521 167.815 26.8826 167.903 27.1431C167.99 27.4036 168.029 27.6642 168.029 27.9347C168.029 28.4257 167.913 28.8767 167.669 29.2875C167.426 29.6983 167.105 30.019 166.706 30.2595C166.307 30.5 165.869 30.6202 165.392 30.6202Z" fill="#3A3736" stroke="#3A3736" stroke-width="0.1" stroke-linejoin="round"/>
<path d="M171.747 30.696C171.221 30.696 170.744 30.5657 170.306 30.2952C169.868 30.0246 169.518 29.6639 169.265 29.223C169.002 28.772 168.875 28.281 168.875 27.7299C168.875 27.4493 168.905 27.1888 168.973 26.9483C169.041 26.7078 169.138 26.4673 169.274 26.2168L171.562 22.1284H173.216L171.679 24.864C171.99 24.844 172.301 24.864 172.593 24.9442C172.885 25.0244 173.158 25.1546 173.401 25.325C173.654 25.4953 173.868 25.7057 174.053 25.9462C174.238 26.1867 174.384 26.4673 174.491 26.7679C174.598 27.0685 174.647 27.3892 174.647 27.7299C174.647 28.1407 174.569 28.5215 174.423 28.8823C174.277 29.243 174.063 29.5536 173.8 29.8342C173.538 30.1148 173.226 30.3252 172.876 30.4755C172.525 30.6258 172.146 30.706 171.747 30.706V30.696ZM171.747 29.233C172.029 29.233 172.282 29.1628 172.506 29.0225C172.73 28.8823 172.905 28.6919 173.031 28.4614C173.158 28.2309 173.226 27.9904 173.226 27.7299C173.226 27.4493 173.158 27.1988 173.031 26.9683C172.905 26.7379 172.73 26.5575 172.506 26.4172C172.282 26.2769 172.039 26.2168 171.766 26.2168C171.494 26.2168 171.231 26.2869 171.007 26.4272C170.783 26.5675 170.618 26.7579 170.491 26.9884C170.365 27.2188 170.306 27.4593 170.306 27.7299C170.306 28.0105 170.374 28.271 170.511 28.4915C170.647 28.7119 170.822 28.8923 171.046 29.0225C171.27 29.1528 171.503 29.223 171.756 29.223L171.747 29.233Z" fill="#3A3736" stroke="#3A3736" stroke-width="0.1" stroke-linejoin="round"/>
<path d="M178.261 30.6202C177.784 30.6202 177.356 30.51 176.967 30.2795C176.577 30.0491 176.237 29.7384 175.964 29.3376C175.682 28.9368 175.468 28.4758 175.312 27.9447C175.156 27.4137 175.088 26.8525 175.088 26.2513C175.088 25.65 175.166 25.0889 175.312 24.5578C175.468 24.0267 175.682 23.5658 175.964 23.165C176.246 22.7641 176.577 22.4535 176.967 22.223C177.356 21.9926 177.784 21.8823 178.261 21.8823C178.738 21.8823 179.166 21.9926 179.556 22.223C179.945 22.4535 180.276 22.7641 180.558 23.165C180.84 23.5658 181.055 24.0267 181.21 24.5578C181.366 25.0889 181.444 25.65 181.444 26.2513C181.444 26.8525 181.366 27.4137 181.21 27.9447C181.055 28.4758 180.84 28.9368 180.558 29.3376C180.276 29.7384 179.945 30.0491 179.556 30.2795C179.166 30.51 178.738 30.6202 178.261 30.6202ZM178.261 29.1572C178.68 29.1572 179.02 29.0169 179.293 28.7464C179.565 28.4758 179.77 28.1151 179.896 27.6742C180.033 27.2333 180.091 26.7623 180.091 26.2513C180.091 25.7202 180.023 25.2292 179.877 24.7983C179.731 24.3674 179.526 24.0067 179.254 23.7461C178.981 23.4856 178.641 23.3553 178.242 23.3553C177.93 23.3553 177.658 23.4355 177.424 23.5958C177.191 23.7562 176.996 23.9666 176.85 24.2472C176.694 24.5177 176.587 24.8284 176.509 25.1791C176.431 25.5298 176.402 25.8905 176.402 26.2613C176.402 26.7623 176.47 27.2333 176.607 27.6742C176.743 28.1151 176.947 28.4758 177.22 28.7464C177.492 29.0169 177.843 29.1572 178.251 29.1572H178.261Z" fill="#3A3736" stroke="#3A3736" stroke-width="0.1" stroke-linejoin="round"/>
<circle r="0.833165" transform="matrix(1 0 0 -1 182.539 21.8331)" stroke="#3A3736"/>
<path d="M206 17L206 45M206 17H234M206 17H204V14H236V17H234M206 45H234M206 45H204M234 45V17M234 45H236" stroke="#3A3736" stroke-linecap="round" stroke-linejoin="round"/>
<path d="M215 45V38H220M225 45V38H220M220 38V45" stroke="#3A3736" stroke-linecap="round" stroke-linejoin="round"/>
<path d="M206 14V11H210V14" stroke="#3A3736" stroke-linecap="round" stroke-linejoin="round"/>
<path d="M214 26H210V23C210 23 210 21 212 21C214 21 214 23 214 23V26Z" stroke="#3A3736" stroke-linecap="round" stroke-linejoin="round"/>
<path d="M214 34H210V31C210 31 210 29 212 29C214 29 214 31 214 31V34Z" stroke="#3A3736" stroke-linecap="round" stroke-linejoin="round"/>
<path d="M222 26H218V23C218 23 218 21 220 21C222 21 222 23 222 23V26Z" stroke="#3A3736" stroke-linecap="round" stroke-linejoin="round"/>
<path d="M222 34H218V31C218 31 218 29 220 29C222 29 222 31 222 31V34Z" stroke="#3A3736" stroke-linecap="round" stroke-linejoin="round"/>
<path d="M230 26H226V23C226 23 226 21 228 21C230 21 230 23 230 23V26Z" stroke="#3A3736" stroke-linecap="round" stroke-linejoin="round"/>
<path d="M230 34H226V31C226 31 226 29 228 29C230 29 230 31 230 31V34Z" stroke="#3A3736" stroke-linecap="round" stroke-linejoin="round"/>
<path d="M252 43V13C252 12.4477 252.448 12 253 12H283C283.552 12 284 12.4477 284 13V43C284 43.5523 283.552 44 283 44H253C252.448 44 252 43.5523 252 43Z" stroke="#3A3736" stroke-linecap="round" stroke-linejoin="round"/>
<path d="M276 44V35" stroke="#3A3736" stroke-linecap="round" stroke-linejoin="round"/>
<path d="M264 21V12" stroke="#3A3736" stroke-linecap="round" stroke-linejoin="round"/>
<path d="M259 44V38" stroke="#3A3736" stroke-linecap="round" stroke-linejoin="round"/>
<path d="M284 29H270M267 29H270M270 29V25" stroke="#3A3736" stroke-linecap="round" stroke-linejoin="round"/>
<path d="M252 29L259 29M262 29L259 29M259 29L259 33" stroke="#3A3736" stroke-linecap="round" stroke-linejoin="round"/>
<path d="M300 11V45H304V15H328V45H332V11H300Z" stroke="#3A3736" stroke-linecap="round" stroke-linejoin="round"/>
<path d="M304 15L322 19V43L304 45" stroke="#3A3736" stroke-linecap="round" stroke-linejoin="round"/>
<path d="M317 33V29H319V33H317Z" stroke="#3A3736" stroke-width="0.8" stroke-linecap="round" stroke-linejoin="round"/>
<path d="M352.706 27.0588V14.6176C352.706 13.1719 353.878 12 355.323 12V12C356.315 12 357.221 12.5602 357.665 13.4469L358.353 14.8235" stroke="#3A3736" stroke-linecap="round" stroke-linejoin="round"/>
<path d="M357.567 17.9375L356.936 16.7403C356.679 16.2516 356.867 15.6469 357.355 15.3896L359.333 14.3482C359.822 14.0909 360.427 14.2785 360.684 14.7672L361.314 15.9643L357.567 17.9375Z" stroke="#3A3736" stroke-linecap="round" stroke-linejoin="round"/>
<path d="M370.176 30.9124H349.882V34.5461C349.882 37.8598 352.569 40.5461 355.882 40.5461H372.118C375.431 40.5461 378.118 37.8598 378.118 34.5461V30.9124" stroke="#3A3736" stroke-linecap="round" stroke-linejoin="round"/>
<path d="M349.778 30.9123V30.9123C348.796 30.9123 348 30.1164 348 29.1346V28.9856C348 27.9215 348.863 27.0588 349.927 27.0588H378.073C379.137 27.0588 380 27.9215 380 28.9856V29.1346C380 30.1164 379.204 30.9123 378.222 30.9123V30.9123" stroke="#3A3736" stroke-linecap="round" stroke-linejoin="round"/>
<path d="M370.588 27.0588V34.7658H375.294V27.0588" stroke="#3A3736" stroke-linecap="round" stroke-linejoin="round"/>
<path d="M354.667 40.6256L354.24 41.2161C353.787 41.8445 354.044 42.7807 354.754 43.0886V43.0886C355.229 43.2944 355.763 43.1463 356.065 42.7253L357.572 40.6255" stroke="#3A3736" stroke-linecap="round" stroke-linejoin="round"/>
<path d="M373.127 40.6256L373.553 41.2161C374.007 41.8445 373.75 42.7807 373.04 43.0886V43.0886C372.565 43.2944 372.03 43.1463 371.728 42.7253L370.222 40.6255" stroke="#3A3736" stroke-linecap="round" stroke-linejoin="round"/>
<path d="M180 228C184.418 228 188 224.418 188 220C188 215.582 184.418 212 180 212C175.582 212 172 215.582 172 220C172 224.418 175.582 228 180 228Z" stroke="#3A3736" stroke-width="1.2" stroke-linecap="round" stroke-linejoin="round"/>
<path d="M178 217L183 220L178 223V217Z" stroke="#3A3736" stroke-width="1.2" stroke-linecap="round" stroke-linejoin="round"/>
<path d="M207.665 225.692C207.35 225.692 207.067 225.624 206.82 225.488C206.567 225.352 206.37 225.17 206.222 224.938C206.074 224.706 206 224.451 206 224.173H206.894C206.894 224.298 206.925 224.417 206.993 224.519C207.061 224.621 207.147 224.706 207.264 224.768C207.381 224.83 207.511 224.864 207.659 224.864C207.794 224.864 207.924 224.836 208.041 224.768C208.158 224.706 208.251 224.621 208.325 224.519C208.399 224.417 208.43 224.298 208.43 224.173C208.43 224.009 208.38 223.867 208.288 223.759C208.189 223.652 208.06 223.567 207.887 223.51C207.714 223.453 207.517 223.431 207.289 223.431V222.79C207.597 222.79 207.838 222.739 208.016 222.631C208.195 222.524 208.288 222.371 208.288 222.161C208.288 222.053 208.257 221.957 208.201 221.866C208.14 221.776 208.066 221.708 207.967 221.651C207.868 221.6 207.764 221.572 207.646 221.572C207.529 221.572 207.412 221.6 207.301 221.651C207.19 221.702 207.098 221.776 207.03 221.866C206.962 221.957 206.925 222.053 206.925 222.161H206.018C206.018 221.968 206.062 221.781 206.148 221.611C206.234 221.441 206.351 221.288 206.506 221.164C206.66 221.039 206.826 220.931 207.024 220.858C207.221 220.784 207.418 220.75 207.634 220.75C207.912 220.75 208.171 220.812 208.405 220.943C208.639 221.067 208.83 221.237 208.972 221.453C209.114 221.668 209.188 221.906 209.188 222.167C209.188 222.348 209.139 222.529 209.046 222.705C208.954 222.881 208.818 223.006 208.645 223.079C208.793 223.13 208.923 223.21 209.021 223.329C209.12 223.448 209.2 223.578 209.256 223.725C209.311 223.873 209.336 224.02 209.336 224.173C209.336 224.451 209.262 224.706 209.108 224.938C208.954 225.17 208.75 225.352 208.497 225.488C208.245 225.624 207.967 225.692 207.665 225.692Z" fill="#3A3736" stroke="#3A3736" stroke-width="0.1" stroke-linejoin="round"/>
<path d="M211.724 225.768C211.391 225.768 211.089 225.694 210.811 225.541C210.534 225.388 210.312 225.184 210.151 224.934C209.985 224.679 209.905 224.402 209.905 224.09C209.905 223.931 209.923 223.784 209.966 223.648C210.01 223.512 210.071 223.376 210.158 223.234L211.607 220.922H212.655L211.681 222.469C211.878 222.458 212.075 222.469 212.26 222.515C212.445 222.56 212.618 222.634 212.772 222.73C212.932 222.826 213.068 222.945 213.185 223.081C213.302 223.217 213.395 223.376 213.463 223.546C213.531 223.716 213.561 223.897 213.561 224.09C213.561 224.322 213.512 224.538 213.42 224.742C213.327 224.946 213.191 225.121 213.025 225.28C212.858 225.439 212.661 225.558 212.439 225.643C212.217 225.728 211.977 225.773 211.724 225.773V225.768ZM211.724 224.94C211.903 224.94 212.063 224.9 212.205 224.821C212.347 224.742 212.458 224.634 212.538 224.504C212.618 224.373 212.661 224.237 212.661 224.09C212.661 223.931 212.618 223.79 212.538 223.659C212.458 223.529 212.347 223.427 212.205 223.348C212.063 223.268 211.909 223.234 211.736 223.234C211.564 223.234 211.397 223.274 211.255 223.353C211.113 223.433 211.009 223.54 210.928 223.671C210.848 223.801 210.811 223.937 210.811 224.09C210.811 224.249 210.854 224.396 210.941 224.521C211.027 224.645 211.138 224.747 211.28 224.821C211.422 224.895 211.57 224.934 211.73 224.934L211.724 224.94Z" fill="#3A3736" stroke="#3A3736" stroke-width="0.1" stroke-linejoin="round"/>
<path d="M215.859 225.692C215.557 225.692 215.286 225.629 215.039 225.499C214.793 225.369 214.577 225.193 214.404 224.966C214.225 224.74 214.09 224.479 213.991 224.179C213.892 223.878 213.849 223.561 213.849 223.221C213.849 222.881 213.898 222.563 213.991 222.263C214.09 221.963 214.225 221.702 214.404 221.475C214.583 221.249 214.793 221.073 215.039 220.943C215.286 220.812 215.557 220.75 215.859 220.75C216.161 220.75 216.433 220.812 216.679 220.943C216.926 221.073 217.136 221.249 217.315 221.475C217.493 221.702 217.629 221.963 217.728 222.263C217.826 222.563 217.876 222.881 217.876 223.221C217.876 223.561 217.826 223.878 217.728 224.179C217.629 224.479 217.493 224.74 217.315 224.966C217.136 225.193 216.926 225.369 216.679 225.499C216.433 225.629 216.161 225.692 215.859 225.692ZM215.859 224.864C216.124 224.864 216.34 224.785 216.513 224.632C216.686 224.479 216.815 224.275 216.895 224.026C216.982 223.776 217.019 223.51 217.019 223.221C217.019 222.921 216.975 222.643 216.883 222.399C216.79 222.155 216.661 221.951 216.488 221.804C216.316 221.657 216.1 221.583 215.847 221.583C215.65 221.583 215.477 221.628 215.329 221.719C215.181 221.81 215.058 221.929 214.965 222.087C214.867 222.24 214.799 222.416 214.749 222.614C214.7 222.813 214.682 223.017 214.682 223.227C214.682 223.51 214.725 223.776 214.811 224.026C214.897 224.275 215.027 224.479 215.2 224.632C215.372 224.785 215.594 224.864 215.853 224.864H215.859Z" fill="#3A3736" stroke="#3A3736" stroke-width="0.1" stroke-linejoin="round"/>
<ellipse rx="0.659795" ry="0.589001" transform="matrix(1 0 0 -1 218.53 220.589)" stroke="#3A3736" stroke-width="0.4"/>
<path d="M201.5 225.382V215.5C201.5 215.5 205.7 218.368 212 218.368C218.3 218.368 222.5 215.5 222.5 215.5V225.382C222.5 225.382 218.3 228.25 212 228.25C205.7 228.25 201.5 225.382 201.5 225.382Z" stroke="#3A3736" stroke-linecap="round" stroke-linejoin="round"/>
<path d="M201.5 215.5C201.5 215.5 202.9 214.75 205 214C207.1 213.25 209.9 213 209.9 213V217.75" stroke="#3A3736" stroke-linecap="round" stroke-linejoin="round"/>
<path d="M222.5 215.5C222.5 215.5 221.1 214.75 219 214C216.9 213.25 214.1 213 214.1 213V217.75" stroke="#3A3736" stroke-linecap="round" stroke-linejoin="round"/>
<path d="M251 213L237 227" stroke="#3A3736" stroke-width="1.4" stroke-linecap="round" stroke-linejoin="round"/>
<path d="M237 213L251 227" stroke="#3A3736" stroke-width="1.4" stroke-linecap="round" stroke-linejoin="round"/>
<path d="M106.909 285.667V281.13" stroke="#3A3736" stroke-width="1.2" stroke-linecap="round" stroke-linejoin="round"/>
<path d="M106.909 278.537V274" stroke="#3A3736" stroke-width="1.2" stroke-linecap="round" stroke-linejoin="round"/>
<path d="M111.908 285.667V279.833" stroke="#3A3736" stroke-width="1.2" stroke-linecap="round" stroke-linejoin="round"/>
<path d="M111.908 277.241V274" stroke="#3A3736" stroke-width="1.2" stroke-linecap="round" stroke-linejoin="round"/>
<path d="M116.909 285.667V282.426" stroke="#3A3736" stroke-width="1.2" stroke-linecap="round" stroke-linejoin="round"/>
<path d="M116.909 279.834V274" stroke="#3A3736" stroke-width="1.2" stroke-linecap="round" stroke-linejoin="round"/>
<path d="M105 281.13H108.818" stroke="#3A3736" stroke-width="1.2" stroke-linecap="round" stroke-linejoin="round"/>
<path d="M110 277.241H113.818" stroke="#3A3736" stroke-width="1.2" stroke-linecap="round" stroke-linejoin="round"/>
<path d="M115 282.426H118.818" stroke="#3A3736" stroke-width="1.2" stroke-linecap="round" stroke-linejoin="round"/>
<path d="M82 274V277.75H85.75" stroke="#3A3736" stroke-width="1.2" stroke-linecap="round" stroke-linejoin="round"/>
<path d="M82.6238 277.333C83.6056 275.358 85.6444 274 88.0002 274C91.3139 274 94.0002 276.686 94.0002 280C94.0002 283.314 91.3139 286 88.0002 286C85.3791 286 83.1506 284.319 82.3335 281.977" stroke="#3A3736" stroke-width="1.2" stroke-linecap="round"/>
<path d="M69 278.909C69 282.727 64 286 64 286C64 286 59 282.727 59 278.909C59 277.607 59.5268 276.358 60.4645 275.438C61.4021 274.517 62.6739 274 64 274C65.3261 274 66.5979 274.517 67.5355 275.438C68.4732 276.358 69 277.607 69 278.909Z" stroke="#3A3736" stroke-width="1.1" stroke-linecap="round" stroke-linejoin="round"/>
<path d="M64 281C65.1046 281 66 280.105 66 279C66 277.895 65.1046 277 64 277C62.8954 277 62 277.895 62 279C62 280.105 62.8954 281 64 281Z" stroke="#3A3736" stroke-width="1.1" stroke-linecap="round" stroke-linejoin="round"/>
<path d="M16 275V285" stroke="#3A3736" stroke-width="1.2" stroke-linecap="round" stroke-linejoin="round"/>
<path d="M11 280H21" stroke="#3A3736" stroke-width="1.2" stroke-linecap="round" stroke-linejoin="round"/>
<path d="M40 275V285" stroke="white" stroke-width="1.2" stroke-linecap="round" stroke-linejoin="round"/>
<path d="M35 280H45" stroke="white" stroke-width="1.2" stroke-linecap="round" stroke-linejoin="round"/>
<path d="M347 61C347 60.4477 347.448 60 348 60H380C380.552 60 381 60.4477 381 61V84.3968C381 84.9491 380.552 85.3968 380 85.3968H354.397C354.142 85.3968 353.897 85.4943 353.711 85.6694L348.686 90.4094C348.048 91.0111 347 90.5589 347 89.682V85.3968V61Z" stroke="#7B726F"/>
<path d="M359 68L355 72" stroke="#7B726F" stroke-linecap="round" stroke-linejoin="round"/>
<path d="M355 68L359 72" stroke="#7B726F" stroke-linecap="round" stroke-linejoin="round"/>
<path d="M373 68L369 72" stroke="#7B726F" stroke-linecap="round" stroke-linejoin="round"/>
<path d="M369 68L373 72" stroke="#7B726F" stroke-linecap="round" stroke-linejoin="round"/>
<path d="M358.635 78.658C358.446 78.8595 358.457 79.1759 358.658 79.3648C358.859 79.5536 359.176 79.5434 359.365 79.342L358.635 78.658ZM368.635 79.342C368.824 79.5434 369.141 79.5536 369.342 79.3648C369.543 79.1759 369.554 78.8595 369.365 78.658L368.635 79.342ZM359 79C359.365 79.342 359.365 79.3421 359.365 79.3422C359.364 79.3423 359.364 79.3424 359.364 79.3425C359.364 79.3426 359.364 79.3427 359.364 79.3428C359.364 79.343 359.364 79.343 359.364 79.3429C359.364 79.3427 359.365 79.3421 359.366 79.341C359.368 79.3389 359.372 79.3349 359.377 79.3292C359.388 79.3179 359.407 79.2998 359.432 79.276C359.482 79.2282 359.559 79.1575 359.662 79.0713C359.869 78.8988 360.178 78.6658 360.58 78.4322C361.383 77.9647 362.547 77.5 364 77.5V76.5C362.328 76.5 360.992 77.0353 360.077 77.5678C359.619 77.8342 359.264 78.1012 359.021 78.3037C358.9 78.405 358.806 78.4905 358.742 78.5521C358.709 78.583 358.684 78.6079 358.666 78.6258C358.658 78.6348 358.65 78.6421 358.645 78.6475C358.643 78.6502 358.641 78.6524 358.639 78.6542C358.638 78.6551 358.637 78.6558 358.637 78.6565C358.636 78.6568 358.636 78.6571 358.636 78.6573C358.636 78.6575 358.636 78.6576 358.636 78.6577C358.635 78.6579 358.635 78.658 359 79ZM364 77.5C365.453 77.5 366.617 77.9647 367.42 78.4322C367.822 78.6658 368.131 78.8988 368.338 79.0713C368.441 79.1575 368.518 79.2282 368.568 79.276C368.593 79.2998 368.612 79.3179 368.623 79.3292C368.628 79.3349 368.632 79.3389 368.634 79.341C368.635 79.3421 368.636 79.3427 368.636 79.3429C368.636 79.343 368.636 79.343 368.636 79.3428C368.636 79.3427 368.636 79.3426 368.636 79.3425C368.636 79.3424 368.636 79.3423 368.635 79.3422C368.635 79.3421 368.635 79.342 369 79C369.365 78.658 369.365 78.6579 369.364 78.6577C369.364 78.6576 369.364 78.6575 369.364 78.6573C369.364 78.6571 369.364 78.6568 369.363 78.6565C369.363 78.6558 369.362 78.6551 369.361 78.6542C369.359 78.6524 369.357 78.6502 369.355 78.6475C369.35 78.6421 369.342 78.6348 369.334 78.6258C369.316 78.6079 369.291 78.583 369.258 78.5521C369.194 78.4905 369.1 78.405 368.979 78.3037C368.736 78.1012 368.381 77.8342 367.923 77.5678C367.008 77.0353 365.672 76.5 364 76.5V77.5Z" fill="#7B726F"/>
<path d="M281.833 212.667H270.167C269.246 212.667 268.5 213.413 268.5 214.333V226C268.5 226.921 269.246 227.667 270.167 227.667H281.833C282.754 227.667 283.5 226.921 283.5 226V214.333C283.5 213.413 282.754 212.667 281.833 212.667Z" stroke="#7B726F" stroke-linecap="round" stroke-linejoin="round"/>
<path d="M279.333 211V214.333" stroke="#7B726F" stroke-linecap="round" stroke-linejoin="round"/>
<path d="M272.667 211V214.333" stroke="#7B726F" stroke-linecap="round" stroke-linejoin="round"/>
<path d="M268.5 217.667H283.5" stroke="#7B726F" stroke-linecap="round" stroke-linejoin="round"/>
<path d="M15 90V64H41V90H15Z" stroke="#3A3736" stroke-linecap="round" stroke-linejoin="round"/>
<path d="M15 68H41" stroke="#3A3736" stroke-linecap="round" stroke-linejoin="round"/>
<path d="M24.5 84H31.5" stroke="#3A3736" stroke-linecap="round" stroke-linejoin="round"/>
<path d="M24.5 86H31.5" stroke="#3A3736" stroke-linecap="round" stroke-linejoin="round"/>
<path d="M17 90V91C17 92.1046 17.8954 93 19 93V93C20.1046 93 21 92.1046 21 91V90" stroke="#3A3736" stroke-linecap="round" stroke-linejoin="round"/>
<path d="M35 90V91C35 92.1046 35.8954 93 37 93V93C38.1046 93 39 92.1046 39 91V90" stroke="#3A3736" stroke-linecap="round" stroke-linejoin="round"/>
<path d="M15 80H40.5" stroke="#3A3736" stroke-linecap="round" stroke-linejoin="round"/>
<path d="M28 68L28 80" stroke="#3A3736" stroke-linecap="round" stroke-linejoin="round"/>
<path d="M15 69L12 72V77" stroke="#3A3736" stroke-linecap="round" stroke-linejoin="round"/>
<path d="M41 69L44 72V77" stroke="#3A3736" stroke-linecap="round" stroke-linejoin="round"/>
<circle cx="20.5" cy="61.5" r="2" stroke="#3A3736"/>
<circle cx="22" cy="85" r="2.5" stroke="#3A3736"/>
<circle cx="35.5" cy="61.5" r="2" stroke="#3A3736"/>
<circle cx="34" cy="85" r="2.5" stroke="#3A3736"/>
<path d="M15 138V112H41V138H15Z" stroke="#F47630" stroke-linecap="round" stroke-linejoin="round"/>
<path d="M15 116H41" stroke="#F47630" stroke-linecap="round" stroke-linejoin="round"/>
<path d="M24.5 132H31.5" stroke="#F47630" stroke-linecap="round" stroke-linejoin="round"/>
<path d="M24.5 134H31.5" stroke="#F47630" stroke-linecap="round" stroke-linejoin="round"/>
<path d="M17 138V139C17 140.105 17.8954 141 19 141V141C20.1046 141 21 140.105 21 139V138" stroke="#F47630" stroke-linecap="round" stroke-linejoin="round"/>
<path d="M35 138V139C35 140.105 35.8954 141 37 141V141C38.1046 141 39 140.105 39 139V138" stroke="#F47630" stroke-linecap="round" stroke-linejoin="round"/>
<path d="M15 128H40.5" stroke="#F47630" stroke-linecap="round" stroke-linejoin="round"/>
<path d="M28 116L28 128" stroke="#F47630" stroke-linecap="round" stroke-linejoin="round"/>
<path d="M15 117L12 120V125" stroke="#F47630" stroke-linecap="round" stroke-linejoin="round"/>
<path d="M41 117L44 120V125" stroke="#F47630" stroke-linecap="round" stroke-linejoin="round"/>
<circle cx="20.5" cy="109.5" r="2" stroke="#F47630"/>
<circle cx="22" cy="133" r="2.5" stroke="#F47630"/>
<circle cx="35.5" cy="109.5" r="2" stroke="#F47630"/>
<circle cx="34" cy="133" r="2.5" stroke="#F47630"/>
<path d="M76 85V65L73.6533 64.3742C70.2767 63.4738 66.7233 63.4738 63.3467 64.3742L61 65V85L63.3467 84.3742C66.7233 83.4738 70.2767 83.4738 73.6533 84.3742L76 85Z" stroke="#3A3736" stroke-linecap="round" stroke-linejoin="round"/>
<path d="M91 85V65L88.6533 64.3742C85.2767 63.4738 81.7233 63.4738 78.3467 64.3742L76 65V85L78.3467 84.3742C81.7233 83.4738 85.2767 83.4738 88.6533 84.3742L91 85Z" stroke="#3A3736" stroke-linecap="round" stroke-linejoin="round"/>
<path d="M61 66L59 67V87.5L62.4251 86.4926C65.7512 85.5144 69.2744 85.4175 72.6492 86.2116L76 87V85" stroke="#3A3736" stroke-linecap="round" stroke-linejoin="round"/>
<path d="M91 66L93 67V87.5L89.5749 86.4926C86.2488 85.5144 82.7256 85.4175 79.3508 86.2116L76 87V85" stroke="#3A3736" stroke-linecap="round" stroke-linejoin="round"/>
<path d="M76 87V87C76 88.1046 75.1046 89 74 89H73.5" stroke="#3A3736" stroke-linecap="round" stroke-linejoin="round"/>
<path d="M64 69V69C66.8649 67.7267 70.1351 67.7267 73 69V69" stroke="#3A3736" stroke-linecap="round" stroke-linejoin="round"/>
<path d="M79 69V69C81.8649 67.7267 85.1351 67.7267 88 69V69" stroke="#3A3736" stroke-linecap="round" stroke-linejoin="round"/>
<path d="M64 74V74C66.8649 72.7267 70.1351 72.7267 73 74V74" stroke="#3A3736" stroke-linecap="round" stroke-linejoin="round"/>
<path d="M79 74V74C81.8649 72.7267 85.1351 72.7267 88 74V74" stroke="#3A3736" stroke-linecap="round" stroke-linejoin="round"/>
<path d="M64 79V79C66.8649 77.7267 70.1351 77.7267 73 79V79" stroke="#3A3736" stroke-linecap="round" stroke-linejoin="round"/>
<path d="M79 79V79C81.8649 77.7267 85.1351 77.7267 88 79V79" stroke="#3A3736" stroke-linecap="round" stroke-linejoin="round"/>
<path d="M76 133V113L73.6533 112.374C70.2767 111.474 66.7233 111.474 63.3467 112.374L61 113V133L63.3467 132.374C66.7233 131.474 70.2767 131.474 73.6533 132.374L76 133Z" stroke="#F47630" stroke-linecap="round" stroke-linejoin="round"/>
<path d="M91 133V113L88.6533 112.374C85.2767 111.474 81.7233 111.474 78.3467 112.374L76 113V133L78.3467 132.374C81.7233 131.474 85.2767 131.474 88.6533 132.374L91 133Z" stroke="#F47630" stroke-linecap="round" stroke-linejoin="round"/>
<path d="M61 114L59 115V135.5L62.4251 134.493C65.7512 133.514 69.2744 133.418 72.6492 134.212L76 135V133" stroke="#F47630" stroke-linecap="round" stroke-linejoin="round"/>
<path d="M91 114L93 115V135.5L89.5749 134.493C86.2488 133.514 82.7256 133.418 79.3508 134.212L76 135V133" stroke="#F47630" stroke-linecap="round" stroke-linejoin="round"/>
<path d="M76 135V135C76 136.105 75.1046 137 74 137H73.5" stroke="#F47630" stroke-linecap="round" stroke-linejoin="round"/>
<path d="M64 117V117C66.8649 115.727 70.1351 115.727 73 117V117" stroke="#F47630" stroke-linecap="round" stroke-linejoin="round"/>
<path d="M79 117V117C81.8649 115.727 85.1351 115.727 88 117V117" stroke="#F47630" stroke-linecap="round" stroke-linejoin="round"/>
<path d="M64 122V122C66.8649 120.727 70.1351 120.727 73 122V122" stroke="#F47630" stroke-linecap="round" stroke-linejoin="round"/>
<path d="M79 122V122C81.8649 120.727 85.1351 120.727 88 122V122" stroke="#F47630" stroke-linecap="round" stroke-linejoin="round"/>
<path d="M64 127V127C66.8649 125.727 70.1351 125.727 73 127V127" stroke="#F47630" stroke-linecap="round" stroke-linejoin="round"/>
<path d="M79 127V127C81.8649 125.727 85.1351 125.727 88 127V127" stroke="#F47630" stroke-linecap="round" stroke-linejoin="round"/>
<path d="M135.5 61H112.5V64H135.5V61Z" stroke="#3A3736" stroke-linecap="round" stroke-linejoin="round"/>
<path d="M112.5 64L107.5 72.5V72.5C109.403 75.3543 113.597 75.3543 115.5 72.5V72.5V72.5C117.576 75.4303 121.924 75.4303 124 72.5V72.5V72.5C125.903 75.3543 130.097 75.3543 132 72.5V72.5V72.5C134.076 75.4303 138.424 75.4303 140.5 72.5V72.5L135.5 64" stroke="#3A3736" stroke-linecap="round" stroke-linejoin="round"/>
<path d="M124 64V70" stroke="#3A3736" stroke-linecap="round" stroke-linejoin="round"/>
<path d="M129 64L132 70" stroke="#3A3736" stroke-linecap="round" stroke-linejoin="round"/>
<path d="M118.5 64L115.5 70" stroke="#3A3736" stroke-linecap="round" stroke-linejoin="round"/>
<path d="M110.5 74.5V91H137.5V74.5" stroke="#3A3736" stroke-linecap="round" stroke-linejoin="round"/>
<path d="M116.5 91V79H131.5V91" stroke="#3A3736" stroke-linecap="round" stroke-linejoin="round"/>
<path d="M135.5 109H112.5V112H135.5V109Z" stroke="#F47630" stroke-linecap="round" stroke-linejoin="round"/>
<path d="M112.5 112L107.5 120.5V120.5C109.403 123.354 113.597 123.354 115.5 120.5V120.5V120.5C117.576 123.43 121.924 123.43 124 120.5V120.5V120.5C125.903 123.354 130.097 123.354 132 120.5V120.5V120.5C134.076 123.43 138.424 123.43 140.5 120.5V120.5L135.5 112" stroke="#F47630" stroke-linecap="round" stroke-linejoin="round"/>
<path d="M124 112V118" stroke="#F47630" stroke-linecap="round" stroke-linejoin="round"/>
<path d="M129 112L132 118" stroke="#F47630" stroke-linecap="round" stroke-linejoin="round"/>
<path d="M118.5 112L115.5 118" stroke="#F47630" stroke-linecap="round" stroke-linejoin="round"/>
<path d="M110.5 122.5V139H137.5V122.5" stroke="#F47630" stroke-linecap="round" stroke-linejoin="round"/>
<path d="M116.5 139V127H131.5V139" stroke="#F47630" stroke-linecap="round" stroke-linejoin="round"/>
<path d="M156 78.0588C156 73.1176 164 62 164 62C164 62 172 73.1176 172 78.0588C172 80.5552 169.279 82.5826 166.798 82.8556C165.995 82.9439 165.066 83 164 83C162.934 83 162.005 82.9439 161.202 82.8556C158.721 82.5826 156 80.5552 156 78.0588Z" stroke="#3A3736" stroke-linejoin="round"/>
<path d="M170 77.1176C170 71.2353 179 58 179 58C179 58 188 71.2353 188 77.1176C188 80.028 184.816 82.5452 181.922 82.8532C181.071 82.9437 180.1 83 179 83C177.9 83 176.929 82.9437 176.078 82.8532C173.184 82.5452 170 80.028 170 77.1176Z" stroke="#3A3736" stroke-linejoin="round"/>
<path d="M170 77.1176C170 71.2353 179 58 179 58C179 58 188 71.2353 188 77.1176C188 80.028 184.816 82.5452 181.922 82.8532C181.071 82.9437 180.1 83 179 83C177.9 83 176.929 82.9437 176.078 82.8532C173.184 82.5452 170 80.028 170 77.1176Z" stroke="#3A3736" stroke-linejoin="round"/>
<path d="M164 73V90" stroke="#3A3736" stroke-linecap="round" stroke-linejoin="round"/>
<path d="M179 71V90" stroke="#3A3736" stroke-linecap="round" stroke-linejoin="round"/>
<path d="M156 90L188 90" stroke="#3A3736" stroke-linecap="round" stroke-linejoin="round"/>
<path d="M164 76L166.5 74.5" stroke="#3A3736" stroke-linecap="round" stroke-linejoin="round"/>
<path d="M179 74L182 73" stroke="#3A3736" stroke-linecap="round" stroke-linejoin="round"/>
<path d="M164 78L161 76.5" stroke="#3A3736" stroke-linecap="round" stroke-linejoin="round"/>
<path d="M179 77L176 76" stroke="#3A3736" stroke-linecap="round" stroke-linejoin="round"/>
<path d="M156 126.059C156 121.118 164 110 164 110C164 110 172 121.118 172 126.059C172 128.555 169.279 130.583 166.798 130.856C165.995 130.944 165.066 131 164 131C162.934 131 162.005 130.944 161.202 130.856C158.721 130.583 156 128.555 156 126.059Z" stroke="#F47630" stroke-linejoin="round"/>
<path d="M170 125.118C170 119.235 179 106 179 106C179 106 188 119.235 188 125.118C188 128.028 184.816 130.545 181.922 130.853C181.071 130.944 180.1 131 179 131C177.9 131 176.929 130.944 176.078 130.853C173.184 130.545 170 128.028 170 125.118Z" stroke="#F47630" stroke-linejoin="round"/>
<path d="M170 125.118C170 119.235 179 106 179 106C179 106 188 119.235 188 125.118C188 128.028 184.816 130.545 181.922 130.853C181.071 130.944 180.1 131 179 131C177.9 131 176.929 130.944 176.078 130.853C173.184 130.545 170 128.028 170 125.118Z" stroke="#F47630" stroke-linejoin="round"/>
<path d="M164 121V138" stroke="#F47630" stroke-linecap="round" stroke-linejoin="round"/>
<path d="M179 119V138" stroke="#F47630" stroke-linecap="round" stroke-linejoin="round"/>
<path d="M156 138H188" stroke="#F47630" stroke-linecap="round" stroke-linejoin="round"/>
<path d="M164 124L166.5 122.5" stroke="#F47630" stroke-linecap="round" stroke-linejoin="round"/>
<path d="M179 122L182 121" stroke="#F47630" stroke-linecap="round" stroke-linejoin="round"/>
<path d="M164 126L161 124.5" stroke="#F47630" stroke-linecap="round" stroke-linejoin="round"/>
<path d="M179 125L176 124" stroke="#F47630" stroke-linecap="round" stroke-linejoin="round"/>
<path d="M209 74V87" stroke="#3A3736" stroke-linecap="round" stroke-linejoin="round"/>
<path d="M212 74V87" stroke="#3A3736" stroke-linecap="round" stroke-linejoin="round"/>
<path d="M219 74V87" stroke="#3A3736" stroke-linecap="round" stroke-linejoin="round"/>
<path d="M222 74V87" stroke="#3A3736" stroke-linecap="round" stroke-linejoin="round"/>
<path d="M229 74V87" stroke="#3A3736" stroke-linecap="round" stroke-linejoin="round"/>
<path d="M232 74V87" stroke="#3A3736" stroke-linecap="round" stroke-linejoin="round"/>
<path d="M237 71H203L220.37 60L237 71Z" stroke="#3A3736" stroke-linecap="round" stroke-linejoin="round"/>
<path d="M207 71V74H234V71" stroke="#3A3736" stroke-linecap="round" stroke-linejoin="round"/>
<path d="M207 89V87H234V89" stroke="#3A3736" stroke-linecap="round" stroke-linejoin="round"/>
<path d="M204 92V89H236V92H204Z" stroke="#3A3736" stroke-linecap="round" stroke-linejoin="round"/>
<path d="M209 122V135" stroke="#F47630" stroke-linecap="round" stroke-linejoin="round"/>
<path d="M212 122V135" stroke="#F47630" stroke-linecap="round" stroke-linejoin="round"/>
<path d="M219 122V135" stroke="#F47630" stroke-linecap="round" stroke-linejoin="round"/>
<path d="M222 122V135" stroke="#F47630" stroke-linecap="round" stroke-linejoin="round"/>
<path d="M229 122V135" stroke="#F47630" stroke-linecap="round" stroke-linejoin="round"/>
<path d="M232 122V135" stroke="#F47630" stroke-linecap="round" stroke-linejoin="round"/>
<path d="M237 119H203L220.37 108L237 119Z" stroke="#F47630" stroke-linecap="round" stroke-linejoin="round"/>
<path d="M207 119V122H234V119" stroke="#F47630" stroke-linecap="round" stroke-linejoin="round"/>
<path d="M207 137V135H234V137" stroke="#F47630" stroke-linecap="round" stroke-linejoin="round"/>
<path d="M204 140V137H236V140H204Z" stroke="#F47630" stroke-linecap="round" stroke-linejoin="round"/>
<rect x="253.5" y="65" width="20" height="3" stroke="#3A3736" stroke-linejoin="round"/>
<path d="M254.5 68V94H272.5V68" stroke="#3A3736" stroke-linecap="round" stroke-linejoin="round"/>
<path d="M272.5 74H282.5V94H272.5" stroke="#3A3736" stroke-linecap="round" stroke-linejoin="round"/>
<rect x="257.5" y="84" width="12" height="2" stroke="#3A3736" stroke-linejoin="round"/>
<path d="M258.5 86V94" stroke="#3A3736" stroke-linecap="round" stroke-linejoin="round"/>
<path d="M268.5 86V94" stroke="#3A3736" stroke-linecap="round" stroke-linejoin="round"/>
<circle cx="263.5" cy="62" r="4" fill="white" stroke="#3A3736"/>
<rect x="257.5" y="71" width="2" height="2" rx="0.2" fill="#3A3736"/>
<rect x="257.5" y="75" width="2" height="2" rx="0.2" fill="#3A3736"/>
<rect x="257.5" y="79" width="2" height="2" rx="0.2" fill="#3A3736"/>
<rect x="262.5" y="71" width="2" height="2" rx="0.2" fill="#3A3736"/>
<rect x="262.5" y="75" width="2" height="2" rx="0.2" fill="#3A3736"/>
<rect x="262.5" y="79" width="2" height="2" rx="0.2" fill="#3A3736"/>
<rect x="267.5" y="71" width="2" height="2" rx="0.2" fill="#3A3736"/>
<rect x="274.5" y="77" width="2" height="2" rx="0.2" fill="#3A3736"/>
<rect x="278.5" y="77" width="2" height="2" rx="0.2" fill="#3A3736"/>
<rect x="267.5" y="75" width="2" height="2" rx="0.2" fill="#3A3736"/>
<rect x="274.5" y="81" width="2" height="2" rx="0.2" fill="#3A3736"/>
<rect x="278.5" y="81" width="2" height="2" rx="0.2" fill="#3A3736"/>
<rect x="267.5" y="79" width="2" height="2" rx="0.2" fill="#3A3736"/>
<rect x="274.5" y="85" width="2" height="2" rx="0.2" fill="#3A3736"/>
<rect x="278.5" y="85" width="2" height="2" rx="0.2" fill="#3A3736"/>
<rect x="274.5" y="89" width="2" height="2" rx="0.2" fill="#3A3736"/>
<rect x="278.5" y="89" width="2" height="2" rx="0.2" fill="#3A3736"/>
<rect x="253.5" y="113" width="20" height="3" stroke="#F47630" stroke-linejoin="round"/>
<path d="M254.5 116V142H272.5V116" stroke="#F47630" stroke-linecap="round" stroke-linejoin="round"/>
<path d="M272.5 122H282.5V142H272.5" stroke="#F47630" stroke-linecap="round" stroke-linejoin="round"/>
<rect x="257.5" y="132" width="12" height="2" stroke="#F47630" stroke-linejoin="round"/>
<path d="M258.5 134V142" stroke="#F47630" stroke-linecap="round" stroke-linejoin="round"/>
<path d="M268.5 134V142" stroke="#F47630" stroke-linecap="round" stroke-linejoin="round"/>
<circle cx="263.5" cy="110" r="4" fill="white" stroke="#F47630"/>
<rect x="257.5" y="119" width="2" height="2" rx="0.2" fill="#F47630"/>
<rect x="257.5" y="123" width="2" height="2" rx="0.2" fill="#F47630"/>
<rect x="257.5" y="127" width="2" height="2" rx="0.2" fill="#F47630"/>
<rect x="262.5" y="119" width="2" height="2" rx="0.2" fill="#F47630"/>
<rect x="262.5" y="123" width="2" height="2" rx="0.2" fill="#F47630"/>
<rect x="262.5" y="127" width="2" height="2" rx="0.2" fill="#F47630"/>
<rect x="267.5" y="119" width="2" height="2" rx="0.2" fill="#F47630"/>
<rect x="274.5" y="125" width="2" height="2" rx="0.2" fill="#F47630"/>
<rect x="278.5" y="125" width="2" height="2" rx="0.2" fill="#F47630"/>
<rect x="267.5" y="123" width="2" height="2" rx="0.2" fill="#F47630"/>
<rect x="274.5" y="129" width="2" height="2" rx="0.2" fill="#F47630"/>
<rect x="278.5" y="129" width="2" height="2" rx="0.2" fill="#F47630"/>
<rect x="267.5" y="127" width="2" height="2" rx="0.2" fill="#F47630"/>
<rect x="274.5" y="133" width="2" height="2" rx="0.2" fill="#F47630"/>
<rect x="278.5" y="133" width="2" height="2" rx="0.2" fill="#F47630"/>
<rect x="274.5" y="137" width="2" height="2" rx="0.2" fill="#F47630"/>
<rect x="278.5" y="137" width="2" height="2" rx="0.2" fill="#F47630"/>
<path d="M322 72.6875V68H332V93H328.25" stroke="#3A3736" stroke-linecap="round" stroke-linejoin="round"/>
<rect x="300" y="61" width="18" height="4" stroke="#3A3736" stroke-linejoin="round"/>
<path d="M301 93V65H317V93H301Z" stroke="#3A3736" stroke-linecap="round" stroke-linejoin="round"/>
<path d="M328 75H317V93H328V75Z" stroke="#3A3736" stroke-linecap="round" stroke-linejoin="round"/>
<rect x="301" y="59" width="16" height="2" stroke="#3A3736" stroke-linejoin="round"/>
<rect x="317" y="73" width="11" height="2" stroke="#3A3736" stroke-linejoin="round"/>
<rect x="304" y="68" width="2" height="2" rx="0.2" fill="#3A3736"/>
<rect x="304" y="80" width="2" height="2" rx="0.2" fill="#3A3736"/>
<rect x="304" y="72" width="2" height="2" rx="0.2" fill="#3A3736"/>
<rect x="304" y="84" width="2" height="2" rx="0.2" fill="#3A3736"/>
<rect x="304" y="76" width="2" height="2" rx="0.2" fill="#3A3736"/>
<rect x="304" y="88" width="2" height="2" rx="0.2" fill="#3A3736"/>
<rect x="308" y="68" width="2" height="2" rx="0.2" fill="#3A3736"/>
<rect x="308" y="80" width="2" height="2" rx="0.2" fill="#3A3736"/>
<rect x="308" y="72" width="2" height="2" rx="0.2" fill="#3A3736"/>
<rect x="308" y="84" width="2" height="2" rx="0.2" fill="#3A3736"/>
<rect x="308" y="76" width="2" height="2" rx="0.2" fill="#3A3736"/>
<rect x="308" y="88" width="2" height="2" rx="0.2" fill="#3A3736"/>
<rect x="312" y="68" width="2" height="2" rx="0.2" fill="#3A3736"/>
<rect x="312" y="80" width="2" height="2" rx="0.2" fill="#3A3736"/>
<rect x="312" y="72" width="2" height="2" rx="0.2" fill="#3A3736"/>
<rect x="312" y="84" width="2" height="2" rx="0.2" fill="#3A3736"/>
<rect x="320" y="77" width="2" height="2" rx="0.2" fill="#3A3736"/>
<rect x="323" y="77" width="2" height="2" rx="0.2" fill="#3A3736"/>
<rect x="312" y="76" width="2" height="2" rx="0.2" fill="#3A3736"/>
<rect x="312" y="88" width="2" height="2" rx="0.2" fill="#3A3736"/>
<rect x="320" y="80" width="2" height="2" rx="0.2" fill="#3A3736"/>
<rect x="323" y="80" width="2" height="2" rx="0.2" fill="#3A3736"/>
<rect x="320" y="83" width="2" height="2" rx="0.2" fill="#3A3736"/>
<rect x="320" y="86" width="2" height="2" rx="0.2" fill="#3A3736"/>
<rect x="320" y="89" width="2" height="2" rx="0.2" fill="#3A3736"/>
<rect x="323" y="83" width="2" height="2" rx="0.2" fill="#3A3736"/>
<rect x="323" y="86" width="2" height="2" rx="0.2" fill="#3A3736"/>
<rect x="323" y="89" width="2" height="2" rx="0.2" fill="#3A3736"/>
<path d="M327 68V66" stroke="#3A3736" stroke-linecap="round" stroke-linejoin="round"/>
<path d="M322 120.687V116H332V141H328.25" stroke="#F47630" stroke-linecap="round" stroke-linejoin="round"/>
<rect x="300" y="109" width="18" height="4" stroke="#F47630" stroke-linejoin="round"/>
<path d="M301 141V113H317V141H301Z" stroke="#F47630" stroke-linecap="round" stroke-linejoin="round"/>
<path d="M328 123H317V141H328V123Z" stroke="#F47630" stroke-linecap="round" stroke-linejoin="round"/>
<rect x="301" y="107" width="16" height="2" stroke="#F47630" stroke-linejoin="round"/>
<rect x="317" y="121" width="11" height="2" stroke="#F47630" stroke-linejoin="round"/>
<rect x="304" y="116" width="2" height="2" rx="0.2" fill="#F47630"/>
<rect x="304" y="128" width="2" height="2" rx="0.2" fill="#F47630"/>
<rect x="304" y="120" width="2" height="2" rx="0.2" fill="#F47630"/>
<rect x="304" y="132" width="2" height="2" rx="0.2" fill="#F47630"/>
<rect x="304" y="124" width="2" height="2" rx="0.2" fill="#F47630"/>
<rect x="304" y="136" width="2" height="2" rx="0.2" fill="#F47630"/>
<rect x="308" y="116" width="2" height="2" rx="0.2" fill="#F47630"/>
<rect x="308" y="128" width="2" height="2" rx="0.2" fill="#F47630"/>
<rect x="308" y="120" width="2" height="2" rx="0.2" fill="#F47630"/>
<rect x="308" y="132" width="2" height="2" rx="0.2" fill="#F47630"/>
<rect x="308" y="124" width="2" height="2" rx="0.2" fill="#F47630"/>
<rect x="308" y="136" width="2" height="2" rx="0.2" fill="#F47630"/>
<rect x="312" y="116" width="2" height="2" rx="0.2" fill="#F47630"/>
<rect x="312" y="128" width="2" height="2" rx="0.2" fill="#F47630"/>
<rect x="312" y="120" width="2" height="2" rx="0.2" fill="#F47630"/>
<rect x="312" y="132" width="2" height="2" rx="0.2" fill="#F47630"/>
<rect x="320" y="125" width="2" height="2" rx="0.2" fill="#F47630"/>
<rect x="323" y="125" width="2" height="2" rx="0.2" fill="#F47630"/>
<rect x="312" y="124" width="2" height="2" rx="0.2" fill="#F47630"/>
<rect x="312" y="136" width="2" height="2" rx="0.2" fill="#F47630"/>
<rect x="320" y="128" width="2" height="2" rx="0.2" fill="#F47630"/>
<rect x="323" y="128" width="2" height="2" rx="0.2" fill="#F47630"/>
<rect x="320" y="131" width="2" height="2" rx="0.2" fill="#F47630"/>
<rect x="320" y="134" width="2" height="2" rx="0.2" fill="#F47630"/>
<rect x="320" y="137" width="2" height="2" rx="0.2" fill="#F47630"/>
<rect x="323" y="131" width="2" height="2" rx="0.2" fill="#F47630"/>
<rect x="323" y="134" width="2" height="2" rx="0.2" fill="#F47630"/>
<rect x="323" y="137" width="2" height="2" rx="0.2" fill="#F47630"/>
<path d="M327 116V114" stroke="#F47630" stroke-linecap="round" stroke-linejoin="round"/>
<path d="M314.4 212H301.6C300.716 212 300 212.768 300 213.714V222.286C300 223.232 300.716 224 301.6 224H314.4C315.284 224 316 223.232 316 222.286V213.714C316 212.768 315.284 212 314.4 212Z" stroke="#3A3736" stroke-width="1.2" stroke-linecap="round" stroke-linejoin="round"/>
<path d="M304 228H312" stroke="#3A3736" stroke-width="1.2" stroke-linecap="round" stroke-linejoin="round"/>
<path d="M308 224L308 228" stroke="#3A3736" stroke-width="1.2" stroke-linecap="round" stroke-linejoin="round"/>
<path d="M342 225L337 220L342 215" stroke="#3A3736" stroke-width="1.4" stroke-linecap="round" stroke-linejoin="round"/>
<path d="M370 215L375 220L370 225" stroke="#3A3736" stroke-width="1.4" stroke-linecap="round" stroke-linejoin="round"/>
<path d="M266 182L269 182M266 182V179M266 182L271 177" stroke="#3A3736" stroke-width="1.2" stroke-linecap="round" stroke-linejoin="round"/>
<path d="M262 186L259 186M262 186L262 189M262 186L257 191" stroke="#3A3736" stroke-width="1.2" stroke-linecap="round" stroke-linejoin="round"/>
<path d="M262 182L259 182M262 182L262 179M262 182L257 177" stroke="#3A3736" stroke-width="1.2" stroke-linecap="round" stroke-linejoin="round"/>
<path d="M266 186L269 186M266 186L266 189M266 186L271 191" stroke="#3A3736" stroke-width="1.2" stroke-linecap="round" stroke-linejoin="round"/>
<path d="M424.042 24.2353V32.3756V44M410.597 44V13.8823H396.076V44M395 44H425.118" stroke="#3A3736" stroke-linecap="round" stroke-linejoin="round"/>
<path d="M419.471 44.0001V38.353H414.765V44.0001" stroke="#3A3736" stroke-linejoin="round"/>
<path d="M421.353 26.5177C421.353 26.2968 421.174 26.1177 420.953 26.1177H419.064C418.843 26.1177 418.664 26.2968 418.664 26.5177V28.9446C418.664 29.1655 418.843 29.3446 419.064 29.3446H420.953C421.174 29.3446 421.353 29.1655 421.353 28.9446V26.5177Z" stroke="#3A3736" stroke-width="0.8" stroke-linejoin="round"/>
<path d="M421.353 32.9713C421.353 32.7504 421.174 32.5713 420.953 32.5713H419.064C418.843 32.5713 418.664 32.7504 418.664 32.9713V35.3982C418.664 35.6191 418.843 35.7982 419.064 35.7982H420.953C421.174 35.7982 421.353 35.6191 421.353 35.3982V32.9713Z" stroke="#3A3736" stroke-width="0.8" stroke-linejoin="round"/>
<path d="M415.975 26.5177C415.975 26.2968 415.796 26.1177 415.575 26.1177H413.686C413.465 26.1177 413.286 26.2968 413.286 26.5177V28.9446C413.286 29.1655 413.465 29.3446 413.686 29.3446H414.63H415.575C415.796 29.3446 415.975 29.1655 415.975 28.9446V26.5177Z" stroke="#3A3736" stroke-width="0.8" stroke-linejoin="round"/>
<path d="M415.975 32.9713C415.975 32.7504 415.796 32.5713 415.575 32.5713H413.686C413.465 32.5713 413.286 32.7504 413.286 32.9713V35.3982C413.286 35.6191 413.465 35.7982 413.686 35.7982H414.63H415.575C415.796 35.7982 415.975 35.6191 415.975 35.3982V32.9713Z" stroke="#3A3736" stroke-width="0.8" stroke-linejoin="round"/>
<path d="M407.37 19.4C407.37 19.1791 407.191 19 406.97 19H405.081C404.86 19 404.681 19.1791 404.681 19.4V21.8269C404.681 22.0478 404.86 22.2269 405.081 22.2269H406.97C407.191 22.2269 407.37 22.0478 407.37 21.8269V19.4Z" stroke="#3A3736" stroke-width="0.8" stroke-linejoin="round"/>
<path d="M407.37 27.3463C407.37 27.1254 407.191 26.9463 406.97 26.9463H405.081C404.86 26.9463 404.681 27.1254 404.681 27.3463V29.7732C404.681 29.9941 404.86 30.1732 405.081 30.1732H406.97C407.191 30.1732 407.37 29.9941 407.37 29.7732V27.3463Z" stroke="#3A3736" stroke-width="0.8" stroke-linejoin="round"/>
<path d="M407.37 35.3463C407.37 35.1254 407.191 34.9463 406.97 34.9463H405.081C404.86 34.9463 404.681 35.1254 404.681 35.3463V37.7732C404.681 37.9941 404.86 38.1732 405.081 38.1732H406.97C407.191 38.1732 407.37 37.9941 407.37 37.7732V35.3463Z" stroke="#3A3736" stroke-width="0.8" stroke-linejoin="round"/>
<path d="M401.991 19.4C401.991 19.1791 401.812 19 401.591 19H399.702C399.481 19 399.302 19.1791 399.302 19.4V21.8269C399.302 22.0478 399.481 22.2269 399.702 22.2269H400.647H401.591C401.812 22.2269 401.991 22.0478 401.991 21.8269V19.4Z" stroke="#3A3736" stroke-width="0.8" stroke-linejoin="round"/>
<path d="M401.991 27.3463C401.991 27.1254 401.812 26.9463 401.591 26.9463H399.702C399.481 26.9463 399.302 27.1254 399.302 27.3463V29.7732C399.302 29.9941 399.481 30.1732 399.702 30.1732H400.647H401.591C401.812 30.1732 401.991 29.9941 401.991 29.7732V27.3463Z" stroke="#3A3736" stroke-width="0.8" stroke-linejoin="round"/>
<path d="M401.991 35.3463C401.991 35.1254 401.812 34.9463 401.591 34.9463H399.702C399.481 34.9463 399.302 35.1254 399.302 35.3463V37.7732C399.302 37.9941 399.481 38.1732 399.702 38.1732H400.647H401.591C401.812 38.1732 401.991 37.9941 401.991 37.7732V35.3463Z" stroke="#3A3736" stroke-width="0.8" stroke-linejoin="round"/>
<path d="M411 20.4705H411.941" stroke="#3A3736" stroke-linecap="round" stroke-linejoin="round"/>
<path d="M414 13C414 12.4477 414.448 12 415 12H428C428.552 12 429 12.4477 429 13V21.2359C429 21.7882 428.552 22.2359 428 22.2359H417.847C417.622 22.2359 417.404 22.3118 417.227 22.4512L414.648 24.4883C414.386 24.6955 414 24.5086 414 24.1744V13Z" fill="white" stroke="#3A3736"/>
<circle cx="417.5" cy="17" r="1" fill="#3A3736"/>
<circle cx="421.5" cy="17" r="1" fill="#3A3736"/>
<circle cx="425.5" cy="17" r="1" fill="#3A3736"/>
<path d="M28 251.269V252.005C27.999 253.73 27.4404 255.408 26.4075 256.79C25.3745 258.172 23.9226 259.183 22.2683 259.672C20.6139 260.161 18.8458 260.102 17.2276 259.504C15.6093 258.906 14.2277 257.801 13.2888 256.354C12.3498 254.907 11.9038 253.195 12.0173 251.474C12.1308 249.752 12.7978 248.114 13.9186 246.802C15.0395 245.491 16.5542 244.577 18.2369 244.197C19.9197 243.817 21.6802 243.99 23.256 244.693" stroke="#3A3736" stroke-width="1.4" stroke-linecap="round" stroke-linejoin="round"/>
<path d="M28 245.333L18.7692 254.667L16 251.869" stroke="#3A3736" stroke-width="1.4" stroke-linecap="round" stroke-linejoin="round"/>
<path d="M60 251.269V252.005C59.999 253.73 59.4404 255.408 58.4075 256.79C57.3745 258.172 55.9226 259.183 54.2683 259.672C52.6139 260.161 50.8458 260.102 49.2276 259.504C47.6093 258.906 46.2277 257.801 45.2888 256.354C44.3498 254.907 43.9038 253.195 44.0173 251.474C44.1308 249.752 44.7978 248.114 45.9186 246.802C47.0395 245.491 48.5542 244.577 50.2369 244.197C51.9197 243.817 53.6802 243.99 55.256 244.693" stroke="#F47630" stroke-width="1.4" stroke-linecap="round" stroke-linejoin="round"/>
<path d="M60 245.333L50.7692 254.667L48 251.869" stroke="#F47630" stroke-width="1.4" stroke-linecap="round" stroke-linejoin="round"/>
<path d="M92 251.269V252.005C91.999 253.73 91.4404 255.408 90.4075 256.79C89.3745 258.172 87.9226 259.183 86.2683 259.672C84.6139 260.161 82.8458 260.102 81.2276 259.504C79.6093 258.906 78.2277 257.801 77.2888 256.354C76.3498 254.907 75.9038 253.195 76.0173 251.474C76.1308 249.752 76.7978 248.114 77.9186 246.802C79.0395 245.491 80.5542 244.577 82.2369 244.197C83.9197 243.817 85.6802 243.99 87.256 244.693" stroke="#FFD0B7" stroke-width="1.4" stroke-linecap="round" stroke-linejoin="round"/>
<path d="M92 245.333L82.7692 254.667L80 251.869" stroke="#FFD0B7" stroke-width="1.4" stroke-linecap="round" stroke-linejoin="round"/>
<path d="M120 250.444L116 246M116 246L112 250.444M116 246V254" stroke="#3A3736" stroke-width="1.4" stroke-linecap="round" stroke-linejoin="round"/>
<path d="M110 255L110 256C110 257.105 110.768 258 111.714 258L120.286 258C121.232 258 122 257.105 122 256V255" stroke="#3A3736" stroke-width="1.4" stroke-linecap="round" stroke-linejoin="round"/>
<path d="M151.47 249.333C152.932 249.333 154.117 248.139 154.117 246.667C154.117 245.194 152.932 244 151.47 244C150.008 244 148.823 245.194 148.823 246.667C148.823 248.139 150.008 249.333 151.47 249.333Z" fill="#D5CDCB" stroke="#D5CDCB" stroke-width="1.2" stroke-linecap="round" stroke-linejoin="round"/>
<path d="M142.647 254.222C144.109 254.222 145.294 253.028 145.294 251.556C145.294 250.083 144.109 248.889 142.647 248.889C141.185 248.889 140 250.083 140 251.556C140 253.028 141.185 254.222 142.647 254.222Z" fill="#D5CDCB" stroke="#D5CDCB" stroke-width="1.2" stroke-linecap="round" stroke-linejoin="round"/>
<path d="M152.353 260C153.815 260 155 258.806 155 257.333C155 255.86 153.815 254.667 152.353 254.667C150.891 254.667 149.706 255.86 149.706 257.333C149.706 258.806 150.891 260 152.353 260Z" fill="#D5CDCB" stroke="#D5CDCB" stroke-width="1.2" stroke-linecap="round" stroke-linejoin="round"/>
<path d="M145.294 252.889L149.706 255.556" stroke="#D5CDCB" stroke-width="1.2" stroke-linecap="round" stroke-linejoin="round"/>
<path d="M148.824 248L145.294 250.222" stroke="#D5CDCB" stroke-width="1.2" stroke-linecap="round" stroke-linejoin="round"/>
<path d="M185 250L180 255L175 250" stroke="#3A3736" stroke-width="1.4" stroke-linecap="round" stroke-linejoin="round"/>
<path d="M140 278L136 282L132 278" stroke="#3A3736" stroke-width="1.2" stroke-linecap="round" stroke-linejoin="round"/>
<path d="M207 254L212 249L217 254" stroke="#3A3736" stroke-width="1.4" stroke-linecap="round" stroke-linejoin="round"/>
<path d="M156 282L160 278L164 282" stroke="#3A3736" stroke-width="1.2" stroke-linecap="round" stroke-linejoin="round"/>
</svg>
